<svg xmlns="http://www.w3.org/2000/svg" width="45" height="45" fill="none" xmlns:v="https://vecta.io/nano"><path d="M43.885 25.977l-17.458 17.48A5.27 5.27 0 0 1 22.693 45c-1.352 0-2.703-.514-3.732-1.541L1.298 25.988c-1.183-1.181-1.533-2.933-.897-4.47a4.09 4.09 0 0 1 3.79-2.532h5.826v-5.098a1.76 1.76 0 0 1 1.758-1.758 1.76 1.76 0 0 1 1.758 1.758v6.856a1.76 1.76 0 0 1-1.758 1.758H4.191c-.341 0-.486.226-.541.361-.068.163-.1.405.126.631L21.44 40.965a1.77 1.77 0 0 0 2.502.006l17.456-17.478c.226-.227.193-.468.126-.631-.056-.134-.2-.36-.542-.36h-7.232a1.76 1.76 0 0 1-1.758-1.758v-6.856a1.76 1.76 0 0 1 1.758-1.758 1.76 1.76 0 0 1 1.758 1.758v5.098h5.475a4.09 4.09 0 0 1 3.789 2.53c.636 1.535.289 3.286-.886 4.462zM11.775 3.516a1.76 1.76 0 0 0 1.758-1.758A1.76 1.76 0 0 0 11.775 0a1.76 1.76 0 0 0-1.758 1.758 1.76 1.76 0 0 0 1.758 1.758zm0 6.153a1.76 1.76 0 0 0 1.758-1.758 1.76 1.76 0 0 0-1.758-1.758 1.76 1.76 0 0 0-1.758 1.758 1.76 1.76 0 0 0 1.758 1.758zm21.974-6.153a1.76 1.76 0 0 0 1.758-1.758A1.76 1.76 0 0 0 33.749 0a1.76 1.76 0 0 0-1.758 1.758 1.76 1.76 0 0 0 1.758 1.758zm0 6.153a1.76 1.76 0 0 0 1.758-1.758 1.76 1.76 0 0 0-1.758-1.758 1.76 1.76 0 0 0-1.758 1.758 1.76 1.76 0 0 0 1.758 1.758zm-10.052 16.7h-2.618c-.419 0-.869-.241-.869-.769a1.76 1.76 0 0 0-1.758-1.758 1.76 1.76 0 0 0-1.758 1.758c0 2.349 1.841 4.199 4.221 4.281v.971a1.76 1.76 0 0 0 1.758 1.758 1.76 1.76 0 0 0 1.758-1.758v-1.018c2.418-.336 4.221-2.316 4.221-4.783v-1.069a4.85 4.85 0 0 0-1.464-3.494c-.931-.912-2.17-1.414-3.49-1.414h-1.611c-.774 0-1.428-.685-1.428-1.494v-.641c0-.787.614-1.381 1.428-1.381h1.523c.448 0 .911.3.911.801a1.76 1.76 0 0 0 1.758 1.758 1.76 1.76 0 0 0 1.758-1.758c0-2.107-1.556-3.865-3.606-4.241v-1.131a1.76 1.76 0 0 0-1.758-1.758 1.76 1.76 0 0 0-1.758 1.758v1.191a4.91 4.91 0 0 0-2.313 1.271 4.84 4.84 0 0 0-1.46 3.489v.641c0 2.763 2.218 5.01 4.944 5.01h1.611c.807 0 1.439.612 1.439 1.392v1.069c0 .866-.724 1.318-1.439 1.318z" fill="#fff"/></svg>