<svg xmlns="http://www.w3.org/2000/svg" width="30" height="30" fill="none" xmlns:v="https://vecta.io/nano"><g clip-path="url(#A)" fill="#fff"><path d="M29.999 16.84c0-7.258-5.903-13.064-13.161-13.064a13.07 13.07 0 0 0-6.387 1.645L5.322.292c-.29-.194-.581-.29-.871-.29-.387.097-.581.29-.774.581l-.774 2.322-2.226.774c-.387.194-.581.387-.677.774 0 .29.097.581.29.871l5.129 5.129c-1.064 1.935-1.645 4.161-1.645 6.484C3.774 24.194 9.677 30 16.935 30s13.161-5.903 13.064-13.161zM5.032 2.711L9.29 6.969 9 7.646 4.742 3.388l.29-.677zM2.71 5.033l.677-.29 4.258 4.258-.677.29L2.71 5.033zm14.225 23.031c-6.193 0-11.225-5.032-11.225-11.129 0-2.032.484-3.968 1.548-5.613l1.935-.774 6.967 6.967c.194.194.484.29.677.29s.484-.097.677-.29c.387-.387.387-.968 0-1.355l-6.967-6.967.774-1.935c1.645-.968 3.58-1.548 5.613-1.548 6.193 0 11.225 5.032 11.225 11.129-.097 6.193-5.129 11.225-11.225 11.225zm5.903-17.225c-1.548-1.548-3.677-2.419-6-2.419-1.065 0-2.226.194-3.193.677-.484.194-.774.774-.484 1.258.194.484.774.774 1.258.484.774-.29 1.645-.484 2.419-.484 1.742 0 3.387.677 4.645 1.935s1.935 2.903 1.935 4.645c0 3.58-2.903 6.484-6.484 6.484-1.742 0-3.387-.678-4.548-1.935-1.258-1.258-1.935-2.903-1.935-4.645 0-.871.194-1.645.484-2.419.194-.484 0-1.064-.581-1.258-.484-.194-1.064 0-1.258.581-.387.968-.581 2.032-.581 3.097 0 2.226.871 4.355 2.516 6 1.548 1.548 3.677 2.419 6 2.419a8.43 8.43 0 0 0 8.419-8.419c-.194-2.226-1.065-4.355-2.613-6zm-4.742 2.419c-.484-.194-1.064.097-1.258.581s.097 1.065.581 1.258c.774.29 1.258.968 1.258 1.742 0 .968-.774 1.839-1.839 1.839-.774 0-1.452-.484-1.742-1.258-.194-.484-.677-.774-1.258-.581-.484.194-.774.677-.581 1.258.581 1.548 2.032 2.516 3.581 2.516a3.78 3.78 0 0 0 3.774-3.774c0-1.645-1.064-3-2.516-3.581z"/></g><defs><clipPath id="A"><path fill="#fff" d="M0 0h30v30H0z"/></clipPath></defs></svg>