<svg xmlns="http://www.w3.org/2000/svg" xmlns:xlink="http://www.w3.org/1999/xlink" width="45" height="45" fill="none" xmlns:v="https://vecta.io/nano"><g fill="#fff"><path d="M41.18 26.945a1.76 1.76 0 0 0-2.288-.971 1.76 1.76 0 0 0-.971 2.288l2.07 5.121-6.149-2.71a1.76 1.76 0 0 0-1.399-.008c-2.101.897-4.352 1.351-6.691 1.351-9.411 0-15.732-7.368-15.732-14.25 0-7.858 7.058-14.25 15.732-14.25s15.732 6.393 15.732 14.25c0 .613-.057 1.347-.157 2.014a1.76 1.76 0 0 0 1.479 1.998 1.76 1.76 0 0 0 1.998-1.479A17.75 17.75 0 0 0 45 17.766c0-4.775-2.022-9.256-5.694-12.616C35.678 1.829 30.865 0 25.752 0s-9.926 1.829-13.554 5.15c-3.281 3.003-5.244 6.901-5.624 11.104C2.447 18.987 0 23.366 0 28.083c0 2.947.928 5.743 2.696 8.149L.129 42.583a1.76 1.76 0 0 0 .406 1.921c.335.325.776.496 1.224.496.239 0 .481-.049.709-.149l7.403-3.263a16.73 16.73 0 0 0 5.863 1.044c.044 0 .087-.003.13-.007 2.939-.022 5.796-.795 8.27-2.242 2.216-1.296 4.04-3.076 5.318-5.178a20.23 20.23 0 0 0 3.652-1.015l9.431 4.157c.228.1.469.149.709.149a1.76 1.76 0 0 0 1.63-2.417l-3.693-9.134zM15.733 39.111c-.024 0-.047.003-.071.004-1.795-.009-3.522-.362-5.136-1.05-.447-.191-.954-.188-1.399.008L5.01 39.888l1.328-3.285a1.76 1.76 0 0 0-.292-1.799c-1.655-1.942-2.53-4.266-2.53-6.72 0-2.809 1.182-5.471 3.249-7.489.644 3.509 2.46 6.866 5.2 9.503 3.409 3.281 7.919 5.182 12.789 5.411-2.286 2.251-5.558 3.603-9.021 3.603z"/><use xlink:href="#B"/><use xlink:href="#B" x="7.031"/><use xlink:href="#B" x="-7.031"/></g><defs ><path id="B" d="M25.664 19.6a1.76 1.76 0 0 0 1.758-1.758 1.76 1.76 0 0 0-1.758-1.758 1.76 1.76 0 0 0-1.758 1.758 1.76 1.76 0 0 0 1.758 1.758z"/></defs></svg>