<svg xmlns="http://www.w3.org/2000/svg" width="29" height="45" fill="#fff" xmlns:v="https://vecta.io/nano"><path d="M26.742 15.941l-9.546 2.088 4.667-16.344C22.269.263 20.37-.647 19.518.563L.899 27.016c-.7.995.213 2.33 1.393 2.039l8.506-2.094-4.652 16.36c-.401 1.41 1.465 2.308 2.327 1.146l19.61-26.453c.724-.976-.154-2.332-1.341-2.073zm-16.084 21.15l3.296-11.592a1.32 1.32 0 0 0-1.583-1.641l-7.289 1.794L17.189 8.453l-3.133 10.972a1.32 1.32 0 0 0 1.549 1.65l8.267-1.808-13.213 17.824zm15.233-.001l-3.164-.053 1.68-3.305a1.32 1.32 0 0 0-.578-1.772 1.32 1.32 0 0 0-1.773.578l-2.637 5.185c-.536 1.052.166 1.741 1.177 1.916l3.156.053-1.7 3.4a1.32 1.32 0 0 0 .59 1.769 1.32 1.32 0 0 0 1.769-.59l2.636-5.273c.433-.866-.194-1.893-1.157-1.908zM5.366.143a1.32 1.32 0 0 0-1.769.59L.961 6.005c-.429.858.183 1.908 1.187 1.908H5.28l-1.683 3.365a1.32 1.32 0 0 0 .59 1.769 1.32 1.32 0 0 0 1.769-.59l2.636-5.273c.439-.877-.207-1.908-1.179-1.908h-3.14l1.683-3.365a1.32 1.32 0 0 0-.59-1.769z"/></svg>