<svg xmlns="http://www.w3.org/2000/svg" width="512" height="512" fill="none" xmlns:v="https://vecta.io/nano"><rect width="512" height="512" rx="120" fill="#f3f8ff"/><path d="M40 299.52v-88.04h56.368v17.98H60.877v16.12h31.316v17.98H60.877v17.98h36.719v17.98H40zm71.118 0v-88.04h35.737c6.795 0 13.017 1.075 18.666 3.224 5.649 2.067 10.521 5.043 14.614 8.928 4.176 3.885 7.369 8.515 9.579 13.888 2.293 5.373 3.439 11.325 3.439 17.856s-1.146 12.483-3.439 17.856a40.2 40.2 0 0 1-9.579 14.012c-4.093 3.885-9.006 6.903-14.737 9.052-5.649 2.149-11.912 3.224-18.789 3.224h-35.491zm21.368-19.096h13.018c5.24 0 9.742-.992 13.509-2.976 3.847-2.067 6.795-4.96 8.842-8.68 2.128-3.72 3.193-8.143 3.193-13.268s-1.065-9.548-3.193-13.268c-2.047-3.72-4.995-6.572-8.842-8.556-3.767-2.067-8.269-3.1-13.509-3.1h-13.018v49.848zM243.086 302c-5.894 0-11.216-.909-15.964-2.728-4.667-1.819-8.72-4.423-12.158-7.812-3.357-3.389-5.936-7.44-7.737-12.152-1.801-4.795-2.702-10.127-2.702-15.996V211.48h21.368v50.84c0 4.051.696 7.564 2.088 10.54 1.474 2.976 3.48 5.291 6.018 6.944 2.62 1.571 5.731 2.356 9.333 2.356s6.673-.785 9.211-2.356c2.619-1.653 4.625-3.968 6.017-6.944 1.474-2.976 2.211-6.489 2.211-10.54v-50.84h21.368v51.832c0 5.869-.941 11.201-2.824 15.996-1.802 4.712-4.422 8.763-7.86 12.152-3.357 3.389-7.45 5.993-12.281 7.812S248.981 302 243.086 302zm94.591 0c-5.076 0-9.866-.744-14.369-2.232-4.421-1.488-8.473-3.596-12.158-6.324-3.602-2.728-6.713-5.952-9.333-9.672-2.62-3.803-4.667-8.019-6.14-12.648-1.392-4.712-2.088-9.713-2.088-15.004s.696-10.292 2.088-15.004c1.473-4.795 3.52-9.135 6.14-13.02 2.702-3.968 5.895-7.357 9.579-10.168a40.43 40.43 0 0 1 12.158-6.572c4.503-1.571 9.251-2.356 14.245-2.356 4.667 0 9.088.661 13.264 1.984 4.257 1.323 8.064 3.224 11.421 5.704a34.12 34.12 0 0 1 8.719 8.804c2.456 3.389 4.298 7.233 5.526 11.532l-20.877 4.712c-1.801-4.133-4.298-7.316-7.491-9.548s-6.836-3.348-10.93-3.348c-3.111 0-6.018.703-8.719 2.108-2.62 1.323-4.913 3.224-6.877 5.704-1.965 2.397-3.48 5.249-4.544 8.556-1.065 3.224-1.597 6.779-1.597 10.664 0 3.803.532 7.316 1.597 10.54s2.579 6.035 4.544 8.432a21.47 21.47 0 0 0 7 5.456c2.701 1.24 5.649 1.86 8.842 1.86 4.257 0 7.982-1.075 11.175-3.224 3.275-2.232 5.895-5.456 7.86-9.672l20.877 4.712c-1.637 5.787-4.38 10.788-8.228 15.004-3.766 4.133-8.351 7.357-13.755 9.672-5.403 2.232-11.38 3.348-17.929 3.348zm41.586-2.48l34.509-88.04h22.719L471 299.52h-22.105l-6.141-17.112h-35.982l-6.14 17.112h-21.369zm34.018-35.216h22.965l-11.544-32.116-11.421 32.116z" fill="#292e37"/></svg>