<svg xmlns="http://www.w3.org/2000/svg" width="6" height="6" fill="none" xmlns:v="https://vecta.io/nano"><g clip-path="url(#A)" fill="#7118ef"><path d="M3.98 2.286a.44.44 0 0 1-.726.46.44.44 0 0 1 .46-.726L4.979.755l-2.762.511-.775 1.744L2.99 4.559h0l1.744-.775.511-2.762L3.98 2.286zm-3.01.668l-.623.623 2.076 2.076.623-.623L.97 2.954z"/><path d="M3.418 2.435c0 .081.066.147.147.147.039 0 .076-.015.104-.043h0c.057-.057.057-.15 0-.208-.028-.028-.065-.043-.104-.043-.081 0-.147.066-.147.147z"/></g><defs><clipPath id="A"><path fill="#fff" transform="translate(.347 .755)" d="M0 0h4.898v4.898H0z"/></clipPath></defs></svg>