<svg width="6" height="6" viewBox="0 0 6 6" fill="none" xmlns="http://www.w3.org/2000/svg">
<g clip-path="url(#clip0_103_640)">
<path d="M3.97996 2.28646C4.03495 2.44035 4.00209 2.62083 3.87652 2.74642C3.7044 2.91854 3.4258 2.91855 3.25367 2.74641C3.08155 2.57429 3.08151 2.2957 3.25367 2.12355C3.37863 1.99858 3.55917 1.96492 3.71362 2.02011L4.97862 0.755127L2.21661 1.26661L1.44156 3.01051C1.48862 3.05757 2.82469 4.39365 2.98958 4.55853L2.98958 4.55852L4.73347 3.78347L5.24496 1.02148L3.97996 2.28646Z" fill="#7118EF"/>
<path d="M0.969787 2.9541L0.346924 3.57697L2.42312 5.65317L3.04598 5.03031C2.902 4.88633 1.07393 3.05825 0.969787 2.9541Z" fill="#7118EF"/>
<path d="M3.41824 2.4349C3.41824 2.51603 3.48393 2.58171 3.56505 2.58171C3.60427 2.58171 3.64113 2.56644 3.66885 2.53872L3.66886 2.5387C3.72623 2.48135 3.72623 2.38847 3.66886 2.33108C3.64113 2.30336 3.60426 2.28809 3.56505 2.28809C3.48392 2.2881 3.41824 2.35376 3.41824 2.4349Z" fill="#7118EF"/>
</g>
<defs>
<clipPath id="clip0_103_640">
<rect width="4.89796" height="4.89796" fill="white" transform="translate(0.346924 0.755127)"/>
</clipPath>
</defs>
</svg>
