<svg xmlns="http://www.w3.org/2000/svg" width="5" height="5" fill="#00d9ff" xmlns:v="https://vecta.io/nano"><path d="M4.821 2.303l-.363-.196L2.53 3.128c-.051.027-.113.027-.164 0L.44 2.107l-.348.187c-.084.045-.117.15-.072.234l2.429 1.296 2.42-1.281c.053-.079.032-.187-.047-.24zm.056 1.111c-.016-.03-.041-.055-.071-.071l-.348-.187L2.53 4.177c-.051.027-.113.027-.164 0L.44 3.156l-.348.187c-.085.046-.117.152-.071.237.016.03.041.055.071.071l2.274 1.224c.052.028.114.028.166 0l2.274-1.224c.085-.046.117-.152.071-.237zm-.056-2.159L2.532.021c-.052-.028-.114-.028-.166 0L.092 1.245c-.084.045-.117.15-.072.234l2.429 1.296 2.42-1.281c.053-.079.032-.187-.047-.24z"/></svg>