<svg width="5" height="5" viewBox="0 0 5 5" fill="none" xmlns="http://www.w3.org/2000/svg">
<path d="M4.82124 2.30325C4.8163 2.29994 4.81121 2.29689 4.80595 2.2941L4.45837 2.10693L2.53085 3.12746C2.47964 3.15458 2.41833 3.15458 2.36712 3.12746L0.439609 2.10693L0.0920238 2.2941C0.0075464 2.33894 -0.0245964 2.44378 0.0202457 2.52825C0.0230336 2.5335 0.026088 2.53861 0.0293986 2.54355L2.44899 3.82453L4.86858 2.54355C4.92186 2.46412 4.90068 2.35654 4.82124 2.30325Z" fill="#00D9FF"/>
<path d="M4.87678 3.41426C4.86057 3.38424 4.83594 3.35961 4.80593 3.34342L4.45836 3.15625L2.53083 4.17678C2.47962 4.2039 2.41831 4.2039 2.3671 4.17678L0.43958 3.15625L0.0919947 3.34342C0.00697402 3.38931 -0.0247383 3.49542 0.0211493 3.58044C0.0373539 3.61046 0.0619838 3.63509 0.0919947 3.65129L2.36605 4.87578C2.41781 4.90365 2.48012 4.90365 2.53188 4.87578L4.80593 3.65129C4.89094 3.6054 4.92266 3.49928 4.87678 3.41426Z" fill="#00D9FF"/>
<path d="M4.82124 1.25455C4.8163 1.25124 4.81121 1.24818 4.80595 1.24539L2.53191 0.0209015C2.48015 -0.00696718 2.41784 -0.00696718 2.36608 0.0209015L0.0920238 1.24539C0.0075464 1.29024 -0.0245964 1.39507 0.0202457 1.47955C0.0230336 1.48479 0.026088 1.4899 0.0293986 1.49484L2.44899 2.77583L4.86858 1.49484C4.92186 1.41541 4.90068 1.30783 4.82124 1.25455Z" fill="#00D9FF"/>
</svg>
