<svg xmlns="http://www.w3.org/2000/svg" width="30" height="30" fill="none" xmlns:v="https://vecta.io/nano"><g clip-path="url(#A)" fill="#fff"><path d="M12.363 8.212v3.636l.257.257c.082.082 2.059 2.015 5.895 2.015s5.813-1.933 5.895-2.015l.257-.258V8.212l1.758-.703v4.854h1.758V6.806l1.488-.595-11.156-4.462L7.36 6.211l5.003 2.001zm10.547 2.862c-.559.418-2.012 1.289-4.395 1.289s-3.835-.871-4.394-1.289V8.915l4.394 1.758 4.395-1.758v2.159zm2.028-4.864l-6.422 2.57-6.422-2.569 6.422-2.569 6.422 2.569zM6.774 7.653L5.531 6.41 4.406 7.534a6.16 6.16 0 0 1 6.141-5.777V0a7.92 7.92 0 0 0-7.902 7.554L1.5 6.41.257 7.653l3.258 3.258 3.258-3.258zM29.743 20.59l-3.258-3.258-3.258 3.258 1.243 1.243 1.136-1.136v1.394a6.16 6.16 0 0 1-6.152 6.152V30a7.92 7.92 0 0 0 7.91-7.91v-1.394l1.136 1.136 1.243-1.243zm-8.591 4.078v-5.557l1.488-.595-11.156-4.462L.329 18.516l5.003 2.001v3.636l.257.258c.082.082 2.059 2.015 5.895 2.015s5.813-1.933 5.895-2.015l.258-.257v-3.636l1.758-.703v4.854h1.758zm-5.273-1.288c-.559.418-2.012 1.288-4.395 1.288s-3.835-.871-4.394-1.288v-2.16l4.394 1.758 4.395-1.758v2.159zm-4.395-2.295l-6.422-2.569 6.422-2.569 6.423 2.569-6.423 2.569z"/></g><defs><clipPath id="A"><path fill="#fff" d="M0 0h30v30H0z"/></clipPath></defs></svg>