<svg xmlns="http://www.w3.org/2000/svg" width="24" height="24" fill="none" xmlns:v="https://vecta.io/nano"><g clip-path="url(#A)" fill="#00d9ff"><path d="M23.624 11.291l-.075-.045-1.703-.917-9.445 5.001c-.251.133-.551.133-.802 0l-9.445-5.001-1.703.917a.85.85 0 0 0-.352 1.147l.045.075L12 18.745l11.856-6.277a.85.85 0 0 0-.232-1.177zm.272 5.445c-.079-.147-.2-.268-.347-.347l-1.703-.917-9.445 5.001c-.251.133-.551.133-.802 0l-9.445-5.001-1.703.917c-.417.225-.572.745-.347 1.162.079.147.2.268.347.347l11.143 6c.254.137.559.137.813 0l11.143-6c.417-.225.572-.745.347-1.161zm-.272-10.588l-.075-.045-11.143-6c-.254-.137-.559-.137-.812 0l-11.143 6A.85.85 0 0 0 .099 7.25l.045.075L12 13.603l11.856-6.277a.85.85 0 0 0-.232-1.177z"/></g><defs><clipPath id="A"><path fill="#fff" d="M0 0h24v24H0z"/></clipPath></defs></svg>