<svg width="24" height="24" viewBox="0 0 24 24" fill="none" xmlns="http://www.w3.org/2000/svg">
<g clip-path="url(#clip0_103_113)">
<path d="M23.6241 11.2906C23.5999 11.2744 23.5749 11.2594 23.5492 11.2457L21.8461 10.3286L12.4012 15.3292C12.1503 15.4621 11.8498 15.4621 11.5989 15.3292L2.1541 10.3286L0.450932 11.2457C0.0369926 11.4655 -0.120507 11.9791 0.0992191 12.3931C0.11288 12.4188 0.127846 12.4438 0.144068 12.468L12.0001 18.7449L23.856 12.468C24.1171 12.0788 24.0133 11.5517 23.6241 11.2906Z" fill="#00D9FF"/>
<path d="M23.8964 16.7356C23.817 16.5885 23.6963 16.4678 23.5492 16.3884L21.8461 15.4713L12.4013 20.4719C12.1503 20.6048 11.8499 20.6048 11.599 20.4719L2.15412 15.4713L0.450954 16.3884C0.0343528 16.6133 -0.121038 17.1333 0.103811 17.5499C0.183214 17.697 0.303901 17.8176 0.450954 17.897L11.5938 23.897C11.8474 24.0336 12.1528 24.0336 12.4064 23.897L23.5492 17.897C23.9658 17.6721 24.1212 17.1522 23.8964 16.7356Z" fill="#00D9FF"/>
<path d="M23.6241 6.14837C23.5999 6.13215 23.5749 6.11719 23.5491 6.10353L12.4063 0.103516C12.1527 -0.0330406 11.8474 -0.0330406 11.5938 0.103516L0.450886 6.10353C0.0369469 6.32325 -0.120553 6.83693 0.0991734 7.25087C0.112834 7.27659 0.127801 7.3016 0.144023 7.32581L12 13.6026L23.856 7.32581C24.1171 6.93663 24.0133 6.40948 23.6241 6.14837Z" fill="#00D9FF"/>
</g>
<defs>
<clipPath id="clip0_103_113">
<rect width="24" height="24" fill="white"/>
</clipPath>
</defs>
</svg>
