<svg xmlns="http://www.w3.org/2000/svg" width="24" height="24" fill="#7118ef" xmlns:v="https://vecta.io/nano"><path d="M17.802 7.504a2.16 2.16 0 0 1-3.559 2.254c-.844-.843-.844-2.208 0-3.052a2.16 2.16 0 0 1 2.254-.507L22.695 0 9.161 2.506l-3.798 8.545 7.585 7.585h0l8.545-3.798L24 1.305l-6.198 6.198zm-14.75 3.271L0 13.827 10.173 24l3.052-3.052L3.052 10.775zm11.997-2.544a.72.72 0 0 0 .719.719c.192 0 .373-.075.509-.211h0a.72.72 0 0 0 0-1.017c-.136-.136-.316-.211-.509-.211a.72.72 0 0 0-.719.719z"/></svg>