<svg xmlns="http://www.w3.org/2000/svg" width="30" height="30" fill="#fff" xmlns:v="https://vecta.io/nano"><path d="M10.541 19.46H4.865v4.054h5.676V19.46zM4.865 6.486h5.676v4.054H4.865V6.486zM17.838 19.46h-5.676v4.054h5.676V19.46zM12.162 6.486h5.676v4.054h-5.676V6.486zm12.973 6.487H4.865v4.054h20.27v-4.054zM19.46 19.46h5.676v4.054H19.46V19.46zm5.675-12.974H19.46v4.054h5.676V6.486z"/><path fill-rule="evenodd" d="M0 1.622A1.62 1.62 0 0 1 1.622 0h26.757A1.62 1.62 0 0 1 30 1.622v26.757A1.62 1.62 0 0 1 28.378 30H1.622A1.62 1.62 0 0 1 0 28.378V1.622zm1.622 0h26.757v26.757H1.622V1.622z"/></svg>