<svg width="21" height="21" viewBox="0 0 21 21" fill="none" xmlns="http://www.w3.org/2000/svg">
<g id="Component 6">
<path id="Vector" d="M15.8649 5.43254C15.1738 4.73798 14.3507 4.18729 13.4435 3.81258C12.5363 3.43787 11.5632 3.24664 10.5809 3.25004C6.46535 3.25004 3.11108 6.58753 3.11108 10.6825C3.11108 11.995 3.45782 13.27 4.10606 14.395L3.05078 18.25L7.00807 17.215C8.10103 17.8075 9.32968 18.1225 10.5809 18.1225C14.6965 18.1225 18.0508 14.785 18.0508 10.69C18.0508 8.70253 17.2744 6.83503 15.8649 5.43254ZM10.5809 16.8625C9.46535 16.8625 8.37239 16.5625 7.4151 16L7.18897 15.865L4.83721 16.48L5.46284 14.2L5.31209 13.9675C4.6923 12.9827 4.3632 11.8445 4.36234 10.6825C4.36234 7.27753 7.15128 4.50254 10.5734 4.50254C12.2317 4.50254 13.792 5.14754 14.9603 6.31754C15.5388 6.89051 15.9973 7.57203 16.3091 8.3226C16.6209 9.07317 16.78 9.87786 16.7769 10.69C16.792 14.095 14.003 16.8625 10.5809 16.8625ZM13.988 12.2425C13.7995 12.1525 12.8799 11.7025 12.7141 11.635C12.5407 11.575 12.4201 11.545 12.292 11.725C12.1638 11.9125 11.8096 12.3325 11.704 12.4525C11.5985 12.58 11.4855 12.595 11.297 12.4975C11.1086 12.4075 10.5056 12.205 9.79701 11.575C9.23922 11.08 8.86988 10.4725 8.75681 10.285C8.65128 10.0975 8.74173 10 8.83973 9.90252C8.92264 9.82002 9.02817 9.68503 9.11862 9.58003C9.20907 9.47503 9.24676 9.39253 9.30706 9.27253C9.36736 9.14503 9.33721 9.04003 9.29199 8.95003C9.24676 8.86003 8.86988 7.94503 8.71912 7.57003C8.56837 7.21003 8.41008 7.25503 8.29701 7.24753H7.9352C7.80706 7.24753 7.61108 7.29253 7.43772 7.48003C7.27189 7.66753 6.78947 8.11753 6.78947 9.03253C6.78947 9.94753 7.46033 10.8325 7.55078 10.9525C7.64123 11.08 8.86988 12.955 10.7392 13.7575C11.1839 13.9525 11.5307 14.065 11.802 14.1475C12.2468 14.29 12.6538 14.2675 12.9779 14.2225C13.3397 14.17 14.086 13.7725 14.2367 13.3375C14.395 12.9025 14.395 12.535 14.3422 12.4525C14.2895 12.37 14.1764 12.3325 13.988 12.2425Z" fill="#000"/>
</g>
</svg>
