<svg width="152" height="186" viewBox="0 0 152 186" fill="none" xmlns="http://www.w3.org/2000/svg">
<rect width="152" height="186" rx="10" fill="white"/>
<circle cx="125" cy="161" r="15" fill="#EFF7F9"/>
<rect x="120" y="159.5" width="9" height="2" fill="#292E37"/>
<rect x="123.5" y="165" width="9" height="2" transform="rotate(-90 123.5 165)" fill="#292E37"/>
<path d="M17.43 152.92H14.19V154.63C14.33 154.457 14.53 154.317 14.79 154.21C15.05 154.097 15.3267 154.04 15.62 154.04C16.1533 154.04 16.59 154.157 16.93 154.39C17.27 154.623 17.5167 154.923 17.67 155.29C17.8233 155.65 17.9 156.037 17.9 156.45C17.9 157.217 17.68 157.833 17.24 158.3C16.8067 158.767 16.1867 159 15.38 159C14.62 159 14.0133 158.81 13.56 158.43C13.1067 158.05 12.85 157.553 12.79 156.94H14.15C14.21 157.207 14.3433 157.42 14.55 157.58C14.7633 157.74 15.0333 157.82 15.36 157.82C15.7533 157.82 16.05 157.697 16.25 157.45C16.45 157.203 16.55 156.877 16.55 156.47C16.55 156.057 16.4467 155.743 16.24 155.53C16.04 155.31 15.7433 155.2 15.35 155.2C15.07 155.2 14.8367 155.27 14.65 155.41C14.4633 155.55 14.33 155.737 14.25 155.97H12.91V151.69H17.43V152.92ZM18.8655 155.26C18.8655 154.107 19.0722 153.203 19.4855 152.55C19.9055 151.897 20.5989 151.57 21.5655 151.57C22.5322 151.57 23.2222 151.897 23.6355 152.55C24.0555 153.203 24.2655 154.107 24.2655 155.26C24.2655 156.42 24.0555 157.33 23.6355 157.99C23.2222 158.65 22.5322 158.98 21.5655 158.98C20.5989 158.98 19.9055 158.65 19.4855 157.99C19.0722 157.33 18.8655 156.42 18.8655 155.26ZM22.8855 155.26C22.8855 154.767 22.8522 154.353 22.7855 154.02C22.7255 153.68 22.5989 153.403 22.4055 153.19C22.2189 152.977 21.9389 152.87 21.5655 152.87C21.1922 152.87 20.9089 152.977 20.7155 153.19C20.5289 153.403 20.4022 153.68 20.3355 154.02C20.2755 154.353 20.2455 154.767 20.2455 155.26C20.2455 155.767 20.2755 156.193 20.3355 156.54C20.3955 156.88 20.5222 157.157 20.7155 157.37C20.9089 157.577 21.1922 157.68 21.5655 157.68C21.9389 157.68 22.2222 157.577 22.4155 157.37C22.6089 157.157 22.7355 156.88 22.7955 156.54C22.8555 156.193 22.8855 155.767 22.8855 155.26ZM25.0704 153.5C25.0704 152.993 25.2171 152.597 25.5104 152.31C25.8104 152.023 26.1937 151.88 26.6604 151.88C27.1271 151.88 27.5071 152.023 27.8004 152.31C28.1004 152.597 28.2504 152.993 28.2504 153.5C28.2504 154.013 28.1004 154.413 27.8004 154.7C27.5071 154.987 27.1271 155.13 26.6604 155.13C26.1937 155.13 25.8104 154.987 25.5104 154.7C25.2171 154.413 25.0704 154.013 25.0704 153.5ZM31.4904 152L27.5604 159H26.2004L30.1204 152H31.4904ZM26.6504 152.72C26.2837 152.72 26.1004 152.98 26.1004 153.5C26.1004 154.027 26.2837 154.29 26.6504 154.29C26.8304 154.29 26.9704 154.227 27.0704 154.1C27.1704 153.967 27.2204 153.767 27.2204 153.5C27.2204 152.98 27.0304 152.72 26.6504 152.72ZM29.4604 157.49C29.4604 156.977 29.6071 156.58 29.9004 156.3C30.2004 156.013 30.5837 155.87 31.0504 155.87C31.5171 155.87 31.8937 156.013 32.1804 156.3C32.4737 156.58 32.6204 156.977 32.6204 157.49C32.6204 158.003 32.4737 158.403 32.1804 158.69C31.8937 158.977 31.5171 159.12 31.0504 159.12C30.5771 159.12 30.1937 158.977 29.9004 158.69C29.6071 158.403 29.4604 158.003 29.4604 157.49ZM31.0404 156.71C30.6604 156.71 30.4704 156.97 30.4704 157.49C30.4704 158.017 30.6604 158.28 31.0404 158.28C31.4137 158.28 31.6004 158.017 31.6004 157.49C31.6004 156.97 31.4137 156.71 31.0404 156.71Z" fill="#FE5701"/>
<path d="M38.3042 152.02C39.0376 152.02 39.6809 152.163 40.2342 152.45C40.7942 152.737 41.2242 153.147 41.5242 153.68C41.8309 154.207 41.9842 154.82 41.9842 155.52C41.9842 156.22 41.8309 156.833 41.5242 157.36C41.2242 157.88 40.7942 158.283 40.2342 158.57C39.6809 158.857 39.0376 159 38.3042 159H35.8642V152.02H38.3042ZM38.2542 157.81C38.9876 157.81 39.5542 157.61 39.9542 157.21C40.3542 156.81 40.5542 156.247 40.5542 155.52C40.5542 154.793 40.3542 154.227 39.9542 153.82C39.5542 153.407 38.9876 153.2 38.2542 153.2H37.2642V157.81H38.2542ZM43.6422 152.8C43.3955 152.8 43.1889 152.723 43.0222 152.57C42.8622 152.41 42.7822 152.213 42.7822 151.98C42.7822 151.747 42.8622 151.553 43.0222 151.4C43.1889 151.24 43.3955 151.16 43.6422 151.16C43.8889 151.16 44.0922 151.24 44.2522 151.4C44.4189 151.553 44.5022 151.747 44.5022 151.98C44.5022 152.213 44.4189 152.41 44.2522 152.57C44.0922 152.723 43.8889 152.8 43.6422 152.8ZM44.3322 153.46V159H42.9322V153.46H44.3322ZM47.7354 159.09C47.2821 159.09 46.8754 159.01 46.5154 158.85C46.1554 158.683 45.8687 158.46 45.6554 158.18C45.4487 157.9 45.3354 157.59 45.3154 157.25H46.7254C46.7521 157.463 46.8554 157.64 47.0354 157.78C47.2221 157.92 47.4521 157.99 47.7254 157.99C47.9921 157.99 48.1987 157.937 48.3454 157.83C48.4987 157.723 48.5754 157.587 48.5754 157.42C48.5754 157.24 48.4821 157.107 48.2954 157.02C48.1154 156.927 47.8254 156.827 47.4254 156.72C47.0121 156.62 46.6721 156.517 46.4054 156.41C46.1454 156.303 45.9187 156.14 45.7254 155.92C45.5387 155.7 45.4454 155.403 45.4454 155.03C45.4454 154.723 45.5321 154.443 45.7054 154.19C45.8854 153.937 46.1387 153.737 46.4654 153.59C46.7987 153.443 47.1887 153.37 47.6354 153.37C48.2954 153.37 48.8221 153.537 49.2154 153.87C49.6087 154.197 49.8254 154.64 49.8654 155.2H48.5254C48.5054 154.98 48.4121 154.807 48.2454 154.68C48.0854 154.547 47.8687 154.48 47.5954 154.48C47.3421 154.48 47.1454 154.527 47.0054 154.62C46.8721 154.713 46.8054 154.843 46.8054 155.01C46.8054 155.197 46.8987 155.34 47.0854 155.44C47.2721 155.533 47.5621 155.63 47.9554 155.73C48.3554 155.83 48.6854 155.933 48.9454 156.04C49.2054 156.147 49.4287 156.313 49.6154 156.54C49.8087 156.76 49.9087 157.053 49.9154 157.42C49.9154 157.74 49.8254 158.027 49.6454 158.28C49.4721 158.533 49.2187 158.733 48.8854 158.88C48.5587 159.02 48.1754 159.09 47.7354 159.09ZM50.6046 156.23C50.6046 155.657 50.7213 155.157 50.9546 154.73C51.1879 154.297 51.5113 153.963 51.9246 153.73C52.3379 153.49 52.8113 153.37 53.3446 153.37C54.0313 153.37 54.5979 153.543 55.0446 153.89C55.4979 154.23 55.8013 154.71 55.9546 155.33H54.4446C54.3646 155.09 54.2279 154.903 54.0346 154.77C53.8479 154.63 53.6146 154.56 53.3346 154.56C52.9346 154.56 52.6179 154.707 52.3846 155C52.1513 155.287 52.0346 155.697 52.0346 156.23C52.0346 156.757 52.1513 157.167 52.3846 157.46C52.6179 157.747 52.9346 157.89 53.3346 157.89C53.9013 157.89 54.2713 157.637 54.4446 157.13H55.9546C55.8013 157.73 55.4979 158.207 55.0446 158.56C54.5913 158.913 54.0246 159.09 53.3446 159.09C52.8113 159.09 52.3379 158.973 51.9246 158.74C51.5113 158.5 51.1879 158.167 50.9546 157.74C50.7213 157.307 50.6046 156.803 50.6046 156.23ZM59.3402 159.09C58.8069 159.09 58.3269 158.973 57.9002 158.74C57.4736 158.5 57.1369 158.163 56.8902 157.73C56.6502 157.297 56.5302 156.797 56.5302 156.23C56.5302 155.663 56.6536 155.163 56.9002 154.73C57.1536 154.297 57.4969 153.963 57.9302 153.73C58.3636 153.49 58.8469 153.37 59.3802 153.37C59.9136 153.37 60.3969 153.49 60.8302 153.73C61.2636 153.963 61.6036 154.297 61.8502 154.73C62.1036 155.163 62.2302 155.663 62.2302 156.23C62.2302 156.797 62.1002 157.297 61.8402 157.73C61.5869 158.163 61.2402 158.5 60.8002 158.74C60.3669 158.973 59.8802 159.09 59.3402 159.09ZM59.3402 157.87C59.5936 157.87 59.8302 157.81 60.0502 157.69C60.2769 157.563 60.4569 157.377 60.5902 157.13C60.7236 156.883 60.7902 156.583 60.7902 156.23C60.7902 155.703 60.6502 155.3 60.3702 155.02C60.0969 154.733 59.7602 154.59 59.3602 154.59C58.9602 154.59 58.6236 154.733 58.3502 155.02C58.0836 155.3 57.9502 155.703 57.9502 156.23C57.9502 156.757 58.0802 157.163 58.3402 157.45C58.6069 157.73 58.9402 157.87 59.3402 157.87ZM68.3872 153.46V159H66.9772V158.3C66.7972 158.54 66.5605 158.73 66.2672 158.87C65.9805 159.003 65.6672 159.07 65.3272 159.07C64.8939 159.07 64.5105 158.98 64.1772 158.8C63.8439 158.613 63.5805 158.343 63.3872 157.99C63.2005 157.63 63.1072 157.203 63.1072 156.71V153.46H64.5072V156.51C64.5072 156.95 64.6172 157.29 64.8372 157.53C65.0572 157.763 65.3572 157.88 65.7372 157.88C66.1239 157.88 66.4272 157.763 66.6472 157.53C66.8672 157.29 66.9772 156.95 66.9772 156.51V153.46H68.3872ZM72.7385 153.38C73.3985 153.38 73.9318 153.59 74.3385 154.01C74.7452 154.423 74.9485 155.003 74.9485 155.75V159H73.5485V155.94C73.5485 155.5 73.4385 155.163 73.2185 154.93C72.9985 154.69 72.6985 154.57 72.3185 154.57C71.9318 154.57 71.6252 154.69 71.3985 154.93C71.1785 155.163 71.0685 155.5 71.0685 155.94V159H69.6685V153.46H71.0685V154.15C71.2552 153.91 71.4918 153.723 71.7785 153.59C72.0718 153.45 72.3918 153.38 72.7385 153.38ZM77.8098 154.61V157.29C77.8098 157.477 77.8532 157.613 77.9398 157.7C78.0332 157.78 78.1865 157.82 78.3998 157.82H79.0498V159H78.1698C76.9898 159 76.3998 158.427 76.3998 157.28V154.61H75.7398V153.46H76.3998V152.09H77.8098V153.46H79.0498V154.61H77.8098ZM13.4 166.8C13.1533 166.8 12.9467 166.723 12.78 166.57C12.62 166.41 12.54 166.213 12.54 165.98C12.54 165.747 12.62 165.553 12.78 165.4C12.9467 165.24 13.1533 165.16 13.4 165.16C13.6467 165.16 13.85 165.24 14.01 165.4C14.1767 165.553 14.26 165.747 14.26 165.98C14.26 166.213 14.1767 166.41 14.01 166.57C13.85 166.723 13.6467 166.8 13.4 166.8ZM14.09 167.46V173H12.69V167.46H14.09ZM18.4432 167.38C19.1032 167.38 19.6365 167.59 20.0432 168.01C20.4499 168.423 20.6532 169.003 20.6532 169.75V173H19.2532V169.94C19.2532 169.5 19.1432 169.163 18.9232 168.93C18.7032 168.69 18.4032 168.57 18.0232 168.57C17.6365 168.57 17.3299 168.69 17.1032 168.93C16.8832 169.163 16.7732 169.5 16.7732 169.94V173H15.3732V167.46H16.7732V168.15C16.9599 167.91 17.1965 167.723 17.4832 167.59C17.7765 167.45 18.0965 167.38 18.4432 167.38ZM23.8073 170.21C23.8073 169.65 23.9173 169.153 24.1373 168.72C24.364 168.287 24.6673 167.953 25.0473 167.72C25.434 167.487 25.864 167.37 26.3373 167.37C26.7507 167.37 27.1107 167.453 27.4173 167.62C27.7307 167.787 27.9807 167.997 28.1673 168.25V167.46H29.5773V173H28.1673V172.19C27.9873 172.45 27.7373 172.667 27.4173 172.84C27.104 173.007 26.7407 173.09 26.3273 173.09C25.8607 173.09 25.434 172.97 25.0473 172.73C24.6673 172.49 24.364 172.153 24.1373 171.72C23.9173 171.28 23.8073 170.777 23.8073 170.21ZM28.1673 170.23C28.1673 169.89 28.1007 169.6 27.9673 169.36C27.834 169.113 27.654 168.927 27.4273 168.8C27.2007 168.667 26.9573 168.6 26.6973 168.6C26.4373 168.6 26.1973 168.663 25.9773 168.79C25.7573 168.917 25.5773 169.103 25.4373 169.35C25.304 169.59 25.2373 169.877 25.2373 170.21C25.2373 170.543 25.304 170.837 25.4373 171.09C25.5773 171.337 25.7573 171.527 25.9773 171.66C26.204 171.793 26.444 171.86 26.6973 171.86C26.9573 171.86 27.2007 171.797 27.4273 171.67C27.654 171.537 27.834 171.35 27.9673 171.11C28.1007 170.863 28.1673 170.57 28.1673 170.23ZM32.2447 165.6V173H30.8447V165.6H32.2447ZM34.9279 165.6V173H33.5279V165.6H34.9279ZM38.1339 170.23C38.1339 169.657 38.2506 169.157 38.4839 168.73C38.7172 168.297 39.0406 167.963 39.4539 167.73C39.8672 167.49 40.3406 167.37 40.8739 167.37C41.5606 167.37 42.1272 167.543 42.5739 167.89C43.0272 168.23 43.3306 168.71 43.4839 169.33H41.9739C41.8939 169.09 41.7572 168.903 41.5639 168.77C41.3772 168.63 41.1439 168.56 40.8639 168.56C40.4639 168.56 40.1472 168.707 39.9139 169C39.6806 169.287 39.5639 169.697 39.5639 170.23C39.5639 170.757 39.6806 171.167 39.9139 171.46C40.1472 171.747 40.4639 171.89 40.8639 171.89C41.4306 171.89 41.8006 171.637 41.9739 171.13H43.4839C43.3306 171.73 43.0272 172.207 42.5739 172.56C42.1206 172.913 41.5539 173.09 40.8739 173.09C40.3406 173.09 39.8672 172.973 39.4539 172.74C39.0406 172.5 38.7172 172.167 38.4839 171.74C38.2506 171.307 38.1339 170.803 38.1339 170.23ZM46.8695 173.09C46.3362 173.09 45.8562 172.973 45.4295 172.74C45.0029 172.5 44.6662 172.163 44.4195 171.73C44.1795 171.297 44.0595 170.797 44.0595 170.23C44.0595 169.663 44.1829 169.163 44.4295 168.73C44.6829 168.297 45.0262 167.963 45.4595 167.73C45.8929 167.49 46.3762 167.37 46.9095 167.37C47.4429 167.37 47.9262 167.49 48.3595 167.73C48.7929 167.963 49.1329 168.297 49.3795 168.73C49.6329 169.163 49.7595 169.663 49.7595 170.23C49.7595 170.797 49.6295 171.297 49.3695 171.73C49.1162 172.163 48.7695 172.5 48.3295 172.74C47.8962 172.973 47.4095 173.09 46.8695 173.09ZM46.8695 171.87C47.1229 171.87 47.3595 171.81 47.5795 171.69C47.8062 171.563 47.9862 171.377 48.1195 171.13C48.2529 170.883 48.3195 170.583 48.3195 170.23C48.3195 169.703 48.1795 169.3 47.8995 169.02C47.6262 168.733 47.2895 168.59 46.8895 168.59C46.4895 168.59 46.1529 168.733 45.8795 169.02C45.6129 169.3 45.4795 169.703 45.4795 170.23C45.4795 170.757 45.6095 171.163 45.8695 171.45C46.1362 171.73 46.4695 171.87 46.8695 171.87ZM55.9165 167.46V173H54.5065V172.3C54.3265 172.54 54.0898 172.73 53.7965 172.87C53.5098 173.003 53.1965 173.07 52.8565 173.07C52.4231 173.07 52.0398 172.98 51.7065 172.8C51.3731 172.613 51.1098 172.343 50.9165 171.99C50.7298 171.63 50.6365 171.203 50.6365 170.71V167.46H52.0365V170.51C52.0365 170.95 52.1465 171.29 52.3665 171.53C52.5865 171.763 52.8865 171.88 53.2665 171.88C53.6531 171.88 53.9565 171.763 54.1765 171.53C54.3965 171.29 54.5065 170.95 54.5065 170.51V167.46H55.9165ZM58.5978 168.32C58.7778 168.027 59.0111 167.797 59.2978 167.63C59.5911 167.463 59.9245 167.38 60.2978 167.38V168.85H59.9278C59.4878 168.85 59.1545 168.953 58.9278 169.16C58.7078 169.367 58.5978 169.727 58.5978 170.24V173H57.1978V167.46H58.5978V168.32ZM63.2608 173.09C62.8074 173.09 62.4008 173.01 62.0408 172.85C61.6808 172.683 61.3941 172.46 61.1808 172.18C60.9741 171.9 60.8608 171.59 60.8408 171.25H62.2508C62.2774 171.463 62.3808 171.64 62.5608 171.78C62.7474 171.92 62.9774 171.99 63.2508 171.99C63.5174 171.99 63.7241 171.937 63.8708 171.83C64.0241 171.723 64.1008 171.587 64.1008 171.42C64.1008 171.24 64.0074 171.107 63.8208 171.02C63.6408 170.927 63.3508 170.827 62.9508 170.72C62.5374 170.62 62.1974 170.517 61.9308 170.41C61.6708 170.303 61.4441 170.14 61.2508 169.92C61.0641 169.7 60.9708 169.403 60.9708 169.03C60.9708 168.723 61.0574 168.443 61.2308 168.19C61.4108 167.937 61.6641 167.737 61.9908 167.59C62.3241 167.443 62.7141 167.37 63.1608 167.37C63.8208 167.37 64.3474 167.537 64.7408 167.87C65.1341 168.197 65.3508 168.64 65.3908 169.2H64.0508C64.0308 168.98 63.9374 168.807 63.7708 168.68C63.6108 168.547 63.3941 168.48 63.1208 168.48C62.8674 168.48 62.6708 168.527 62.5308 168.62C62.3974 168.713 62.3308 168.843 62.3308 169.01C62.3308 169.197 62.4241 169.34 62.6108 169.44C62.7974 169.533 63.0874 169.63 63.4808 169.73C63.8808 169.83 64.2108 169.933 64.4708 170.04C64.7308 170.147 64.9541 170.313 65.1408 170.54C65.3341 170.76 65.4341 171.053 65.4408 171.42C65.4408 171.74 65.3508 172.027 65.1708 172.28C64.9974 172.533 64.7441 172.733 64.4108 172.88C64.0841 173.02 63.7008 173.09 63.2608 173.09ZM71.64 170.11C71.64 170.31 71.6267 170.49 71.6 170.65H67.55C67.5833 171.05 67.7233 171.363 67.97 171.59C68.2167 171.817 68.52 171.93 68.88 171.93C69.4 171.93 69.77 171.707 69.99 171.26H71.5C71.34 171.793 71.0333 172.233 70.58 172.58C70.1267 172.92 69.57 173.09 68.91 173.09C68.3767 173.09 67.8967 172.973 67.47 172.74C67.05 172.5 66.72 172.163 66.48 171.73C66.2467 171.297 66.13 170.797 66.13 170.23C66.13 169.657 66.2467 169.153 66.48 168.72C66.7133 168.287 67.04 167.953 67.46 167.72C67.88 167.487 68.3633 167.37 68.91 167.37C69.4367 167.37 69.9067 167.483 70.32 167.71C70.74 167.937 71.0633 168.26 71.29 168.68C71.5233 169.093 71.64 169.57 71.64 170.11ZM70.19 169.71C70.1833 169.35 70.0533 169.063 69.8 168.85C69.5467 168.63 69.2367 168.52 68.87 168.52C68.5233 168.52 68.23 168.627 67.99 168.84C67.7567 169.047 67.6133 169.337 67.56 169.71H70.19Z" fill="#0D0D0D"/>
<line y1="136.5" x2="152" y2="136.5" stroke="#F0F0F0"/>
<g clip-path="url(#clip0_103_410)">
<path d="M62.0188 41.2861H61.5628V29.0702C61.5628 28.1417 61.3758 27.2224 61.0125 26.3646C60.6491 25.5068 60.1165 24.7273 59.4452 24.0708C58.7738 23.4143 57.9767 22.8935 57.0995 22.5382C56.2223 22.1829 55.2822 22 54.3327 22H27.8663C25.9488 22 24.1098 22.7449 22.7539 24.0708C21.398 25.3967 20.6362 27.1951 20.6362 29.0702V96.0873C20.6362 97.0158 20.8232 97.9352 21.1866 98.793C21.5499 99.6508 22.0825 100.43 22.7539 101.087C23.4252 101.743 24.2223 102.264 25.0995 102.619C25.9767 102.975 26.9168 103.158 27.8663 103.158H54.3327C56.2502 103.158 58.0892 102.413 59.4451 101.087C60.8011 99.7608 61.5628 97.9625 61.5628 96.0873V49.9815H62.0188V41.2861Z" fill="#292E37"/>
<path d="M54.6243 23.8395H51.1696C51.3284 24.2204 51.3891 24.6337 51.3462 25.0429C51.3032 25.4521 51.1581 25.8447 50.9234 26.1861C50.6888 26.5276 50.3719 26.8073 50.0006 27.0008C49.6294 27.1942 49.2152 27.2954 48.7945 27.2954H33.6323C33.2116 27.2954 32.7974 27.1942 32.4262 27.0008C32.0549 26.8073 31.738 26.5276 31.5034 26.1861C31.2687 25.8447 31.1236 25.4521 31.0806 25.0429C31.0377 24.6337 31.0984 24.2204 31.2572 23.8395H28.0305C27.3215 23.8395 26.6193 23.9761 25.9643 24.2415C25.3092 24.5068 24.714 24.8957 24.2126 25.386C23.7112 25.8763 23.3135 26.4583 23.0421 27.0989C22.7708 27.7395 22.6311 28.4261 22.6311 29.1195V96.0383C22.6311 96.7317 22.7708 97.4182 23.0421 98.0588C23.3135 98.6994 23.7112 99.2815 24.2126 99.7718C24.7139 100.262 25.3092 100.651 25.9643 100.916C26.6193 101.182 27.3214 101.318 28.0305 101.318H54.6243C55.3334 101.318 56.0355 101.182 56.6906 100.916C57.3456 100.651 57.9409 100.262 58.4422 99.7718C58.9436 99.2815 59.3413 98.6994 59.6127 98.0588C59.884 97.4182 60.0237 96.7317 60.0237 96.0383V29.1195C60.0237 28.4261 59.884 27.7395 59.6127 27.0989C59.3413 26.4583 58.9436 25.8763 58.4422 25.386C57.9409 24.8957 57.3456 24.5068 56.6906 24.2415C56.0355 23.9761 55.3334 23.8395 54.6243 23.8395Z" fill="white"/>
<path d="M70.5017 103.169H12.1531C12.1125 103.169 12.0736 103.153 12.0448 103.125C12.0161 103.097 12 103.059 12 103.019C12 102.98 12.0161 102.941 12.0448 102.913C12.0736 102.885 12.1125 102.87 12.1531 102.87H70.5017C70.5423 102.87 70.5813 102.885 70.61 102.913C70.6387 102.941 70.6549 102.98 70.6549 103.019C70.6549 103.059 70.6387 103.097 70.61 103.125C70.5813 103.153 70.5423 103.169 70.5017 103.169Z" fill="#CBCBCB"/>
<path d="M41.3275 73.7684C48.47 73.7684 54.2601 68.1064 54.2601 61.1219C54.2601 54.1374 48.47 48.4753 41.3275 48.4753C34.185 48.4753 28.3949 54.1374 28.3949 61.1219C28.3949 68.1064 34.185 73.7684 41.3275 73.7684Z" fill="#00D9FF"/>
<path d="M40.0459 65.9463C39.7549 65.9468 39.4717 65.8547 39.2389 65.684L39.2245 65.6735L36.1852 63.3999C36.0444 63.2944 35.9263 63.1628 35.8375 63.0126C35.7488 62.8624 35.6911 62.6966 35.6679 62.5247C35.6447 62.3527 35.6563 62.178 35.7022 62.0104C35.748 61.8429 35.8271 61.6858 35.935 61.5481C36.043 61.4105 36.1775 61.2949 36.3311 61.2082C36.4847 61.1214 36.6542 61.065 36.8301 61.0423C37.0059 61.0196 37.1846 61.031 37.356 61.0758C37.5273 61.1206 37.6879 61.198 37.8287 61.3035L39.7973 62.7798L44.4493 56.845C44.5572 56.7074 44.6917 56.5919 44.8452 56.5052C44.9987 56.4184 45.1682 56.3621 45.344 56.3394C45.5198 56.3167 45.6984 56.328 45.8697 56.3728C46.0409 56.4176 46.2015 56.495 46.3422 56.6005L46.3426 56.6008L46.3137 56.64L46.3434 56.6008C46.6273 56.8141 46.813 57.1289 46.8598 57.476C46.9066 57.8231 46.8107 58.1741 46.5931 58.4522L41.1214 65.4297C40.9948 65.5904 40.832 65.7205 40.6457 65.8098C40.4594 65.8992 40.2546 65.9453 40.0471 65.9447L40.0459 65.9463Z" fill="white"/>
<path d="M118.321 104.412C118.478 104.163 118.663 103.932 118.873 103.724C118.959 103.636 119.051 103.554 119.145 103.473C119.716 102.975 120.414 102.636 121.164 102.489C121.915 102.342 122.692 102.393 123.416 102.637C124.139 102.881 124.783 103.309 125.282 103.878C125.78 104.446 126.115 105.134 126.251 105.87C126.883 103.586 125.238 101.336 123.585 99.6081C121.931 97.8805 120.041 95.9853 120.051 93.618C120.055 92.3008 120.714 91.1257 121.709 90.2544C121.74 90.228 121.77 90.2017 121.802 90.1762C123.004 89.1683 124.551 88.6411 126.134 88.6999C129.074 88.8539 131.641 90.7863 133.424 93.0785C136.294 96.7666 137.552 101.944 135.543 106.142C133.775 109.835 130.007 112.027 126.16 113.79C125.623 114.036 125.087 114.275 124.552 114.506C124.548 114.507 124.545 114.51 124.541 114.511C124.515 114.522 124.489 114.533 124.465 114.544C124.355 114.592 124.244 114.639 124.135 114.687L124.186 114.719L124.344 114.819C124.289 114.787 124.235 114.755 124.18 114.723C124.164 114.713 124.146 114.704 124.13 114.694C122.241 113.585 120.325 112.413 119.02 110.682C117.667 108.885 117.123 106.312 118.321 104.412Z" fill="#F3F8FF"/>
<path d="M130.925 100.239C131.343 101.17 131.621 102.155 131.748 103.164C131.849 104.064 131.811 104.973 131.636 105.862C131.261 107.688 130.443 109.399 129.251 110.852C128.351 111.955 127.313 112.942 126.16 113.79C125.623 114.036 125.087 114.275 124.552 114.507C124.548 114.507 124.545 114.51 124.541 114.511C124.515 114.522 124.489 114.533 124.465 114.544C124.355 114.592 124.244 114.64 124.135 114.687L124.186 114.719L124.344 114.819C124.289 114.787 124.235 114.755 124.18 114.723C124.164 114.713 124.146 114.704 124.13 114.694C124.546 113.272 124.607 111.773 124.308 110.323C124.01 108.873 123.36 107.514 122.414 106.36C121.462 105.221 120.249 104.318 118.873 103.724C118.959 103.636 119.051 103.554 119.145 103.473C119.675 103.711 120.182 103.995 120.661 104.32C122.375 105.478 123.661 107.145 124.33 109.074C124.928 110.823 125.003 112.703 124.546 114.493C124.64 114.432 124.736 114.37 124.828 114.308C126.588 113.148 128.21 111.754 129.432 110.045C130.486 108.6 131.16 106.924 131.395 105.165C131.63 103.243 131.138 101.353 130.26 99.6379C129.291 97.8032 128.07 96.1067 126.631 94.5955C125.186 93.0426 123.552 91.6685 121.765 90.5038C121.725 90.4772 121.696 90.4366 121.686 90.3902C121.676 90.3438 121.684 90.2953 121.709 90.2546C121.728 90.2177 121.761 90.1896 121.802 90.1764C121.822 90.1713 121.843 90.1708 121.864 90.1749C121.885 90.179 121.904 90.1876 121.921 90.2001C122.142 90.344 122.36 90.4892 122.576 90.6387C124.376 91.8846 126.01 93.3442 127.441 94.9841C128.824 96.5648 130.083 98.321 130.925 100.239Z" fill="white"/>
<path d="M92.4079 27.872C93.9248 27.872 95.1544 26.6696 95.1544 25.1863C95.1544 23.703 93.9248 22.5005 92.4079 22.5005C90.891 22.5005 89.6614 23.703 89.6614 25.1863C89.6614 26.6696 90.891 27.872 92.4079 27.872Z" fill="#F3F8FF"/>
<path d="M126.56 63.8142C127.484 63.8142 128.234 63.0811 128.234 62.1767C128.234 61.2724 127.484 60.5392 126.56 60.5392C125.635 60.5392 124.885 61.2724 124.885 62.1767C124.885 63.0811 125.635 63.8142 126.56 63.8142Z" fill="#F3F8FF"/>
<path d="M77.5528 68.3069C78.4776 68.3069 79.2273 67.5738 79.2273 66.6694C79.2273 65.7651 78.4776 65.032 77.5528 65.032C76.628 65.032 75.8783 65.7651 75.8783 66.6694C75.8783 67.5738 76.628 68.3069 77.5528 68.3069Z" fill="#F3F8FF"/>
<path d="M78.4983 115H136.847C136.888 115 136.926 114.984 136.955 114.956C136.984 114.928 137 114.89 137 114.85C137 114.81 136.984 114.772 136.955 114.744C136.926 114.716 136.888 114.7 136.847 114.7H78.4983C78.4577 114.7 78.4188 114.716 78.39 114.744C78.3613 114.772 78.3452 114.81 78.3452 114.85C78.3452 114.89 78.3613 114.928 78.39 114.956C78.4188 114.984 78.4577 115 78.4983 115Z" fill="#CBCBCB"/>
<path d="M130.408 36.4719C130.484 35.94 130.359 35.3991 130.055 34.9516C129.751 34.5042 129.29 34.1814 128.758 34.0443C128.227 33.9072 127.663 33.9654 127.173 34.2078C126.683 34.4503 126.301 34.8602 126.099 35.3598L121.364 40.6679L122.753 44.4623L127.515 38.26C127.826 38.3573 128.154 38.3868 128.478 38.3465C128.802 38.3061 129.112 38.1969 129.388 38.0264C129.664 37.8559 129.898 37.6284 130.074 37.3598C130.251 37.0912 130.364 36.7882 130.408 36.4719Z" fill="#FFB7B7"/>
<path d="M110.781 57.1257L126.498 40.7228L124.378 37.4269L104.665 53.7302L110.781 57.1257Z" fill="#FE5701"/>
<path d="M107.273 47.1595C110.318 47.1595 112.786 44.7457 112.786 41.7682C112.786 38.7907 110.318 36.3769 107.273 36.3769C104.228 36.3769 101.76 38.7907 101.76 41.7682C101.76 44.7457 104.228 47.1595 107.273 47.1595Z" fill="#292E37"/>
<path d="M107.716 38.7225C108.903 37.5461 110.338 36.6383 111.922 36.0629C112.939 35.6946 114.046 35.4671 115.109 35.6762C116.171 35.8854 117.177 36.6044 117.473 37.6243C117.716 38.4582 117.465 39.356 117.089 40.141C116.713 40.926 116.21 41.654 115.906 42.4682C115.595 43.2991 115.502 44.1927 115.634 45.0678C115.767 45.9429 116.12 46.7718 116.663 47.4794C117.206 48.1869 117.921 48.7507 118.743 49.1195C119.566 49.4882 120.469 49.6504 121.372 49.5911C120.327 49.728 119.365 50.208 118.344 50.4634C117.323 50.7189 116.118 50.7016 115.36 49.9864C114.557 49.2298 114.541 47.9995 114.58 46.91C114.637 45.2904 114.695 43.6707 114.753 42.0511C114.782 41.2251 114.807 40.3727 114.503 39.6017C114.198 38.8308 113.474 38.1557 112.629 38.1627C111.988 38.168 111.421 38.5475 110.908 38.9217C110.394 39.2959 109.85 39.6952 109.212 39.7508C108.574 39.8065 107.846 39.3447 107.894 38.7201L107.716 38.7225Z" fill="#292E37"/>
<path d="M86.3335 77.9682C85.8043 78.112 85.2394 78.0609 84.7461 77.8247C84.2527 77.5884 83.8651 77.1834 83.6567 76.6864C83.4483 76.1894 83.4336 75.6349 83.6154 75.1279C83.7972 74.621 84.1628 74.1969 84.643 73.936L89.4059 68.652L93.4344 69.5031L87.7684 74.93C87.9077 75.2185 87.9805 75.5334 87.9819 75.8525C87.9833 76.1715 87.9131 76.487 87.7763 76.7767C87.6395 77.0663 87.4394 77.3231 87.1902 77.529C86.9409 77.7349 86.6485 77.8848 86.3335 77.9682H86.3335Z" fill="#FFB7B7"/>
<path d="M102.004 59.0509L90.1326 73.6224L86.514 71.9979L100.467 50.7554L102.004 59.0509Z" fill="#FE5701"/>
<path d="M92.5314 103.051L89.7022 103.008L90.0425 112.437H92.5309L92.5314 103.051Z" fill="#FFB7B7"/>
<path d="M93.1657 111.643L88.2649 111.643H88.2647C87.4364 111.643 86.642 111.964 86.0563 112.537C85.4706 113.11 85.1415 113.887 85.1415 114.697V114.796L93.1656 114.796L93.1657 111.643Z" fill="#292E37"/>
<path d="M111.264 100.55L108.173 102.49L114.355 109.763L116.449 108.449L111.264 100.55Z" fill="#FFB7B7"/>
<path d="M116.545 107.445L112.421 110.034L112.42 110.034C111.723 110.471 111.233 111.162 111.056 111.953C110.88 112.745 111.032 113.572 111.48 114.254L111.534 114.337L118.287 110.098L116.545 107.445Z" fill="#292E37"/>
<path d="M112.365 71.7557C112.365 71.7557 105.498 49.4526 103.291 49.1512C101.084 48.8498 97.5284 54.8739 97.5284 54.8739C92.9182 60.6259 88.1644 79.2577 88.1644 79.2577C88.1644 79.2577 96.0892 79.7426 101.882 82.7566C107.675 85.7705 114.512 82.604 114.512 82.604L112.365 71.7557Z" fill="#FE5701"/>
<path opacity="0.1" d="M112.365 71.7557C112.365 71.7557 105.498 49.4526 103.291 49.1512C101.084 48.8498 98.4315 54.9351 98.4315 54.9351C96.1343 64.2201 88.1644 79.2577 88.1644 79.2577C88.1644 79.2577 96.0892 79.7427 101.882 82.7566C107.675 85.7705 114.512 82.604 114.512 82.604L112.365 71.7557Z" fill="black"/>
<path d="M106.731 65.0828V76.29L108.08 92.5244L114.818 104.805L111.602 107.051L102.413 95.3698L98.779 83.7712L93.0714 109.447L88.7833 109.148L91.7614 73.5484L97.4126 63.528L106.731 65.0828Z" fill="#292E37"/>
<path d="M99.8073 54.2429C97.6633 56.3395 99.6542 58.5859 99.6542 58.5859L97.2038 63.9772L106.852 66.5231L110.224 51.7901L107.927 49.394C103.332 49.2442 103.33 49.1511 103.33 49.1511C102.525 49.9215 99.8073 54.2429 99.8073 54.2429Z" fill="#F5F5F5"/>
<path d="M110.612 50.2638C110.174 49.9475 109.676 49.7193 109.147 49.5926C108.618 49.4658 108.069 49.4429 107.531 49.5253C106.993 49.6077 106.476 49.7936 106.012 50.0724C105.548 50.3511 105.145 50.7172 104.827 51.1493C102.401 54.4518 100.159 59.7845 103.249 66.4354C108.211 77.1146 112.528 82.5815 114.284 82.581C114.36 82.5816 114.437 82.5699 114.509 82.5463C115.59 82.1878 117.152 80.4 117.435 78.8244C117.536 78.2605 117.512 77.475 116.822 76.9356C114.841 75.3862 111.285 70.5617 110.176 64.2116C109.562 60.7028 110.751 57.5066 111.857 55.4432C112.324 54.5895 112.46 53.5998 112.242 52.6555C112.023 51.7113 111.463 50.8758 110.666 50.3022L110.612 50.2638Z" fill="#FE5701"/>
<path d="M107.557 46.6298C109.523 45.5784 110.246 43.1671 109.171 41.2439C108.096 39.3207 105.63 38.6139 103.663 39.6652C101.697 40.7165 100.974 43.1279 102.049 45.0511C103.124 46.9743 105.59 47.6811 107.557 46.6298Z" fill="#FFB7B7"/>
<path d="M99.9026 42.8474H105.763L105.823 42.0247L106.123 42.8474H107.026L107.145 41.2168L107.74 42.8474H109.486V42.7667C109.485 41.6314 109.023 40.543 108.202 39.7403C107.381 38.9376 106.268 38.486 105.108 38.4847H104.281C103.12 38.486 102.007 38.9376 101.187 39.7403C100.366 40.543 99.9039 41.6314 99.9026 42.7667V42.8474Z" fill="#292E37"/>
<path d="M108.601 45.8049L111.102 45.0113V39.0726H106.378L106.495 39.1868C108.122 40.7758 109.932 46.4137 108.601 45.8049Z" fill="#292E37"/>
</g>
<defs>
<clipPath id="clip0_103_410">
<rect width="125" height="93" fill="white" transform="translate(12 22)"/>
</clipPath>
</defs>
</svg>
