<svg xmlns="http://www.w3.org/2000/svg" width="137" height="61" fill="none" xmlns:v="https://vecta.io/nano"><rect width="137" height="61" rx="15.609" fill="#fff"/><rect x="12.562" y="10.433" width="38.732" height="39.441" rx="13.69" stroke="#f2f2f2"/><g clip-path="url(#A)" fill="#ff5600"><path d="M40.661 26.106c-.211-.13-.474-.142-.695-.031l-4.681 2.341v-1.701c0-1.184-.959-2.143-2.143-2.143h-10c-1.184 0-2.143.959-2.143 2.143v8.571c0 1.184.959 2.143 2.143 2.143h10c1.184 0 2.143-.959 2.143-2.143v-1.701l4.681 2.344c.353.176.782.033.958-.32a.71.71 0 0 0 .075-.323v-8.571c0-.248-.128-.478-.339-.608zm-6.804 9.179c0 .395-.32.714-.714.714h-10c-.395 0-.714-.32-.714-.714v-8.571c0-.395.32-.714.714-.714h10c.395 0 .714.32.714.714v8.571zm5.714-1.156l-4.286-2.143v-1.974l4.286-2.143v6.26zm-11.428-5.986A2.86 2.86 0 0 0 25.286 31a2.86 2.86 0 0 0 2.857 2.857A2.86 2.86 0 0 0 31 31a2.86 2.86 0 0 0-2.857-2.857zm0 4.286A1.43 1.43 0 0 1 26.714 31a1.43 1.43 0 0 1 1.429-1.428A1.43 1.43 0 0 1 29.571 31a1.43 1.43 0 0 1-1.428 1.429z"/></g><path d="M67.654 32.419h-3.492l-.6 1.704h-1.428l2.988-8.352h1.584l2.988 8.352h-1.44l-.6-1.704zm-.384-1.116l-1.356-3.876-1.368 3.876h2.724zm5.091-6.06v8.88h-1.368v-8.88h1.368zm3.164 0v8.88h-1.368v-8.88h1.368zm4.457 4.692c0-.816.188-1.548.564-2.196a4.07 4.07 0 0 1 1.548-1.512c.656-.368 1.372-.552 2.148-.552.888 0 1.676.22 2.364.66.696.432 1.2 1.048 1.512 1.848h-1.644c-.216-.44-.516-.768-.9-.984s-.828-.324-1.332-.324c-.552 0-1.044.124-1.476.372s-.772.604-1.02 1.068c-.24.464-.36 1.004-.36 1.62s.12 1.156.36 1.62a2.71 2.71 0 0 0 1.02 1.08c.432.248.924.372 1.476.372.504 0 .948-.108 1.332-.324s.684-.544.9-.984h1.644c-.312.8-.816 1.416-1.512 1.848-.688.432-1.476.648-2.364.648-.784 0-1.5-.18-2.148-.54a4.16 4.16 0 0 1-1.548-1.524c-.376-.648-.564-1.38-.564-2.196zm12.605 4.296c-.624 0-1.188-.14-1.692-.42-.504-.288-.9-.688-1.188-1.2-.288-.52-.432-1.12-.432-1.8 0-.672.148-1.268.444-1.788s.7-.92 1.212-1.2 1.084-.42 1.716-.42 1.204.14 1.716.42.916.68 1.212 1.2.444 1.116.444 1.788-.152 1.268-.456 1.788a3.19 3.19 0 0 1-1.248 1.212c-.52.28-1.096.42-1.728.42zm0-1.188a2 2 0 0 0 .984-.252c.312-.168.564-.42.756-.756s.288-.744.288-1.224-.092-.884-.276-1.212c-.184-.336-.428-.588-.732-.756a2 2 0 0 0-.984-.252 2 2 0 0 0-.984.252c-.296.168-.532.42-.708.756-.176.328-.264.732-.264 1.212 0 .712.18 1.264.54 1.656a1.83 1.83 0 0 0 1.38.576zm10.772-5.532v6.612h-1.368v-.78c-.216.272-.5.488-.852.648a2.7 2.7 0 0 1-1.104.228 3 3 0 0 1-1.404-.324c-.408-.216-.732-.536-.972-.96-.232-.424-.348-.936-.348-1.536v-3.888h1.356v3.684c0 .592.148 1.048.444 1.368.296.312.7.468 1.212.468s.916-.156 1.212-.468c.304-.32.456-.776.456-1.368v-3.684h1.368zm3.173.96c.2-.336.464-.596.792-.78.336-.192.732-.288 1.188-.288v1.416h-.348c-.536 0-.944.136-1.224.408-.272.272-.408.744-.408 1.416v3.48h-1.368v-6.612h1.368v.96zm5.638 5.76c-.52 0-.988-.092-1.404-.276-.408-.192-.732-.448-.972-.768-.24-.328-.368-.692-.384-1.092h1.416a.99.99 0 0 0 .396.708c.248.184.556.276.924.276.384 0 .68-.072.888-.216.216-.152.324-.344.324-.576 0-.248-.12-.432-.36-.552-.232-.12-.604-.252-1.116-.396l-1.212-.396c-.312-.128-.584-.324-.816-.588-.224-.264-.336-.612-.336-1.044a1.6 1.6 0 0 1 .312-.96c.208-.296.504-.528.888-.696.392-.168.84-.252 1.344-.252.752 0 1.356.192 1.812.576.464.376.712.892.744 1.548h-1.368c-.024-.296-.144-.532-.36-.708s-.508-.264-.876-.264c-.36 0-.636.068-.828.204a.63.63 0 0 0-.288.54c0 .176.064.324.192.444s.284.216.468.288l.816.252c.48.128.872.26 1.176.396a2.13 2.13 0 0 1 .804.576c.224.256.34.596.348 1.02a1.71 1.71 0 0 1-.312 1.008c-.208.296-.504.528-.888.696-.376.168-.82.252-1.332.252zm10.07-3.576c0 .248-.016.472-.048.672h-5.052c.04.528.236.952.588 1.272s.784.48 1.296.48c.736 0 1.256-.308 1.56-.924h1.476c-.2.608-.564 1.108-1.092 1.5-.52.384-1.168.576-1.944.576-.632 0-1.2-.14-1.704-.42a3.14 3.14 0 0 1-1.176-1.2c-.28-.52-.42-1.12-.42-1.8s.136-1.276.408-1.788c.28-.52.668-.92 1.164-1.2.504-.28 1.08-.42 1.728-.42.624 0 1.18.136 1.668.408s.868.656 1.14 1.152c.272.488.408 1.052.408 1.692zm-1.428-.432c-.008-.504-.188-.908-.54-1.212s-.788-.456-1.308-.456c-.472 0-.876.152-1.212.456-.336.296-.536.7-.6 1.212h3.66zm5.174 4.008c-.52 0-.988-.092-1.404-.276-.408-.192-.732-.448-.972-.768-.24-.328-.368-.692-.384-1.092h1.416a.99.99 0 0 0 .396.708c.248.184.556.276.924.276.384 0 .68-.072.888-.216.216-.152.324-.344.324-.576 0-.248-.12-.432-.36-.552-.232-.12-.604-.252-1.116-.396l-1.212-.396c-.312-.128-.584-.324-.816-.588-.224-.264-.336-.612-.336-1.044a1.6 1.6 0 0 1 .312-.96c.208-.296.504-.528.888-.696.392-.168.84-.252 1.344-.252.752 0 1.356.192 1.812.576.464.376.712.892.744 1.548h-1.368c-.024-.296-.144-.532-.36-.708s-.508-.264-.876-.264c-.36 0-.636.068-.828.204a.63.63 0 0 0-.288.54c0 .176.064.324.192.444s.284.216.468.288l.816.252c.48.128.872.26 1.176.396a2.13 2.13 0 0 1 .804.576c.224.256.34.596.348 1.02a1.71 1.71 0 0 1-.312 1.008c-.208.296-.504.528-.888.696-.376.168-.82.252-1.332.252z" fill="#000"/><defs><clipPath id="A"><path fill="#fff" transform="translate(21 21)" d="M0 0h20v20H0z"/></clipPath></defs></svg>