<svg width="213" height="87" viewBox="0 0 213 87" fill="none" xmlns="http://www.w3.org/2000/svg">
<rect x="0.294189" y="0.589844" width="211.767" height="85.7355" rx="4.28678" fill="white"/>
<path d="M11.8684 37.8849H192.77" stroke="#ECECF9" stroke-width="0.857355" stroke-dasharray="2.83 2.83"/>
<path d="M11.8684 60.1762H192.77" stroke="#ECECF9" stroke-width="0.857355" stroke-dasharray="2.83 2.83"/>
<path d="M11.8684 82.4674H192.77" stroke="#ECECF9" stroke-width="0.857355" stroke-dasharray="2.83 2.83"/>
<path d="M10.5824 82.896L29.4442 58.4613C40.5898 58.4613 67.1678 43.8863 78.7421 37.0275C92.8885 47.3157 111.322 51.6025 124.182 53.3172L150.331 46.4584L170.05 70.4643H184.197L198.343 58.4613" stroke="#DFDFDF" stroke-width="0.857355"/>
<circle cx="29.873" cy="58.8899" r="3.42942" fill="#00D9FF"/>
<circle cx="185.054" cy="70.0355" r="3.42942" fill="#00D9FF"/>
<circle cx="197.915" cy="58.8899" r="3.42942" fill="black"/>
<circle cx="169.622" cy="70.8929" r="3.42942" fill="#FFC700"/>
<circle cx="124.182" cy="52.8884" r="3.42942" fill="#FFC700"/>
<circle cx="77.8848" cy="37.456" r="3.42942" fill="#FF5600"/>
<circle cx="149.903" cy="46.8869" r="3.42942" fill="#FF5600"/>
<rect x="11.0111" y="13.4503" width="27.4354" height="4.28678" fill="#ECEFF6"/>
<rect x="175.623" y="13.4503" width="21.4339" height="4.28678" fill="#ECEFF6"/>
</svg>
