<svg xmlns="http://www.w3.org/2000/svg" width="112" height="54" fill="none" xmlns:v="https://vecta.io/nano"><rect x=".294" y=".105" width="111.456" height="53.156" rx="4.287" fill="#fff"/><path d="M47.449 30.97h53.156v3.43H47.449zm0-11.145h30.865v3.429H47.449z" fill="#eceff6"/><circle cx="26.444" cy="27.112" r="14.146" fill="#00d9ff"/><g clip-path="url(#A)" fill="#fff"><path d="M29.809 24.959l-2.97.649 1.452-5.085c.126-.442-.465-.725-.73-.349l-5.792 8.23a.41.41 0 0 0 .433.634l2.646-.651-1.447 5.09c-.125.438.456.718.724.356l6.101-8.23c.225-.304-.048-.726-.417-.645zm-5.004 6.58l1.026-3.607a.41.41 0 0 0-.492-.51l-2.268.558 3.766-5.351-.975 3.414a.41.41 0 0 0 .482.513l2.572-.562-4.111 5.545zm4.739 0l-.984-.016.523-1.028a.41.41 0 1 0-.731-.372l-.82 1.613c-.167.327.052.542.366.596l.982.016-.529 1.058a.41.41 0 1 0 .734.367l.82-1.641a.41.41 0 0 0-.36-.593zm-6.385-11.495a.41.41 0 0 0-.55.183l-.82 1.641a.41.41 0 0 0 .369.593h.974l-.523 1.047a.41.41 0 1 0 .734.367l.82-1.64a.41.41 0 0 0-.367-.593h-.977l.523-1.047a.41.41 0 0 0-.183-.55z"/></g><defs><clipPath id="A"><path fill="#fff" transform="translate(19 20)" d="M0 0h14v14H0z"/></clipPath></defs></svg>