<svg width="139" height="168" viewBox="0 0 139 168" fill="none" xmlns="http://www.w3.org/2000/svg">
<rect y="0.589844" width="138.892" height="167.19" rx="4.28678" fill="white"/>
<path d="M86.492 149.056C85.9693 149.056 85.4893 148.933 85.052 148.688C84.6146 148.443 84.268 148.104 84.012 147.672C83.756 147.235 83.628 146.741 83.628 146.192C83.628 145.648 83.756 145.16 84.012 144.728C84.268 144.291 84.6146 143.949 85.052 143.704C85.4893 143.459 85.9693 143.336 86.492 143.336C87.02 143.336 87.5 143.459 87.932 143.704C88.3693 143.949 88.7133 144.291 88.964 144.728C89.22 145.16 89.348 145.648 89.348 146.192C89.348 146.741 89.22 147.235 88.964 147.672C88.7133 148.104 88.3693 148.443 87.932 148.688C87.4946 148.933 87.0146 149.056 86.492 149.056ZM86.492 148.056C86.828 148.056 87.124 147.981 87.38 147.832C87.636 147.677 87.836 147.459 87.98 147.176C88.124 146.893 88.196 146.565 88.196 146.192C88.196 145.819 88.124 145.493 87.98 145.216C87.836 144.933 87.636 144.717 87.38 144.568C87.124 144.419 86.828 144.344 86.492 144.344C86.156 144.344 85.8573 144.419 85.596 144.568C85.34 144.717 85.14 144.933 84.996 145.216C84.852 145.493 84.78 145.819 84.78 146.192C84.78 146.565 84.852 146.893 84.996 147.176C85.14 147.459 85.34 147.677 85.596 147.832C85.8573 147.981 86.156 148.056 86.492 148.056ZM92.6372 144.504C93.1652 144.504 93.5919 144.672 93.9172 145.008C94.2425 145.339 94.4052 145.803 94.4052 146.4V149H93.2852V146.552C93.2852 146.2 93.1972 145.931 93.0212 145.744C92.8452 145.552 92.6052 145.456 92.3012 145.456C91.9919 145.456 91.7465 145.552 91.5652 145.744C91.3892 145.931 91.3012 146.2 91.3012 146.552V149H90.1812V144.568H91.3012V145.12C91.4505 144.928 91.6399 144.779 91.8692 144.672C92.1039 144.56 92.3599 144.504 92.6372 144.504ZM97.2063 144.496C97.5369 144.496 97.8276 144.563 98.0783 144.696C98.3289 144.824 98.5263 144.992 98.6703 145.2V144.568H99.7983V149.032C99.7983 149.443 99.7156 149.808 99.5503 150.128C99.3849 150.453 99.1369 150.709 98.8063 150.896C98.4756 151.088 98.0756 151.184 97.6063 151.184C96.9769 151.184 96.4596 151.037 96.0543 150.744C95.6543 150.451 95.4276 150.051 95.3743 149.544H96.4863C96.5449 149.747 96.6703 149.907 96.8623 150.024C97.0596 150.147 97.2969 150.208 97.5743 150.208C97.8996 150.208 98.1636 150.109 98.3663 149.912C98.5689 149.72 98.6703 149.427 98.6703 149.032V148.344C98.5263 148.552 98.3263 148.725 98.0703 148.864C97.8196 149.003 97.5316 149.072 97.2063 149.072C96.8329 149.072 96.4916 148.976 96.1823 148.784C95.8729 148.592 95.6276 148.323 95.4463 147.976C95.2703 147.624 95.1823 147.221 95.1823 146.768C95.1823 146.32 95.2703 145.923 95.4463 145.576C95.6276 145.229 95.8703 144.963 96.1743 144.776C96.4836 144.589 96.8276 144.496 97.2063 144.496ZM98.6703 146.784C98.6703 146.512 98.6169 146.28 98.5103 146.088C98.4036 145.891 98.2596 145.741 98.0783 145.64C97.8969 145.533 97.7023 145.48 97.4943 145.48C97.2863 145.48 97.0943 145.531 96.9183 145.632C96.7423 145.733 96.5983 145.883 96.4863 146.08C96.3796 146.272 96.3263 146.501 96.3263 146.768C96.3263 147.035 96.3796 147.269 96.4863 147.472C96.5983 147.669 96.7423 147.821 96.9183 147.928C97.0996 148.035 97.2916 148.088 97.4943 148.088C97.7023 148.088 97.8969 148.037 98.0783 147.936C98.2596 147.829 98.4036 147.68 98.5103 147.488C98.6169 147.291 98.6703 147.056 98.6703 146.784ZM102.86 149.072C102.433 149.072 102.049 148.979 101.708 148.792C101.367 148.6 101.097 148.331 100.9 147.984C100.708 147.637 100.612 147.237 100.612 146.784C100.612 146.331 100.711 145.931 100.908 145.584C101.111 145.237 101.385 144.971 101.732 144.784C102.079 144.592 102.465 144.496 102.892 144.496C103.319 144.496 103.705 144.592 104.052 144.784C104.399 144.971 104.671 145.237 104.868 145.584C105.071 145.931 105.172 146.331 105.172 146.784C105.172 147.237 105.068 147.637 104.86 147.984C104.657 148.331 104.38 148.6 104.028 148.792C103.681 148.979 103.292 149.072 102.86 149.072ZM102.86 148.096C103.063 148.096 103.252 148.048 103.428 147.952C103.609 147.851 103.753 147.701 103.86 147.504C103.967 147.307 104.02 147.067 104.02 146.784C104.02 146.363 103.908 146.04 103.684 145.816C103.465 145.587 103.196 145.472 102.876 145.472C102.556 145.472 102.287 145.587 102.068 145.816C101.855 146.04 101.748 146.363 101.748 146.784C101.748 147.205 101.852 147.531 102.06 147.76C102.273 147.984 102.54 148.096 102.86 148.096ZM106.562 144.04C106.364 144.04 106.199 143.979 106.066 143.856C105.938 143.728 105.874 143.571 105.874 143.384C105.874 143.197 105.938 143.043 106.066 142.92C106.199 142.792 106.364 142.728 106.562 142.728C106.759 142.728 106.922 142.792 107.05 142.92C107.183 143.043 107.25 143.197 107.25 143.384C107.25 143.571 107.183 143.728 107.05 143.856C106.922 143.979 106.759 144.04 106.562 144.04ZM107.114 144.568V149H105.994V144.568H107.114ZM110.676 144.504C111.204 144.504 111.631 144.672 111.956 145.008C112.282 145.339 112.444 145.803 112.444 146.4V149H111.324V146.552C111.324 146.2 111.236 145.931 111.06 145.744C110.884 145.552 110.644 145.456 110.34 145.456C110.031 145.456 109.786 145.552 109.604 145.744C109.428 145.931 109.34 146.2 109.34 146.552V149H108.22V144.568H109.34V145.12C109.49 144.928 109.679 144.779 109.908 144.672C110.143 144.56 110.399 144.504 110.676 144.504ZM115.245 144.496C115.576 144.496 115.867 144.563 116.117 144.696C116.368 144.824 116.565 144.992 116.709 145.2V144.568H117.837V149.032C117.837 149.443 117.755 149.808 117.589 150.128C117.424 150.453 117.176 150.709 116.845 150.896C116.515 151.088 116.115 151.184 115.645 151.184C115.016 151.184 114.499 151.037 114.093 150.744C113.693 150.451 113.467 150.051 113.413 149.544H114.525C114.584 149.747 114.709 149.907 114.901 150.024C115.099 150.147 115.336 150.208 115.613 150.208C115.939 150.208 116.203 150.109 116.405 149.912C116.608 149.72 116.709 149.427 116.709 149.032V148.344C116.565 148.552 116.365 148.725 116.109 148.864C115.859 149.003 115.571 149.072 115.245 149.072C114.872 149.072 114.531 148.976 114.221 148.784C113.912 148.592 113.667 148.323 113.485 147.976C113.309 147.624 113.221 147.221 113.221 146.768C113.221 146.32 113.309 145.923 113.485 145.576C113.667 145.229 113.909 144.963 114.213 144.776C114.523 144.589 114.867 144.496 115.245 144.496ZM116.709 146.784C116.709 146.512 116.656 146.28 116.549 146.088C116.443 145.891 116.299 145.741 116.117 145.64C115.936 145.533 115.741 145.48 115.533 145.48C115.325 145.48 115.133 145.531 114.957 145.632C114.781 145.733 114.637 145.883 114.525 146.08C114.419 146.272 114.365 146.501 114.365 146.768C114.365 147.035 114.419 147.269 114.525 147.472C114.637 147.669 114.781 147.821 114.957 147.928C115.139 148.035 115.331 148.088 115.533 148.088C115.741 148.088 115.936 148.037 116.117 147.936C116.299 147.829 116.443 147.68 116.549 147.488C116.656 147.291 116.709 147.056 116.709 146.784Z" fill="black"/>
<circle cx="77.5723" cy="146.572" r="2.57207" fill="#F9AD13"/>
<path d="M37.0617 145.096C37.0617 145.379 36.995 145.645 36.8617 145.896C36.7283 146.147 36.515 146.352 36.2217 146.512C35.9283 146.667 35.5523 146.744 35.0937 146.744H34.0857V149H33.1737V143.44H35.0937C35.5203 143.44 35.8803 143.515 36.1737 143.664C36.4723 143.808 36.6937 144.005 36.8377 144.256C36.987 144.507 37.0617 144.787 37.0617 145.096ZM35.0937 146C35.4403 146 35.699 145.923 35.8697 145.768C36.0403 145.608 36.1257 145.384 36.1257 145.096C36.1257 144.488 35.7817 144.184 35.0937 144.184H34.0857V146H35.0937ZM41.9715 146.688C41.9715 146.853 41.9608 147.003 41.9395 147.136H38.5715C38.5981 147.488 38.7288 147.771 38.9635 147.984C39.1981 148.197 39.4861 148.304 39.8275 148.304C40.3181 148.304 40.6648 148.099 40.8675 147.688H41.8515C41.7181 148.093 41.4755 148.427 41.1235 148.688C40.7768 148.944 40.3448 149.072 39.8275 149.072C39.4061 149.072 39.0275 148.979 38.6915 148.792C38.3608 148.6 38.0995 148.333 37.9075 147.992C37.7208 147.645 37.6275 147.245 37.6275 146.792C37.6275 146.339 37.7181 145.941 37.8995 145.6C38.0861 145.253 38.3448 144.987 38.6755 144.8C39.0115 144.613 39.3955 144.52 39.8275 144.52C40.2435 144.52 40.6141 144.611 40.9395 144.792C41.2648 144.973 41.5181 145.229 41.6995 145.56C41.8808 145.885 41.9715 146.261 41.9715 146.688ZM41.0195 146.4C41.0141 146.064 40.8941 145.795 40.6595 145.592C40.4248 145.389 40.1341 145.288 39.7875 145.288C39.4728 145.288 39.2035 145.389 38.9795 145.592C38.7555 145.789 38.6221 146.059 38.5795 146.4H41.0195ZM45.093 144.52C45.4396 144.52 45.749 144.592 46.021 144.736C46.2983 144.88 46.5143 145.093 46.669 145.376C46.8236 145.659 46.901 146 46.901 146.4V149H45.997V146.536C45.997 146.141 45.8983 145.84 45.701 145.632C45.5036 145.419 45.2343 145.312 44.893 145.312C44.5516 145.312 44.2796 145.419 44.077 145.632C43.8796 145.84 43.781 146.141 43.781 146.536V149H42.869V144.592H43.781V145.096C43.9303 144.915 44.1196 144.773 44.349 144.672C44.5836 144.571 44.8316 144.52 45.093 144.52ZM47.7603 146.776C47.7603 146.333 47.851 145.941 48.0323 145.6C48.219 145.259 48.4696 144.995 48.7843 144.808C49.1043 144.616 49.459 144.52 49.8483 144.52C50.1363 144.52 50.419 144.584 50.6963 144.712C50.979 144.835 51.203 145 51.3683 145.208V143.08H52.2883V149H51.3683V148.336C51.219 148.549 51.011 148.725 50.7443 148.864C50.483 149.003 50.1816 149.072 49.8403 149.072C49.4563 149.072 49.1043 148.976 48.7843 148.784C48.4696 148.587 48.219 148.315 48.0323 147.968C47.851 147.616 47.7603 147.219 47.7603 146.776ZM51.3683 146.792C51.3683 146.488 51.3043 146.224 51.1763 146C51.0536 145.776 50.891 145.605 50.6883 145.488C50.4856 145.371 50.267 145.312 50.0323 145.312C49.7976 145.312 49.579 145.371 49.3763 145.488C49.1736 145.6 49.0083 145.768 48.8803 145.992C48.7576 146.211 48.6963 146.472 48.6963 146.776C48.6963 147.08 48.7576 147.347 48.8803 147.576C49.0083 147.805 49.1736 147.981 49.3763 148.104C49.5843 148.221 49.803 148.28 50.0323 148.28C50.267 148.28 50.4856 148.221 50.6883 148.104C50.891 147.987 51.0536 147.816 51.1763 147.592C51.3043 147.363 51.3683 147.096 51.3683 146.792ZM53.9502 144.008C53.7848 144.008 53.6462 143.952 53.5342 143.84C53.4222 143.728 53.3662 143.589 53.3662 143.424C53.3662 143.259 53.4222 143.12 53.5342 143.008C53.6462 142.896 53.7848 142.84 53.9502 142.84C54.1102 142.84 54.2462 142.896 54.3582 143.008C54.4702 143.12 54.5262 143.259 54.5262 143.424C54.5262 143.589 54.4702 143.728 54.3582 143.84C54.2462 143.952 54.1102 144.008 53.9502 144.008ZM54.3982 144.592V149H53.4862V144.592H54.3982ZM57.8195 144.52C58.1662 144.52 58.4755 144.592 58.7475 144.736C59.0249 144.88 59.2409 145.093 59.3955 145.376C59.5502 145.659 59.6275 146 59.6275 146.4V149H58.7235V146.536C58.7235 146.141 58.6249 145.84 58.4275 145.632C58.2302 145.419 57.9609 145.312 57.6195 145.312C57.2782 145.312 57.0062 145.419 56.8035 145.632C56.6062 145.84 56.5075 146.141 56.5075 146.536V149H55.5955V144.592H56.5075V145.096C56.6569 144.915 56.8462 144.773 57.0755 144.672C57.3102 144.571 57.5582 144.52 57.8195 144.52ZM62.5669 144.52C62.9082 144.52 63.2095 144.589 63.4709 144.728C63.7375 144.861 63.9455 145.029 64.0949 145.232V144.592H65.0149V149.072C65.0149 149.477 64.9295 149.837 64.7589 150.152C64.5882 150.472 64.3402 150.723 64.0149 150.904C63.6949 151.085 63.3109 151.176 62.8629 151.176C62.2655 151.176 61.7695 151.035 61.3749 150.752C60.9802 150.475 60.7562 150.096 60.7029 149.616H61.6069C61.6762 149.845 61.8229 150.029 62.0469 150.168C62.2762 150.312 62.5482 150.384 62.8629 150.384C63.2309 150.384 63.5269 150.272 63.7509 150.048C63.9802 149.824 64.0949 149.499 64.0949 149.072V148.336C63.9402 148.544 63.7295 148.72 63.4629 148.864C63.2015 149.003 62.9029 149.072 62.5669 149.072C62.1829 149.072 61.8309 148.976 61.5109 148.784C61.1962 148.587 60.9455 148.315 60.7589 147.968C60.5775 147.616 60.4869 147.219 60.4869 146.776C60.4869 146.333 60.5775 145.941 60.7589 145.6C60.9455 145.259 61.1962 144.995 61.5109 144.808C61.8309 144.616 62.1829 144.52 62.5669 144.52ZM64.0949 146.792C64.0949 146.488 64.0309 146.224 63.9029 146C63.7802 145.776 63.6175 145.605 63.4149 145.488C63.2122 145.371 62.9935 145.312 62.7589 145.312C62.5242 145.312 62.3055 145.371 62.1029 145.488C61.9002 145.6 61.7349 145.768 61.6069 145.992C61.4842 146.211 61.4229 146.472 61.4229 146.776C61.4229 147.08 61.4842 147.347 61.6069 147.576C61.7349 147.805 61.9002 147.981 62.1029 148.104C62.3109 148.221 62.5295 148.28 62.7589 148.28C62.9935 148.28 63.2122 148.221 63.4149 148.104C63.6175 147.987 63.7802 147.816 63.9029 147.592C64.0309 147.363 64.0949 147.096 64.0949 146.792Z" fill="black"/>
<circle cx="26.5721" cy="146.572" r="2.57207" fill="#FB5850"/>
<path d="M103.661 96.3282C99.519 111.653 85.7678 122.906 69.4425 122.906C64.2186 122.906 59.2582 121.754 54.7919 119.685" stroke="#FFC700" stroke-width="5.14413" stroke-linecap="round"/>
<path d="M105.376 85.7205C105.376 65.5363 89.0622 49.1737 68.9383 49.1737C48.8143 49.1737 32.5007 65.5363 32.5007 85.7205C32.5007 97.3086 37.8778 107.637 46.266 114.333" stroke="#FF5600" stroke-width="5.14413" stroke-linecap="round"/>
<path d="M20.7805 24.5119C20.7805 23.6797 20.9606 22.9395 21.3207 22.2913C21.6808 21.6352 22.1809 21.1271 22.8211 20.767C23.4692 20.3989 24.2014 20.2148 25.0176 20.2148C26.0178 20.2148 26.8741 20.4789 27.5862 21.007C28.2984 21.5352 28.7745 22.2553 29.0146 23.1676H26.758C26.59 22.8155 26.3499 22.5474 26.0378 22.3634C25.7338 22.1793 25.3857 22.0873 24.9936 22.0873C24.3614 22.0873 23.8493 22.3073 23.4572 22.7475C23.0651 23.1876 22.8691 23.7757 22.8691 24.5119C22.8691 25.2481 23.0651 25.8362 23.4572 26.2763C23.8493 26.7164 24.3614 26.9365 24.9936 26.9365C25.3857 26.9365 25.7338 26.8445 26.0378 26.6604C26.3499 26.4764 26.59 26.2083 26.758 25.8562H29.0146C28.7745 26.7685 28.2984 27.4886 27.5862 28.0168C26.8741 28.5369 26.0178 28.797 25.0176 28.797C24.2014 28.797 23.4692 28.6169 22.8211 28.2568C22.1809 27.8887 21.6808 27.3806 21.3207 26.7324C20.9606 26.0843 20.7805 25.3441 20.7805 24.5119ZM33.3203 28.833C32.6641 28.833 32.072 28.6929 31.5438 28.4129C31.0237 28.1328 30.6116 27.7327 30.3075 27.2126C30.0115 26.6924 29.8634 26.0843 29.8634 25.3881C29.8634 24.6999 30.0155 24.0958 30.3195 23.5757C30.6236 23.0475 31.0397 22.6434 31.5678 22.3634C32.096 22.0833 32.6881 21.9433 33.3443 21.9433C34.0004 21.9433 34.5926 22.0833 35.1207 22.3634C35.6489 22.6434 36.065 23.0475 36.369 23.5757C36.6731 24.0958 36.8251 24.6999 36.8251 25.3881C36.8251 26.0763 36.6691 26.6844 36.357 27.2126C36.053 27.7327 35.6328 28.1328 35.0967 28.4129C34.5686 28.6929 33.9764 28.833 33.3203 28.833ZM33.3203 27.0565C33.7124 27.0565 34.0445 26.9125 34.3165 26.6244C34.5966 26.3363 34.7366 25.9242 34.7366 25.3881C34.7366 24.852 34.6006 24.4399 34.3285 24.1518C34.0645 23.8637 33.7364 23.7197 33.3443 23.7197C32.9442 23.7197 32.6121 23.8637 32.348 24.1518C32.084 24.4319 31.9519 24.844 31.9519 25.3881C31.9519 25.9242 32.08 26.3363 32.336 26.6244C32.6001 26.9125 32.9282 27.0565 33.3203 27.0565ZM44.5277 22.0393V28.7369H42.4752V27.8247C42.2671 28.1208 41.983 28.3608 41.623 28.5449C41.2709 28.7209 40.8788 28.809 40.4467 28.809C39.9345 28.809 39.4824 28.6969 39.0903 28.4729C38.6982 28.2408 38.3942 27.9087 38.1781 27.4766C37.9621 27.0445 37.854 26.5364 37.854 25.9522V22.0393H39.8945V25.6762C39.8945 26.1243 40.0106 26.4724 40.2426 26.7204C40.4747 26.9685 40.7868 27.0925 41.1788 27.0925C41.5789 27.0925 41.895 26.9685 42.1271 26.7204C42.3591 26.4724 42.4752 26.1243 42.4752 25.6762V22.0393H44.5277ZM48.0545 23.1556C48.2945 22.7875 48.5946 22.4994 48.9547 22.2913C49.3148 22.0753 49.7149 21.9673 50.155 21.9673V24.1398H49.5909C49.0787 24.1398 48.6946 24.2518 48.4386 24.4759C48.1825 24.6919 48.0545 25.076 48.0545 25.6282V28.7369H46.002V22.0393H48.0545V23.1556ZM53.8607 28.833C53.2766 28.833 52.7565 28.7329 52.3004 28.5329C51.8442 28.3328 51.4842 28.0608 51.2201 27.7167C50.956 27.3646 50.808 26.9725 50.776 26.5404H52.8045C52.8285 26.7725 52.9365 26.9605 53.1286 27.1045C53.3206 27.2486 53.5567 27.3206 53.8367 27.3206C54.0928 27.3206 54.2888 27.2726 54.4249 27.1766C54.5689 27.0725 54.6409 26.9405 54.6409 26.7805C54.6409 26.5884 54.5409 26.4484 54.3409 26.3603C54.1408 26.2643 53.8167 26.1603 53.3686 26.0483C52.8885 25.9362 52.4884 25.8202 52.1683 25.7002C51.8482 25.5722 51.5722 25.3761 51.3401 25.112C51.1081 24.84 50.992 24.4759 50.992 24.0198C50.992 23.6357 51.0961 23.2876 51.3041 22.9755C51.5202 22.6554 51.8322 22.4034 52.2403 22.2193C52.6564 22.0353 53.1486 21.9433 53.7167 21.9433C54.5569 21.9433 55.2171 22.1513 55.6972 22.5674C56.1853 22.9835 56.4654 23.5357 56.5374 24.2238H54.6409C54.6089 23.9918 54.5049 23.8077 54.3289 23.6717C54.1608 23.5357 53.9368 23.4676 53.6567 23.4676C53.4166 23.4676 53.2326 23.5156 53.1046 23.6117C52.9765 23.6997 52.9125 23.8237 52.9125 23.9838C52.9125 24.1758 53.0125 24.3198 53.2126 24.4159C53.4206 24.5119 53.7407 24.6079 54.1728 24.7039C54.6689 24.832 55.073 24.96 55.3851 25.088C55.6972 25.2081 55.9693 25.4081 56.2013 25.6882C56.4414 25.9603 56.5654 26.3283 56.5734 26.7925C56.5734 27.1846 56.4614 27.5366 56.2373 27.8487C56.0213 28.1528 55.7052 28.3929 55.2891 28.5689C54.881 28.7449 54.4049 28.833 53.8607 28.833ZM64.1427 25.2801C64.1427 25.4721 64.1307 25.6722 64.1067 25.8802H59.4615C59.4935 26.2963 59.6256 26.6164 59.8576 26.8405C60.0977 27.0565 60.3898 27.1645 60.7338 27.1645C61.246 27.1645 61.6021 26.9485 61.8021 26.5164H63.9867C63.8746 26.9565 63.6706 27.3526 63.3745 27.7047C63.0864 28.0568 62.7223 28.3328 62.2822 28.5329C61.8421 28.7329 61.35 28.833 60.8059 28.833C60.1497 28.833 59.5656 28.6929 59.0534 28.4129C58.5413 28.1328 58.1412 27.7327 57.8531 27.2126C57.5651 26.6924 57.421 26.0843 57.421 25.3881C57.421 24.6919 57.5611 24.0838 57.8411 23.5637C58.1292 23.0435 58.5293 22.6434 59.0414 22.3634C59.5536 22.0833 60.1417 21.9433 60.8059 21.9433C61.454 21.9433 62.0302 22.0793 62.5343 22.3514C63.0384 22.6234 63.4305 23.0115 63.7106 23.5156C63.9987 24.0198 64.1427 24.6079 64.1427 25.2801ZM62.0422 24.7399C62.0422 24.3879 61.9221 24.1078 61.6821 23.8997C61.442 23.6917 61.1419 23.5877 60.7819 23.5877C60.4378 23.5877 60.1457 23.6877 59.9056 23.8877C59.6736 24.0878 59.5295 24.3719 59.4735 24.7399H62.0422ZM75.558 27.2486H72.4132L71.9091 28.7369H69.7605L72.8093 20.3109H75.1859L78.2346 28.7369H76.0621L75.558 27.2486ZM75.0299 25.6642L73.9856 22.5794L72.9533 25.6642H75.0299ZM78.7544 25.3881C78.7544 24.6919 78.8945 24.0838 79.1745 23.5637C79.4626 23.0435 79.8587 22.6434 80.3628 22.3634C80.875 22.0833 81.4591 21.9433 82.1153 21.9433C82.9555 21.9433 83.6556 22.1633 84.2158 22.6034C84.7839 23.0435 85.156 23.6637 85.3321 24.4639H83.1475C82.9635 23.9518 82.6074 23.6957 82.0793 23.6957C81.7032 23.6957 81.4031 23.8437 81.179 24.1398C80.955 24.4279 80.8429 24.844 80.8429 25.3881C80.8429 25.9322 80.955 26.3523 81.179 26.6484C81.4031 26.9365 81.7032 27.0805 82.0793 27.0805C82.6074 27.0805 82.9635 26.8245 83.1475 26.3123H85.3321C85.156 27.0965 84.7839 27.7127 84.2158 28.1608C83.6476 28.6089 82.9475 28.833 82.1153 28.833C81.4591 28.833 80.875 28.6929 80.3628 28.4129C79.8587 28.1328 79.4626 27.7327 79.1745 27.2126C78.8945 26.6924 78.7544 26.0843 78.7544 25.3881ZM90.1629 26.9965V28.7369H89.1186C88.3744 28.7369 87.7943 28.5569 87.3782 28.1968C86.9621 27.8287 86.754 27.2326 86.754 26.4084V23.7437H85.9378V22.0393H86.754V20.4069H88.8065V22.0393H90.1509V23.7437H88.8065V26.4324C88.8065 26.6324 88.8546 26.7765 88.9506 26.8645C89.0466 26.9525 89.2066 26.9965 89.4307 26.9965H90.1629ZM92.3384 21.3431C91.9783 21.3431 91.6823 21.2391 91.4502 21.031C91.2261 20.815 91.1141 20.5509 91.1141 20.2388C91.1141 19.9188 91.2261 19.6547 91.4502 19.4466C91.6823 19.2306 91.9783 19.1226 92.3384 19.1226C92.6905 19.1226 92.9786 19.2306 93.2026 19.4466C93.4347 19.6547 93.5507 19.9188 93.5507 20.2388C93.5507 20.5509 93.4347 20.815 93.2026 21.031C92.9786 21.2391 92.6905 21.3431 92.3384 21.3431ZM93.3587 22.0393V28.7369H91.3062V22.0393H93.3587ZM97.8588 26.8165L99.3112 22.0393H101.496L99.1192 28.7369H96.5865L94.2099 22.0393H96.4065L97.8588 26.8165ZM103.392 21.3431C103.032 21.3431 102.736 21.2391 102.504 21.031C102.28 20.815 102.168 20.5509 102.168 20.2388C102.168 19.9188 102.28 19.6547 102.504 19.4466C102.736 19.2306 103.032 19.1226 103.392 19.1226C103.744 19.1226 104.032 19.2306 104.256 19.4466C104.488 19.6547 104.604 19.9188 104.604 20.2388C104.604 20.5509 104.488 20.815 104.256 21.031C104.032 21.2391 103.744 21.3431 103.392 21.3431ZM104.412 22.0393V28.7369H102.36V22.0393H104.412ZM109.633 26.9965V28.7369H108.588C107.844 28.7369 107.264 28.5569 106.848 28.1968C106.432 27.8287 106.224 27.2326 106.224 26.4084V23.7437H105.408V22.0393H106.224V20.4069H108.276V22.0393H109.621V23.7437H108.276V26.4324C108.276 26.6324 108.324 26.7765 108.42 26.8645C108.516 26.9525 108.676 26.9965 108.9 26.9965H109.633ZM117.618 22.0393L113.416 31.9177H111.208L112.744 28.5089L110.02 22.0393H112.312L113.861 26.2283L115.397 22.0393H117.618Z" fill="black"/>
</svg>
