<svg xmlns="http://www.w3.org/2000/svg" xmlns:xlink="http://www.w3.org/1999/xlink" width="112" height="54" fill="none" xmlns:v="https://vecta.io/nano"><rect x=".357" y=".105" width="111.456" height="53.156" rx="4.287" fill="#fff"/><path d="M47.511 19.825h30.865v3.429H47.511zm0 11.145h53.156v3.43H47.511z" fill="#eceff6"/><circle cx="26.506" cy="27.112" r="14.146" fill="#ffc700"/><g clip-path="url(#A)" fill="#fff"><path d="M32.812 28.383c-.113-.28-.432-.415-.712-.302s-.415.432-.302.712l.644 1.593-1.913-.843c-.139-.061-.296-.062-.435-.003-.654.279-1.354.42-2.082.42-2.928 0-4.895-2.292-4.895-4.433 0-2.445 2.196-4.433 4.895-4.433s4.895 1.989 4.895 4.433c0 .191-.018.419-.049.627-.045.299.161.577.46.622s.577-.161.621-.46a5.51 5.51 0 0 0 .061-.788c0-1.486-.629-2.879-1.771-3.925C31.1 20.569 29.603 20 28.012 20s-3.088.569-4.217 1.602c-1.021.934-1.631 2.147-1.75 3.454-1.284.85-2.045 2.213-2.045 3.68 0 .917.289 1.787.839 2.535l-.799 1.976c-.083.206-.033.443.126.598.104.101.241.154.381.154.075 0 .15-.015.221-.047l2.303-1.015c.579.216 1.192.325 1.824.325.014 0 .027-.001.041-.002.914-.007 1.803-.247 2.573-.697a4.71 4.71 0 0 0 1.654-1.611 6.3 6.3 0 0 0 1.136-.316l2.934 1.293c.071.031.146.047.221.047.139 0 .277-.053.381-.154.16-.155.21-.391.126-.598l-1.149-2.842zm-7.917 3.785c-.008 0-.015.001-.022.001a4.1 4.1 0 0 1-1.598-.327c-.139-.059-.297-.059-.435.003l-1.281.564.413-1.022c.076-.189.041-.405-.091-.56-.515-.604-.787-1.327-.787-2.091 0-.874.368-1.702 1.011-2.33a5.52 5.52 0 0 0 1.618 2.956c1.061 1.021 2.464 1.612 3.979 1.683-.711.7-1.729 1.121-2.806 1.121z"/><use xlink:href="#B"/><path d="M30.172 26.098c.302 0 .547-.245.547-.547s-.245-.547-.547-.547-.547.245-.547.547.245.547.547.547zm-4.375 0c.302 0 .547-.245.547-.547s-.245-.547-.547-.547-.547.245-.547.547.245.547.547.547z"/></g><defs><clipPath id="A"><path fill="#fff" transform="translate(20 20)" d="M0 0h14v14H0z"/></clipPath><path id="B" d="M27.984 26.098c.302 0 .547-.245.547-.547s-.245-.547-.547-.547-.547.245-.547.547.245.547.547.547z"/></defs></svg>