<svg xmlns="http://www.w3.org/2000/svg" width="364" height="147" fill="none" xmlns:v="https://vecta.io/nano"><style><![CDATA[.B{fill:#ffc700}.C{fill:#1f1f26}]]></style><rect x=".294" y=".979" width="363.519" height="145.75" rx="4.287" fill="#fff"/><path d="M312.347 112.958h-2.592v2.661h-1.811v-2.661h-2.593v-1.674h2.593v-2.661h1.811v2.661h2.592v1.674zm1.617-4.184v-1.77h3.306v10.001h-1.976v-8.231h-1.33zm5.807 6.063l2.098-1.824c.522-.494.956-1.006 1.304-1.537s.521-1.051.521-1.564c0-.466-.11-.832-.329-1.097s-.558-.398-1.015-.398-.81.156-1.057.467c-.247.301-.375.718-.384 1.248h-1.865c.036-1.097.361-1.93.973-2.497.622-.567 1.409-.85 2.36-.85 1.042 0 1.843.279 2.401.837.557.548.836 1.275.836 2.181 0 .713-.192 1.394-.576 2.044s-.823 1.216-1.317 1.701l-1.934 1.728h4.047v1.591h-6.777v-1.426l.714-.604zm7.273-2.963c0-1.582.283-2.821.85-3.717.577-.897 1.528-1.345 2.854-1.345s2.272.448 2.839 1.345c.576.896.864 2.135.864 3.717 0 1.591-.288 2.84-.864 3.745-.567.905-1.513 1.358-2.839 1.358s-2.277-.453-2.854-1.358c-.567-.905-.85-2.154-.85-3.745zm5.514 0c0-.677-.045-1.244-.137-1.701-.082-.466-.256-.846-.521-1.138-.256-.293-.64-.439-1.152-.439s-.901.146-1.166.439c-.256.292-.43.672-.522 1.138-.082.457-.123 1.024-.123 1.701 0 .695.041 1.28.123 1.756.083.466.257.846.522 1.139.265.283.654.425 1.166.425s.901-.142 1.166-.425c.265-.293.439-.673.521-1.139.082-.476.123-1.061.123-1.756z" fill="#000"/><path d="M304.227 97.003h15.432v2.572h-15.432z" class="B"/><path fill="#ff5600" d="M304.227 54.135h15.432v2.572h-15.432z"/><path d="M305.557 71.969l2.099-1.824c.521-.494.956-1.006 1.303-1.536s.521-1.052.521-1.564c0-.466-.109-.832-.329-1.097s-.558-.398-1.015-.398-.809.155-1.056.466c-.247.302-.375.718-.384 1.248h-1.866c.037-1.097.361-1.93.974-2.497.622-.567 1.409-.85 2.36-.85 1.042 0 1.842.279 2.4.837.558.549.837 1.276.837 2.181 0 .713-.192 1.395-.576 2.044s-.823 1.216-1.317 1.701l-1.934 1.728h4.046V74h-6.776v-1.427l.713-.604zm13.995-6.173h-4.444v2.346c.192-.238.466-.43.823-.576.356-.155.736-.233 1.138-.233.732 0 1.331.16 1.797.48s.805.732 1.015 1.235c.211.494.316 1.024.316 1.591 0 1.052-.302 1.898-.905 2.538-.595.64-1.445.96-2.552.96-1.042 0-1.875-.261-2.496-.782s-.974-1.203-1.057-2.044h1.866c.082.366.265.658.549.878.292.219.663.329 1.111.329.539 0 .946-.169 1.221-.508s.411-.786.411-1.344c0-.567-.142-.997-.425-1.289-.274-.302-.681-.453-1.221-.453-.384 0-.704.096-.96.288s-.439.448-.549.768h-1.838v-5.871h6.2v1.687zm4.425 6.324l-1.605 3.855h-1.235l.892-3.855h1.948zm1.192-5.35c.046-.915.366-1.619.96-2.113.604-.503 1.395-.754 2.374-.754.667 0 1.239.119 1.714.357.476.229.832.544 1.07.947.247.393.371.841.371 1.344 0 .576-.151 1.065-.453 1.468-.293.393-.645.658-1.056.796v.055c.53.165.942.457 1.234.878.302.421.453.96.453 1.619 0 .549-.128 1.038-.384 1.468-.247.43-.617.768-1.111 1.015-.485.238-1.07.357-1.756.357-1.034 0-1.875-.261-2.524-.782s-.992-1.29-1.029-2.305h1.866c.018.448.169.809.452 1.084.293.265.691.398 1.194.398.466 0 .823-.128 1.07-.384.256-.265.384-.603.384-1.015 0-.549-.174-.942-.522-1.18s-.887-.357-1.618-.357h-.398v-1.578h.398c1.298 0 1.948-.434 1.948-1.303 0-.393-.119-.7-.357-.919-.229-.219-.562-.329-1.001-.329-.43 0-.764.119-1.002.357-.228.229-.361.521-.398.878h-1.879zm13.809 7.366l-3.484-4.266v4.266h-1.921v-9.575h1.921v4.294l3.484-4.294h2.318l-3.951 4.746 4.061 4.829h-2.428z" fill="#000"/><path d="M20.871 35.702h255.92m-255.92 32.58h255.92M20.871 98.289h255.92" stroke="#ececf9" stroke-width=".857" stroke-dasharray="2.83 2.83"/><path fill="#eceff6" d="M316.23 18.126h27.435v2.572H316.23z"/><path d="M29.016 87.572h4.287v42.868h-4.287z" class="C"/><path d="M38.446 94.431h4.287v36.009h-4.287z" class="B"/><path d="M65.024 60.137h4.287v70.303h-4.287z" class="C"/><path d="M74.455 65.281h4.287v65.159h-4.287z" class="B"/><path d="M101.891 71.282h4.287v59.158h-4.287z" class="C"/><path d="M111.322 76.427h4.287v54.013h-4.287z" class="B"/><path d="M138.757 76.426h4.287v54.013h-4.287z" class="C"/><path d="M148.188 81.571h4.287v48.869h-4.287z" class="B"/><path d="M174.766 65.281h4.287v65.159h-4.287z" class="C"/><path d="M184.197 71.283h4.287v59.158h-4.287z" class="B"/><path d="M210.775 48.134h4.287v82.306h-4.287z" class="C"/><path d="M220.206 54.135h4.287v76.305h-4.287z" class="B"/><path d="M247.641 42.132h4.287v88.308h-4.287z" class="C"/><path d="M257.072 48.134h4.287v82.306h-4.287z" class="B"/></svg>