<svg xmlns="http://www.w3.org/2000/svg" width="139" height="168" fill="none" xmlns:v="https://vecta.io/nano"><rect y=".59" width="138.892" height="167.19" rx="4.287" fill="#fff"/><path d="M86.492 149.056c-.523 0-1.003-.123-1.44-.368s-.784-.584-1.04-1.016-.384-.931-.384-1.48.128-1.032.384-1.464a2.74 2.74 0 0 1 1.04-1.024c.437-.245.917-.368 1.44-.368.528 0 1.008.123 1.44.368a2.68 2.68 0 0 1 1.032 1.024c.256.432.384.92.384 1.464s-.128 1.043-.384 1.48c-.251.432-.595.771-1.032 1.016s-.917.368-1.44.368zm0-1c.336 0 .632-.075.888-.224a1.59 1.59 0 0 0 .6-.656c.144-.283.216-.611.216-.984a2.09 2.09 0 0 0-.216-.976c-.144-.283-.344-.499-.6-.648s-.552-.224-.888-.224-.635.075-.896.224c-.256.149-.456.365-.6.648a2.09 2.09 0 0 0-.216.976c0 .373.072.701.216.984a1.59 1.59 0 0 0 .6.656c.261.149.56.224.896.224zm6.145-3.552c.528 0 .955.168 1.28.504.325.331.488.795.488 1.392v2.6h-1.12v-2.448c0-.352-.088-.621-.264-.808s-.416-.288-.72-.288c-.309 0-.555.096-.736.288-.176.187-.264.456-.264.808V149h-1.12v-4.432h1.12v.552a1.52 1.52 0 0 1 .568-.448 1.76 1.76 0 0 1 .768-.168zm4.569-.008c.331 0 .621.067.872.2s.448.296.592.504v-.632h1.128v4.464c0 .411-.083.776-.248 1.096-.165.325-.413.581-.744.768-.331.192-.731.288-1.2.288-.629 0-1.147-.147-1.552-.44-.4-.293-.627-.693-.68-1.2h1.112c.059.203.184.363.376.48.197.123.435.184.712.184.325 0 .589-.099.792-.296s.304-.485.304-.88v-.688c-.144.208-.344.381-.6.52-.251.139-.539.208-.864.208-.373 0-.715-.096-1.024-.288s-.555-.461-.736-.808c-.176-.352-.264-.755-.264-1.208s.088-.845.264-1.192a2 2 0 0 1 .728-.8c.309-.187.653-.28 1.032-.28zm1.464 2.288c0-.272-.053-.504-.16-.696s-.251-.347-.432-.448a1.13 1.13 0 0 0-.584-.16c-.208 0-.4.051-.576.152s-.32.251-.432.448c-.107.192-.16.421-.16.688a1.49 1.49 0 0 0 .16.704c.112.197.256.349.432.456.181.107.373.16.576.16a1.18 1.18 0 0 0 .584-.152c.181-.107.325-.256.432-.448a1.46 1.46 0 0 0 .16-.704zm4.19 2.288c-.427 0-.811-.093-1.152-.28a2.1 2.1 0 0 1-.808-.808c-.192-.347-.288-.747-.288-1.2s.099-.853.296-1.2c.203-.347.477-.613.824-.8s.733-.288 1.16-.288.813.096 1.16.288.619.453.816.8c.203.347.304.747.304 1.2s-.104.853-.312 1.2-.48.616-.832.808a2.42 2.42 0 0 1-1.168.28zm0-.976c.203 0 .392-.048.568-.144a1.1 1.1 0 0 0 .432-.448c.107-.197.16-.437.16-.72 0-.421-.112-.744-.336-.968-.219-.229-.488-.344-.808-.344s-.589.115-.808.344c-.213.224-.32.547-.32.968s.104.747.312.976.48.336.8.336zm3.702-4.056a.7.7 0 0 1-.496-.184.64.64 0 0 1-.192-.472c0-.187.064-.341.192-.464s.298-.192.496-.192a.66.66 0 0 1 .488.192c.133.123.2.277.2.464a.63.63 0 0 1-.2.472c-.128.123-.291.184-.488.184zm.552.528V149h-1.12v-4.432h1.12zm3.562-.064c.528 0 .955.168 1.28.504.326.331.488.795.488 1.392v2.6h-1.12v-2.448c0-.352-.088-.621-.264-.808s-.416-.288-.72-.288-.554.096-.736.288c-.176.187-.264.456-.264.808V149h-1.12v-4.432h1.12v.552a1.53 1.53 0 0 1 .568-.448 1.76 1.76 0 0 1 .768-.168zm4.569-.008a1.83 1.83 0 0 1 .872.2 1.57 1.57 0 0 1 .592.504v-.632h1.128v4.464c0 .411-.082.776-.248 1.096a1.81 1.81 0 0 1-.744.768c-.33.192-.73.288-1.2.288-.629 0-1.146-.147-1.552-.44-.4-.293-.626-.693-.68-1.2h1.112c.059.203.184.363.376.48.198.123.435.184.712.184.326 0 .59-.099.792-.296s.304-.485.304-.88v-.688c-.144.208-.344.381-.6.52-.25.139-.538.208-.864.208-.373 0-.714-.096-1.024-.288s-.554-.461-.736-.808c-.176-.352-.264-.755-.264-1.208s.088-.845.264-1.192c.182-.347.424-.613.728-.8a1.96 1.96 0 0 1 1.032-.28zm1.464 2.288a1.41 1.41 0 0 0-.16-.696c-.106-.197-.25-.347-.432-.448a1.13 1.13 0 0 0-.584-.16c-.208 0-.4.051-.576.152s-.32.251-.432.448c-.106.192-.16.421-.16.688s.054.501.16.704c.112.197.256.349.432.456a1.12 1.12 0 0 0 .576.16 1.18 1.18 0 0 0 .584-.152c.182-.107.326-.256.432-.448s.16-.432.16-.704z" fill="#000"/><circle cx="77.572" cy="146.572" r="2.572" fill="#f9ad13"/><path d="M37.062 145.096a1.68 1.68 0 0 1-.2.8c-.133.251-.347.456-.64.616s-.669.232-1.128.232h-1.008V149h-.912v-5.56h1.92c.427 0 .787.075 1.08.224.299.144.52.341.664.592a1.61 1.61 0 0 1 .224.84zm-1.968.904c.347 0 .605-.077.776-.232s.256-.384.256-.672c0-.608-.344-.912-1.032-.912h-1.008V146h1.008zm6.878.688c0 .165-.011.315-.032.448h-3.368c.027.352.157.635.392.848s.523.32.864.32c.491 0 .837-.205 1.04-.616h.984a2 2 0 0 1-.728 1c-.347.256-.779.384-1.296.384-.421 0-.8-.093-1.136-.28-.331-.192-.592-.459-.784-.8-.187-.347-.28-.747-.28-1.2s.091-.851.272-1.192c.187-.347.445-.613.776-.8.336-.187.72-.28 1.152-.28.416 0 .787.091 1.112.272a1.91 1.91 0 0 1 .76.768c.181.325.272.701.272 1.128zm-.952-.288c-.005-.336-.125-.605-.36-.808s-.525-.304-.872-.304a1.16 1.16 0 0 0-.808.304c-.224.197-.357.467-.4.808h2.44zm4.074-1.88c.347 0 .656.072.928.216a1.53 1.53 0 0 1 .648.64c.155.283.232.624.232 1.024v2.6h-.904v-2.464c0-.395-.099-.696-.296-.904s-.467-.32-.808-.32-.613.107-.816.32c-.197.208-.296.509-.296.904V149h-.912v-4.408h.912v.504c.149-.181.339-.323.568-.424a1.86 1.86 0 0 1 .744-.152zm2.667 2.256c0-.443.091-.835.272-1.176.187-.341.437-.605.752-.792a2.03 2.03 0 0 1 1.064-.288c.288 0 .571.064.848.192.283.123.507.288.672.496v-2.128h.92V149h-.92v-.664c-.149.213-.357.389-.624.528-.261.139-.563.208-.904.208-.384 0-.736-.096-1.056-.288-.315-.197-.565-.469-.752-.816-.181-.352-.272-.749-.272-1.192zm3.608.016a1.57 1.57 0 0 0-.192-.792 1.29 1.29 0 0 0-1.144-.688 1.29 1.29 0 0 0-.656.176c-.203.112-.368.28-.496.504-.123.219-.184.48-.184.784a1.67 1.67 0 0 0 .184.8 1.4 1.4 0 0 0 .496.528 1.32 1.32 0 0 0 .656.176 1.29 1.29 0 0 0 1.144-.688c.128-.229.192-.496.192-.8zm2.582-2.784c-.165 0-.304-.056-.416-.168s-.168-.251-.168-.416.056-.304.168-.416.251-.168.416-.168c.16 0 .296.056.408.168s.168.251.168.416-.056.304-.168.416-.248.168-.408.168zm.448.584V149h-.912v-4.408h.912zm3.421-.072c.347 0 .656.072.928.216.277.144.493.357.648.64s.232.624.232 1.024v2.6h-.904v-2.464c0-.395-.099-.696-.296-.904s-.467-.32-.808-.32-.613.107-.816.32c-.197.208-.296.509-.296.904V149h-.912v-4.408h.912v.504c.149-.181.339-.323.568-.424.235-.101.483-.152.744-.152zm4.747 0c.341 0 .643.069.904.208.267.133.475.301.624.504v-.64h.92v4.48c0 .405-.085.765-.256 1.08-.171.32-.419.571-.744.752-.32.181-.704.272-1.152.272-.597 0-1.093-.141-1.488-.424-.395-.277-.619-.656-.672-1.136h.904a.97.97 0 0 0 .44.552c.229.144.501.216.816.216.368 0 .664-.112.888-.336.229-.224.344-.549.344-.976v-.736a1.89 1.89 0 0 1-.632.528c-.261.139-.56.208-.896.208-.384 0-.736-.096-1.056-.288-.315-.197-.565-.469-.752-.816-.181-.352-.272-.749-.272-1.192s.091-.835.272-1.176c.187-.341.437-.605.752-.792.32-.192.672-.288 1.056-.288zm1.528 2.272a1.57 1.57 0 0 0-.192-.792 1.29 1.29 0 0 0-1.144-.688 1.29 1.29 0 0 0-.656.176c-.203.112-.368.28-.496.504-.123.219-.184.48-.184.784a1.67 1.67 0 0 0 .184.8 1.4 1.4 0 0 0 .496.528 1.32 1.32 0 0 0 .656.176 1.29 1.29 0 0 0 1.144-.688c.128-.229.192-.496.192-.8z" fill="#000"/><circle cx="26.572" cy="146.572" r="2.572" fill="#fb5850"/><g stroke-width="5.144" stroke-linecap="round"><path d="M103.661 96.328c-4.142 15.325-17.893 26.578-34.219 26.578-5.224 0-10.184-1.152-14.651-3.221" stroke="#ffc700"/><path d="M105.376 85.721c0-20.184-16.314-36.547-36.438-36.547S32.501 65.536 32.501 85.721a36.52 36.52 0 0 0 13.765 28.612" stroke="#ff5600"/></g><path d="M20.781 24.512c0-.832.18-1.572.54-2.221a3.82 3.82 0 0 1 1.5-1.524c.648-.368 1.38-.552 2.197-.552 1 0 1.856.264 2.569.792s1.188 1.248 1.428 2.161h-2.257a1.81 1.81 0 0 0-.72-.804c-.304-.184-.652-.276-1.044-.276-.632 0-1.144.22-1.536.66s-.588 1.028-.588 1.764.196 1.324.588 1.764.904.66 1.536.66c.392 0 .74-.092 1.044-.276a1.81 1.81 0 0 0 .72-.804h2.257c-.24.912-.716 1.632-1.428 2.161-.712.52-1.568.78-2.569.78-.816 0-1.548-.18-2.197-.54-.64-.368-1.14-.876-1.5-1.524s-.54-1.388-.54-2.22zm12.54 4.321c-.656 0-1.248-.14-1.777-.42-.52-.28-.932-.68-1.236-1.2-.296-.52-.444-1.128-.444-1.824 0-.688.152-1.292.456-1.812.304-.528.72-.932 1.248-1.212s1.12-.42 1.776-.42 1.248.14 1.776.42a3.08 3.08 0 0 1 1.248 1.212c.304.52.456 1.124.456 1.812s-.156 1.296-.468 1.824c-.304.52-.724.92-1.26 1.2-.528.28-1.12.42-1.776.42zm0-1.776c.392 0 .724-.144.996-.432.28-.288.42-.7.42-1.236s-.136-.948-.408-1.236a1.28 1.28 0 0 0-.984-.432c-.4 0-.732.144-.996.432-.264.28-.396.692-.396 1.236 0 .536.128.948.384 1.236a1.28 1.28 0 0 0 .984.432zm11.207-5.017v6.698h-2.053v-.912c-.208.296-.492.536-.852.72-.352.176-.744.264-1.176.264-.512 0-.964-.112-1.356-.336-.392-.232-.696-.564-.912-.996s-.324-.94-.324-1.524v-3.913h2.041v3.637c0 .448.116.796.348 1.044s.544.372.936.372c.4 0 .716-.124.948-.372s.348-.596.348-1.044v-3.637h2.053zm3.527 1.116a2.65 2.65 0 0 1 .9-.864 2.29 2.29 0 0 1 1.2-.324v2.172h-.564c-.512 0-.896.112-1.152.336-.256.216-.384.6-.384 1.152v3.109h-2.052v-6.698h2.052v1.116zm5.806 5.677c-.584 0-1.104-.1-1.56-.3s-.816-.472-1.08-.816c-.264-.352-.412-.744-.444-1.176h2.028a.78.78 0 0 0 .324.564c.192.144.428.216.708.216.256 0 .452-.048.588-.144a.47.47 0 0 0 .216-.396c0-.192-.1-.332-.3-.42-.2-.096-.524-.2-.972-.312a9.91 9.91 0 0 1-1.2-.348c-.32-.128-.596-.324-.828-.588-.232-.272-.348-.636-.348-1.092a1.84 1.84 0 0 1 .312-1.044c.216-.32.528-.572.936-.756.416-.184.908-.276 1.476-.276.84 0 1.5.208 1.98.624.488.416.768.968.84 1.656h-1.896a.81.81 0 0 0-.312-.552c-.168-.136-.392-.204-.672-.204-.24 0-.424.048-.552.144-.128.088-.192.212-.192.372 0 .192.1.336.3.432.208.096.528.192.96.288.496.128.9.256 1.212.384.312.12.584.32.816.6.24.272.364.64.372 1.104 0 .392-.112.744-.336 1.056-.216.304-.532.544-.948.72-.408.176-.884.264-1.428.264zm10.282-3.553a5.24 5.24 0 0 1-.036.6h-4.645c.032.416.164.736.396.96.24.216.532.324.876.324.512 0 .868-.216 1.068-.648h2.185a2.96 2.96 0 0 1-.612 1.188 2.98 2.98 0 0 1-1.092.828c-.44.2-.932.3-1.476.3-.656 0-1.24-.14-1.752-.42a2.99 2.99 0 0 1-1.2-1.2c-.288-.52-.432-1.128-.432-1.824s.14-1.304.42-1.824c.288-.52.688-.92 1.2-1.2s1.1-.42 1.764-.42c.648 0 1.224.136 1.728.408a2.89 2.89 0 0 1 1.176 1.164c.288.504.432 1.092.432 1.765zm-2.101-.54c0-.352-.12-.632-.36-.84s-.54-.312-.9-.312c-.344 0-.636.1-.876.3-.232.2-.376.484-.432.852h2.569zm13.516 2.509h-3.145l-.504 1.488h-2.149l3.049-8.426h2.377l3.049 8.426h-2.172l-.504-1.488zm-.528-1.584l-1.044-3.085-1.032 3.085h2.077zm3.725-.276c0-.696.14-1.304.42-1.824a3.01 3.01 0 0 1 1.188-1.2c.512-.28 1.096-.42 1.753-.42.84 0 1.54.22 2.1.66.568.44.94 1.06 1.116 1.86h-2.185c-.184-.512-.54-.768-1.068-.768a1.07 1.07 0 0 0-.9.444c-.224.288-.336.704-.336 1.248s.112.964.336 1.26a1.08 1.08 0 0 0 .9.432c.528 0 .884-.256 1.068-.768h2.185c-.176.784-.548 1.4-1.116 1.848s-1.268.672-2.1.672c-.656 0-1.24-.14-1.753-.42a3.01 3.01 0 0 1-1.188-1.2c-.28-.52-.42-1.128-.42-1.824zm11.408 1.608v1.74h-1.044c-.744 0-1.324-.18-1.74-.54-.416-.368-.624-.964-.624-1.788v-2.665h-.816v-1.704h.816v-1.632h2.052v1.632h1.344v1.704h-1.344v2.689c0 .2.048.344.144.432s.256.132.48.132h.732zm2.175-5.653c-.36 0-.656-.104-.888-.312-.224-.216-.336-.48-.336-.792 0-.32.112-.584.336-.792.232-.216.528-.324.888-.324.352 0 .64.108.864.324.232.208.348.472.348.792a1.04 1.04 0 0 1-.348.792c-.224.208-.512.312-.864.312zm1.02.696v6.698h-2.052v-6.698h2.052zm4.5 4.777l1.452-4.777h2.185l-2.377 6.698h-2.533l-2.377-6.698h2.197l1.452 4.777zm5.533-5.473c-.36 0-.656-.104-.888-.312a1.06 1.06 0 0 1-.336-.792c0-.32.112-.584.336-.792.232-.216.528-.324.888-.324.352 0 .64.108.864.324.232.208.348.472.348.792a1.04 1.04 0 0 1-.348.792c-.224.208-.512.312-.864.312zm1.02.696v6.698h-2.052v-6.698h2.052zm5.221 4.957v1.74h-1.045c-.744 0-1.324-.18-1.74-.54-.416-.368-.624-.964-.624-1.788v-2.665h-.816v-1.704h.816v-1.632h2.052v1.632h1.345v1.704h-1.345v2.689c0 .2.048.344.144.432s.256.132.48.132h.733zm7.985-4.957l-4.202 9.878h-2.208l1.536-3.409-2.724-6.47h2.292l1.549 4.189 1.536-4.189h2.221z" fill="#000"/></svg>