<svg xmlns="http://www.w3.org/2000/svg" width="112" height="54" fill="none" xmlns:v="https://vecta.io/nano"><rect x=".325" y=".105" width="111.456" height="53.156" rx="4.287" fill="#fff"/><path d="M47.48 30.97h53.156v3.43H47.48zm0-11.145h30.865v3.429H47.48z" fill="#eceff6"/><circle cx="26.475" cy="27.112" r="14.146" fill="#ff5600"/><g clip-path="url(#A)"><path d="M32.653 28.082l-5.431 5.438a1.64 1.64 0 0 1-2.323.001l-5.495-5.436a1.27 1.27 0 0 1 .9-2.178h1.813v-1.586c0-.302.245-.547.547-.547s.547.245.547.547v2.133c0 .302-.245.547-.547.547h-2.36c-.106 0-.151.07-.168.112-.021.051-.031.126.039.196l5.496 5.436a.55.55 0 0 0 .778.002l5.431-5.438c.07-.071.06-.146.039-.196-.017-.042-.062-.112-.168-.112H29.5c-.302 0-.547-.245-.547-.547v-2.133c0-.302.245-.547.547-.547s.547.245.547.547v1.586h1.703a1.27 1.27 0 0 1 .903 2.175zm-9.99-6.988c.302 0 .547-.245.547-.547S22.965 20 22.663 20s-.547.245-.547.547.245.547.547.547zm0 1.914c.302 0 .547-.245.547-.547s-.245-.547-.547-.547-.547.245-.547.547.245.547.547.547zm6.836-1.914c.302 0 .547-.245.547-.547S29.802 20 29.5 20s-.547.245-.547.547.245.547.547.547zm0 1.914c.302 0 .547-.245.547-.547s-.245-.547-.547-.547-.547.245-.547.547.245.547.547.547zm-3.127 5.196h-.814c-.13 0-.27-.075-.27-.239 0-.302-.245-.547-.547-.547s-.547.245-.547.547c0 .731.573 1.306 1.313 1.332v.302c0 .302.245.547.547.547s.547-.245.547-.547v-.317c.752-.105 1.313-.721 1.313-1.488v-.333a1.51 1.51 0 0 0-.455-1.087 1.54 1.54 0 0 0-1.086-.44h-.501c-.241 0-.444-.213-.444-.465v-.199c0-.245.191-.43.444-.43h.474c.139 0 .283.093.283.249 0 .302.245.547.547.547s.547-.245.547-.547c0-.655-.484-1.202-1.122-1.32v-.352c0-.302-.245-.547-.547-.547s-.547.245-.547.547v.37a1.53 1.53 0 0 0-.72.396c-.293.287-.454.672-.454 1.085v.199c0 .86.69 1.559 1.538 1.559h.501c.251 0 .448.19.448.433v.333c0 .269-.225.41-.448.41z" fill="#fff"/></g><defs><clipPath id="A"><path fill="#fff" transform="translate(19 20)" d="M0 0h14v14H0z"/></clipPath></defs></svg>