<svg xmlns="http://www.w3.org/2000/svg" width="100" height="42" fill="none" xmlns:v="https://vecta.io/nano"><path d="M3.976 41.21c-.597 0-1.148-.103-1.652-.308a3.75 3.75 0 0 1-1.274-.896c-.345-.392-.583-.859-.714-1.4l1.946-.42c.121.383.331.681.63.896.308.215.672.322 1.092.322.299 0 .56-.051.784-.154a1.27 1.27 0 0 0 .532-.448c.131-.187.196-.401.196-.644 0-.308-.117-.555-.35-.742-.233-.196-.611-.355-1.134-.476l-.448-.098c-1.027-.224-1.783-.583-2.268-1.078-.485-.504-.728-1.115-.728-1.834 0-.448.089-.859.266-1.232a2.97 2.97 0 0 1 .728-.966 3.34 3.34 0 0 1 1.106-.644 3.81 3.81 0 0 1 1.358-.238 3.85 3.85 0 0 1 1.54.308 3.25 3.25 0 0 1 1.204.882 3.03 3.03 0 0 1 .658 1.358l-1.918.42c-.112-.373-.308-.658-.588-.854a1.53 1.53 0 0 0-.952-.308c-.252 0-.481.051-.686.154a1.18 1.18 0 0 0-.476.406 1.01 1.01 0 0 0-.168.574c0 .327.126.579.378.756.252.168.625.308 1.12.42l.448.098c1.017.224 1.769.579 2.254 1.064.495.485.742 1.106.742 1.862a2.99 2.99 0 0 1-.28 1.302c-.177.392-.429.733-.756 1.022s-.709.513-1.148.672a4.45 4.45 0 0 1-1.442.224zm7.259-.21v-8.092h-2.8V31.06h7.686v1.848h-2.8V41h-2.086zm10.498.28c-.653 0-1.241-.098-1.764-.294a3.88 3.88 0 0 1-1.344-.868 4.03 4.03 0 0 1-.868-1.358c-.196-.532-.294-1.125-.294-1.778V31.06h2.086v5.824c0 .504.089.943.266 1.316a2.02 2.02 0 0 0 .756.868c.336.196.728.294 1.176.294s.835-.098 1.162-.294c.327-.205.579-.495.756-.868.187-.373.28-.812.28-1.316V31.06h2.086v5.922c0 .653-.103 1.246-.308 1.778a3.76 3.76 0 0 1-.868 1.358c-.373.373-.826.663-1.358.868-.523.196-1.111.294-1.764.294zm5.974-.28v-9.94h3.864c.784 0 1.498.121 2.142.364.644.233 1.199.569 1.666 1.008s.826.961 1.078 1.568.378 1.279.378 2.016-.131 1.414-.392 2.03a4.63 4.63 0 0 1-1.078 1.582c-.467.439-1.027.779-1.68 1.022-.644.233-1.358.35-2.142.35h-3.836zm2.086-1.848h1.652c.663 0 1.237-.126 1.722-.378s.859-.611 1.12-1.078.392-1.022.392-1.666-.131-1.199-.392-1.666-.635-.826-1.12-1.078-1.059-.378-1.722-.378h-1.652v6.244zM40.308 41v-3.864l-3.472-6.076h2.324l2.226 4.186 2.212-4.186h2.268l-3.472 6.076V41h-2.086zm4.514 0l3.948-9.94h2.212L54.944 41h-2.142l-.812-2.184h-4.298L46.88 41h-2.058zm3.528-3.948h2.982l-1.498-3.962-1.484 3.962zm8.897 4.004a1.2 1.2 0 0 1-.63-.168 1.33 1.33 0 0 1-.434-.448c-.112-.187-.168-.392-.168-.616s.056-.429.168-.616a1.33 1.33 0 0 1 .434-.448 1.2 1.2 0 0 1 .63-.168 1.13 1.13 0 0 1 .616.168 1.28 1.28 0 0 1 .448.448c.112.187.168.392.168.616s-.056.429-.168.616a1.28 1.28 0 0 1-.448.448 1.13 1.13 0 0 1-.616.168z" fill="#00d9ff"/><path d="M1.68 21V1.12h12.852v4.06H6.44v3.64h7.14v4.06H6.44v4.06h8.372V21H1.68zm16.215 0V1.12h8.148c1.549 0 2.968.243 4.256.728 1.288.467 2.399 1.139 3.332 2.016.952.877 1.68 1.923 2.184 3.136.523 1.213.784 2.557.784 4.032s-.261 2.819-.784 4.032a9.08 9.08 0 0 1-2.184 3.164c-.933.877-2.053 1.559-3.36 2.044-1.288.485-2.716.728-4.284.728h-8.092zm4.872-4.312h2.968c1.195 0 2.221-.224 3.08-.672a4.86 4.86 0 0 0 2.016-1.96c.485-.84.728-1.839.728-2.996s-.243-2.156-.728-2.996a4.69 4.69 0 0 0-2.016-1.932c-.859-.467-1.885-.7-3.08-.7h-2.968v11.256zm25.217 4.872c-1.344 0-2.557-.205-3.64-.616a8.09 8.09 0 0 1-2.772-1.764c-.765-.765-1.353-1.68-1.764-2.744-.411-1.083-.616-2.287-.616-3.612V1.12h4.872V12.6c0 .915.159 1.708.476 2.38.336.672.793 1.195 1.372 1.568.597.355 1.307.532 2.128.532s1.521-.177 2.1-.532c.597-.373 1.055-.896 1.372-1.568.336-.672.504-1.465.504-2.38V1.12h4.872v11.704c0 1.325-.215 2.529-.644 3.612-.411 1.064-1.008 1.979-1.792 2.744-.765.765-1.699 1.353-2.8 1.764s-2.324.616-3.668.616zm21.566 0a10.47 10.47 0 0 1-3.276-.504c-1.008-.336-1.932-.812-2.772-1.428-.821-.616-1.531-1.344-2.128-2.184-.597-.859-1.064-1.811-1.4-2.856-.317-1.064-.476-2.193-.476-3.388s.159-2.324.476-3.388a10.96 10.96 0 0 1 1.4-2.94 9.84 9.84 0 0 1 2.184-2.296c.84-.653 1.764-1.148 2.772-1.484C67.357.737 68.44.56 69.578.56c1.064 0 2.072.149 3.024.448.971.299 1.839.728 2.604 1.288a7.74 7.74 0 0 1 1.988 1.988 8.23 8.23 0 0 1 1.26 2.604l-4.76 1.064c-.411-.933-.98-1.652-1.708-2.156s-1.559-.756-2.492-.756c-.709 0-1.372.159-1.988.476a4.68 4.68 0 0 0-1.568 1.288c-.448.541-.793 1.185-1.036 1.932-.243.728-.364 1.531-.364 2.408 0 .859.121 1.652.364 2.38a5.86 5.86 0 0 0 1.036 1.904 4.89 4.89 0 0 0 1.596 1.232c.616.28 1.288.42 2.016.42.971 0 1.82-.243 2.548-.728.747-.504 1.344-1.232 1.792-2.184l4.76 1.064a8.27 8.27 0 0 1-1.876 3.388c-.859.933-1.904 1.661-3.136 2.184-1.232.504-2.595.756-4.088.756zm9.482-.56L86.9 1.12h5.18L99.948 21h-5.04l-1.4-3.864h-8.204L83.904 21h-4.872zm7.756-7.952h5.236l-2.632-7.252-2.604 7.252z" fill="#292e37"/></svg>