<svg xmlns="http://www.w3.org/2000/svg" width="138" height="15" fill="none" xmlns:v="https://vecta.io/nano"><path d="M1.725 11.546c-.15-.687-.15-.763.3-.763.225 0 .45 0 .675-.153s.375-.534.75-.534c.525 0 .6-.687 1.2-.687h1.35c.3 0 .45-.153.675-.305s.6-.076.75-.382c.45.076.6-.382.975-.382.45-.076.675-.458 1.2-.382.375.076.75-.076 1.125 0 .525.076.75-.305 1.2-.382h1.35c.45 0 .9.076 1.35 0s.825-.382 1.35-.305 1.05 0 1.5 0c.525 0 .75-.534 1.35-.382.525.153 1.125 0 1.725 0 .525 0 1.05.076 1.5 0 .6-.076 1.125-.458 1.725-.382s1.275 0 1.874 0 1.275-.076 1.875 0c.525.076.825-.458 1.35-.382s1.125 0 1.725 0h1.5c.675-.076 1.425.229 1.95-.305h.15.375 1.725 1.5c.45-.382 1.125-.153 1.65-.229.075 0 .15-.076.15-.076-.075-.076-.15-.229-.15-.229-.675.076-1.35-.153-1.95.305-.15.076-.525 0-.75 0h-3.824c-.525 0-.75.534-1.35.382-.45-.076-.975 0-1.5 0h-1.5c-.675.076-1.2.458-1.95.382-.675-.076-1.425 0-2.099 0s-1.425.076-2.1 0c-.6-.153-.9.382-1.425.305s-.975 0-1.5 0h-1.5-1.5-1.5-1.5c-.6 0-1.2-.076-1.725 0-.675.153-.975-.382-1.575-.382H8.473c-.075 0-.225-.076-.3-.153-.375-.458-.825-.534-1.425-.611-.45-.076-.75-.458-1.125-.763.75-.382 1.425 0 1.95-.305 0-.229-.225-.305-.375-.458s-.375-.305-.525-.458c-.225-.229-.3-.382 0-.611s.225-.534.225-.763c0-.305.45-.458.45-.84 0-.305.525-.153.825-.153h1.35c.15 0 .3-.153.45-.229.3-.153.375-.153.675 0 .225.153.375.229.675.229.15 0 .375 0 .525.153.375.458.825.534 1.5.534.45 0 .75-.229 1.125-.305.225.382.675.229 1.05.229h1.35 1.125 1.35 1.125c.3 0 .525 0 .675-.229.075-.153.15-.076.3 0 .525.305.525.305.9 0 .075-.076.15-.153.3-.229-.15-.076-.3-.153-.45-.153h-1.5c-.075 0-.15-.076-.3-.153.075-.076.225-.153.3-.153h1.725c.225 0 .375-.534.675-.153.225.305.6.076.9.153.075 0 .15.076.15.153.075 1.069.9.382 1.425.534 0 0 .15-.153.15-.305s0-.382.225-.305c.075 0 .15.305.15.458.075.458.225.611.675.534.15 0 .3-.076.45-.153.525-.229 1.05-.305 1.5.076.225.153.45.076.675.153.15 0 .375 0 .375-.229 0-.076-.225-.076-.3-.153s-.3-.076-.3-.153c0-.229.15-.229.375-.229h.225c.375.076.525-.076.525-.458 0-.153.15-.229.375-.076-.15 0 .075.076.075 0 .375-.458.9-.229 1.425-.305.45 0 .825-.076 1.2.305.075.076.45.076.75 0 .225-.076.3-.382.6-.305h2.474c.075 0 .15.153.3.229.225.305.6.229.75.153.525-.382.975-.458 1.5 0 0 0 .225-.076.225-.153.3-.229.525-.153.825 0 .3.229.45.229.6 0 .3-.305.675-.153 1.05-.229.525.611 1.275.305 1.95.305.3-.382.675-.458 1.05-.076h.15c.3-.458.825-.229 1.2-.305h2.699c.45 0 1.05.153 1.35-.305.45.534.975.305 1.575.305h1.5c.3 0 .525-.076.675-.229 0 0 .075 0 .225.153.225.229.525.305.75 0 .15-.153.225-.076.45 0 .525.229 1.05.305 1.5-.076.225-.229.3 0 .375.076.3.153.3.153.675 0 .15-.076.225-.305.375-.076.3.382.825.382 1.05.229.45-.382.9-.229 1.425-.305.45 0 .9-.153 1.2.305.075.076.375 0 .45-.076.225-.076.375-.229.675-.229h2.249 20.92c.45 0 .9-.076 1.2.305.075.076.375 0 .45-.076.225-.229.375-.153.525 0 .225.153.3-.229.375-.153.9.458 1.874.229 2.849.229 1.05.076 2.174 0 3.224 0h3.074 3.074c.525 0 1.125.229 1.575-.305.15-.153.45-.076.75-.076h16.196c.45 0 .75.305 1.2.382.375.076.749-.153 1.124.076.075.076.15.153.3.229.375-.611.75-.229 1.2 0 .45.153.975 0 1.5 0s.824.534 1.349.382c.375-.076.9-.076 1.35 0 .3 0 .525.229.825.305s.675-.076.975 0 .449.305.824.382c.225 0 .45.382.825.305l.075.229c-.3.153-.225.534-.375.687-.225.229-.525.534-.975.458-.149 0-.299.076-.449.153.3.229.524.458.749.687v.153c-.449.305-.674.84-1.349.84h-.975c-.375 0-.3.305-.3.534v.153c-.375 0-.6.305-.975.382s-.6.534-.974.84c.224.076.374.153.524.153h5.699l1.65.076c.375.458.899.229 1.424.229.45.534 1.5.153 1.875.916.15.229.45.382.675.611v1.069c0 .076.075.305 0 .305-.6.382-.225.916-.375 1.374l-1.425.382c-.15-.076-.225-.382-.375-.076-.225.305-.975 0-.825.687 0 .076-.15.153-.3.153-.449-.076-.899.076-1.124.458-.225.305-.525.305-.825.229-.375-.076-.525.458-.975.382-.375-.076-.75-.076-1.125 0-.449.153-.599-.458-.899-.229s-.6.229-.9.153c-.45 0-.9.153-1.2-.305-.525 0-.975-.076-1.499-.076-.45 0-.9-.153-1.2.305-.075.076-.3.076-.375.076-.3-.153-.525-.458-.825 0h-.975-1.124-.975-1.125c-.3 0-.675-.076-.975 0s-.525.229-.824.305-.6 0-.975 0c-.525 0-1.125.076-1.575-.305-.15-.076-.6-.076-.675 0-.375.382-.749.305-1.199.305-.375 0-.75.076-1.05-.305-.15-.153-.45-.076-.75-.076H99.126c-.375 0-.675 0-1.05.305-.225.153-.75.229-.975-.153-.075-.153-.15-.153-.3 0-.225.382-.675.229-1.05.229-.3-.458-.75-.382-1.2-.305-.375 0-.75-.076-1.05.229-.15.153-.6.076-.9.076H75.282c-.75 0-1.5-.229-2.1.305-.075.076-.3 0-.3-.076-.225-.382-.675-.305-1.05-.305h-5.549-20.32c-.45 0-.825-.076-1.2.305-.15.153-.45 0-.675-.153-.375-.305-.825-.305-1.125.076-.15.153-.15.153-.3 0-.075-.076-.3-.229-.45-.229h-2.249c-.675 0-1.2.534-1.95.382-.675-.153-1.425 0-2.099 0h-2.099-2.099-2.1-2.099-2.025-2.099c-.375 0-.75-.076-1.05.229-.075.153-.45.076-.675.076H9.673c-.375 0-.75.076-1.05-.305 0 0-.375.229-.525.229H3.149c-.45 0-.9-.305-1.275-.534-.15-.076-.15-.076-.3 0-.9.611-.825.687-1.575-.076.15-.076.375-.076.525-.153.225-.076.375-.305.225-.458-.075-.076-.225-.153-.225-.229-.225-.382-.15-.534.45-.916.225-.153.225-.382.225-.611 0-.305 0-.534.525-.382.15 0 .075-.076 0-.076h-.15v.153c.075.076.15.153.225.153 0 0 .075-.076-.075-.229zm114.197-4.58h1.5c.075 0 .15-.153.15-.229 0 0-.075-.076-.15-.076h-2.625c-.075 0-.15.153-.15.229 0 0 .075.076.15.076h1.125zM11.397 3.225c.15-.076.3-.076.375-.153v-.076c-.15-.153-.525-.153-.6 0-.075.076.15.153.225.229z" fill="#e3c300"/></svg>