<svg xmlns="http://www.w3.org/2000/svg" width="32" height="32" fill="none" xmlns:v="https://vecta.io/nano"><path fill-rule="evenodd" d="M30.667 0H1.334c-.175 0-.349.034-.51.101S.515.266.391.39.169.661.102.823 0 1.158 0 1.333v29.334c0 .175.035.349.102.51s.165.309.289.433a1.33 1.33 0 0 0 .433.289c.162.067.335.101.51.101H17V20h-4v-5h4v-4c0-4.133 2.617-6.167 6.3-6.167a34.44 34.44 0 0 1 3.726.19v4.32h-2.553C22.468 9.344 22 10.3 22 11.695V15h5l-1 5h-4l.08 12h8.587c.353 0 .693-.14.943-.39s.39-.589.39-.943V1.333c0-.354-.14-.693-.39-.943S31.021 0 30.667 0z" fill="#fff"/></svg>