<svg xmlns="http://www.w3.org/2000/svg" width="32" height="33" fill="none" xmlns:v="https://vecta.io/nano"><path d="M16.163 32.043h-.021c-.285 0-2.193-.017-14.808-.041-.354 0-.693-.141-.943-.391S0 31.021 0 30.667V1.333C.001.979.141.641.391.391S.98 0 1.334 0h29.333c.353 0 .692.141.942.391s.39.589.391.942v29.334c0 .353-.141.692-.391.942s-.589.39-.942.391l-14.484.041-.02.002zM16.5 6A10.51 10.51 0 0 0 6 16.5 10.51 10.51 0 0 0 16.5 27 10.51 10.51 0 0 0 27 16.5 10.51 10.51 0 0 0 16.5 6zm11-4A2.5 2.5 0 0 0 25 4.5 2.5 2.5 0 0 0 27.5 7a2.5 2.5 0 0 0 1.768-.732A2.5 2.5 0 0 0 30 4.5 2.5 2.5 0 0 0 27.5 2zm-11 21a6.51 6.51 0 0 1-6.5-6.5c.002-1.723.687-3.376 1.906-4.594S14.777 10.002 16.5 10s3.375.687 4.594 1.906S22.998 14.777 23 16.5a6.51 6.51 0 0 1-6.5 6.5z" fill="#fff"/></svg>