<svg xmlns="http://www.w3.org/2000/svg" width="132" height="38" fill="#fff" xmlns:v="https://vecta.io/nano"><path d="M94.71.99v6.02c0 1.22-.32 2.12-.98 2.7-.65.58-1.62.87-2.92.87a7.41 7.41 0 0 1-2.02-.27c-.64-.18-1.16-.44-1.56-.77l.65-.97c.35.28.78.5 1.3.66a5.33 5.33 0 0 0 1.59.24c.88 0 1.53-.19 1.95-.58s.63-.97.63-1.76v-.55a2.97 2.97 0 0 1-1.18.81c-.47.18-.97.27-1.52.27-.72 0-1.37-.14-1.95-.43s-1.04-.68-1.37-1.2c-.33-.51-.5-1.1-.5-1.76s.17-1.24.5-1.76c.33-.51.79-.91 1.37-1.19S89.93.9 90.65.9a4.31 4.31 0 0 1 1.58.29c.49.19.88.48 1.2.85V.96h1.28v.03zm-2.59 5.28c.39-.19.7-.46.92-.81s.33-.74.33-1.18c0-.68-.24-1.22-.72-1.64s-1.1-.62-1.85-.62c-.76 0-1.39.21-1.87.62-.48.42-.72.96-.72 1.64 0 .44.11.83.33 1.18s.53.62.92.81.84.29 1.34.29c.49 0 .93-.09 1.32-.29zm7.53-5.03c.46-.21 1.02-.32 1.68-.32v1.22c-.07-.01-.18-.01-.31-.01-.74 0-1.31.2-1.73.61s-.63.99-.63 1.74v3.47H97.3V.98h1.3v1.17a2.24 2.24 0 0 1 1.05-.91zm10.03 3.65h-6.09a2.12 2.12 0 0 0 .87 1.48c.49.37 1.11.56 1.85.56.9 0 1.62-.28 2.17-.84l.75.82c-.34.37-.76.65-1.27.84s-1.07.29-1.69.29c-.79 0-1.5-.15-2.11-.45s-1.09-.73-1.42-1.27-.5-1.16-.5-1.84c0-.67.16-1.28.49-1.83.33-.54.77-.97 1.35-1.27.57-.3 1.22-.45 1.93-.45.72 0 1.36.15 1.92.45a3.36 3.36 0 0 1 1.32 1.27c.32.54.47 1.17.47 1.87l-.04.37zm-5.31-2.35c-.44.37-.7.85-.77 1.45h4.81c-.07-.59-.33-1.07-.77-1.44s-.98-.56-1.63-.56-1.2.18-1.64.55zm13.98 2.35h-6.09a2.12 2.12 0 0 0 .87 1.48c.49.37 1.11.56 1.85.56.9 0 1.62-.28 2.17-.84l.75.82c-.34.37-.76.65-1.27.84s-1.07.29-1.69.29c-.79 0-1.5-.15-2.11-.45s-1.09-.73-1.42-1.27-.5-1.16-.5-1.84c0-.67.16-1.28.49-1.83.33-.54.77-.97 1.35-1.27.57-.3 1.22-.45 1.93-.45.72 0 1.36.15 1.92.45a3.36 3.36 0 0 1 1.32 1.27c.32.54.47 1.17.47 1.87l-.04.37zm-5.32-2.35c-.44.37-.7.85-.77 1.45h4.81c-.07-.59-.33-1.07-.77-1.44s-.98-.56-1.63-.56-1.2.18-1.64.55zm13.51-.85c.56.51.84 1.26.84 2.26v4.01h-1.36V4.09c0-.67-.17-1.18-.52-1.53-.35-.34-.85-.51-1.5-.51-.74 0-1.32.2-1.74.6s-.64.97-.64 1.72v3.59h-1.36V.99h1.3v1.05c.27-.36.64-.64 1.11-.83a4.21 4.21 0 0 1 1.59-.29c.96 0 1.72.26 2.28.77zM0 24.13C0 13.24 6.87 3.25 17.35 3.25c7.27 0 11.67 5.12 11.67 13.19 0 10.89-6.82 20.88-17.27 20.88C4.46 37.32 0 32.16 0 24.13zm23.03-8.12c0-5.13-2-8.05-6.23-8.05-6.57 0-10.79 8.13-10.79 16.57 0 5.14 2.02 8.08 6.3 8.08 6.57 0 10.72-8.14 10.72-16.6zm6.681 14.111c0-.88.11-1.82.4-2.9l5.05-21.73h-8.18l.96-4.26h13.92l-6.09 26.48c-.14.59-.25 1.25-.25 2.03 0 2.18 1.47 3.11 3.53 3.11 1.67 0 2.97-.37 4.8-1.2l1.29 4.06a18.83 18.83 0 0 1-7.8 1.61c-4.44 0-7.63-2.55-7.63-7.2zm19.649.549c0-.91.18-1.82.44-2.86l2.93-11.52h-9.24l.96-4.26h15.01l-3.94 16.14c-.14.5-.22 1-.22 1.43 0 2.31 1.46 3.25 3.61 3.25 1.46 0 2.82-.43 4.61-1.13l1.25 4.06c-2.28.94-4.53 1.53-7.61 1.53-4.67.01-7.8-2.4-7.8-6.64zm3.83-26.54c0-2.21 2.07-4.13 4.59-4.13 2.33 0 3.95 1.19 3.95 3.32 0 2.35-2.09 4.13-4.64 4.13-2.09.01-3.9-1.11-3.9-3.32zm38.93 7.899h-5.73l-7.94 13.18-4.22 7.42h-.22l-1.22-7.39-2.6-13.21h-5.74l5.43 24.68h6.81l6.71-10.65c.15-6.15 3.6-11.36 8.72-14.03zM41.97 28.141c-.02-1.07-.43-1.51-1.04-4.93-.17-.94-.48-3.84-.42-6.32-.31 2.45-1.05 5.29-1.36 6.2-1.11 3.3-1.59 3.69-1.77 4.74l-.06.49c-.1 1.27.64 2.12 1.6 2.41.17.05.35.09.54.1a2.54 2.54 0 0 0 .55-.03c.99-.15 1.85-.91 1.94-2.18.02-.17.02-.33.02-.48zm62.51 5.089l-.43-.44 2.22-2.31-.14-.25c-2.46 1.66-5.24 2.89-8.51 2.89-4.09 0-7.07-2.16-7.07-6.86l.02-.44h19.15c.16-.41.38-1.23.55-2.2-1.39-1.31-2.05-2.86-2.05-4.71 0-1.21.28-2.32.81-3.31-1.68-2.59-4.74-4.18-8.97-4.18-8.091 0-15.291 6.19-15.291 15.08 0 7.2 4.72 10.81 11.58 10.81 3.86 0 7.37-.99 10.11-2.46-.72-.49-1.39-1.02-1.98-1.62zm-4.64-17.62c3.26 0 5.32 1.94 5.32 5.26a6.86 6.86 0 0 1-.12 1.19H91.29c1.55-4.12 5.28-6.45 8.55-6.45zm5.66 17.18l3.27-3.4c2.66 2.65 6.15 3.85 9.7 3.85 3.08 0 5.19-.95 5.19-2.97 0-1.9-1.93-2.66-6.09-3.92-5.45-1.67-8.14-3.83-8.14-7.43 0-4.99 4.91-7.49 10.6-7.49 5.13 0 8.81 1.85 11.16 4.03l-3.2 3.24c-2.16-1.7-5.13-3.18-8.59-3.18-2.77 0-4.49.99-4.49 2.75 0 1.8 1.87 2.62 6.06 3.96 4.86 1.51 8.17 3.3 8.17 7.32 0 5.46-5.14 7.78-11.67 7.78-4.78-.01-9.25-1.79-11.97-4.54z"/></svg>