<svg xmlns="http://www.w3.org/2000/svg" width="147" height="42" fill="none" xmlns:v="https://vecta.io/nano"><path d="M105.833 1.296v6.711c0 1.36-.356 2.363-1.092 3.01-.725.647-1.806.97-3.255.97-.792 0-1.539-.1-2.252-.301s-1.293-.491-1.739-.858l.725-1.081c.39.312.87.557 1.449.736.568.178 1.17.268 1.772.268.981 0 1.706-.212 2.174-.647s.702-1.081.702-1.962V7.55a3.31 3.31 0 0 1-1.315.903c-.524.201-1.082.301-1.695.301-.802 0-1.527-.156-2.174-.479s-1.159-.758-1.527-1.338c-.368-.569-.557-1.226-.557-1.962a3.57 3.57 0 0 1 .557-1.962c.368-.569.881-1.014 1.527-1.327s1.371-.468 2.174-.468c.636 0 1.215.111 1.762.323a3.32 3.32 0 0 1 1.337.948V1.285h1.427v.011zm-2.887 5.897c.435-.212.78-.513 1.026-.903s.368-.825.368-1.315c0-.758-.268-1.36-.803-1.828s-1.226-.691-2.062-.691c-.848 0-1.55.234-2.085.691-.535.468-.803 1.07-.803 1.828a2.41 2.41 0 0 0 .368 1.315 2.45 2.45 0 0 0 1.026.903c.435.212.936.323 1.494.323.546 0 1.036-.111 1.471-.323zm8.394-5.618c.513-.234 1.138-.357 1.873-.357v1.36c-.078-.011-.2-.011-.345-.011-.825 0-1.461.223-1.929.68s-.702 1.104-.702 1.94v3.868h-1.516v-7.77h1.449v1.304a2.56 2.56 0 0 1 1.17-1.014zm11.182 4.08h-6.789c.089.68.412 1.237.969 1.65.547.412 1.238.624 2.063.624 1.003 0 1.806-.312 2.419-.936l.836.914c-.379.412-.847.725-1.416.936s-1.193.323-1.884.323c-.881 0-1.672-.167-2.352-.502s-1.215-.814-1.583-1.416-.557-1.293-.557-2.051c0-.747.178-1.427.546-2.04.368-.602.858-1.081 1.505-1.416.635-.334 1.36-.502 2.151-.502.803 0 1.516.167 2.141.502a3.74 3.74 0 0 1 1.471 1.416c.357.602.524 1.304.524 2.085l-.044.412zm-5.92-2.631c-.49.412-.78.948-.858 1.616h5.362a2.39 2.39 0 0 0-.859-1.605c-.49-.412-1.092-.624-1.817-.624s-1.337.212-1.828.613zm15.586 2.631h-6.789c.089.68.412 1.237.969 1.65.547.412 1.238.624 2.063.624 1.003 0 1.806-.312 2.419-.936l.836.914c-.379.412-.847.725-1.416.936s-1.193.323-1.884.323c-.881 0-1.672-.167-2.352-.502s-1.215-.814-1.583-1.416-.557-1.293-.557-2.051c0-.747.178-1.427.546-2.04.368-.602.858-1.081 1.505-1.416.635-.334 1.36-.502 2.151-.502.803 0 1.516.167 2.141.502a3.74 3.74 0 0 1 1.471 1.416c.357.602.524 1.304.524 2.085l-.044.412zm-5.931-2.631a2.39 2.39 0 0 0-.858 1.616h5.362a2.39 2.39 0 0 0-.859-1.605c-.49-.412-1.092-.624-1.817-.624s-1.338.212-1.828.613zm15.06-.937c.625.569.937 1.405.937 2.519v4.47h-1.516V4.762c0-.747-.19-1.315-.58-1.706-.39-.379-.948-.569-1.672-.569-.825 0-1.472.223-1.94.669s-.713 1.081-.713 1.917v4.002h-1.517v-7.77h1.45v1.171c.301-.401.713-.713 1.237-.925s1.115-.323 1.773-.323c1.07 0 1.917.279 2.541.858z" fill="#000"/><path d="M.251 27.103c0-12.14 7.659-23.277 19.342-23.277 8.104 0 13.01 5.708 13.01 14.704 0 12.14-7.603 23.277-19.253 23.277C5.223 41.796.251 36.055.251 27.103zm25.674-9.052c0-5.719-2.23-8.974-6.945-8.974-7.324 0-12.029 9.063-12.029 18.472 0 5.73 2.252 9.008 7.023 9.008 7.324-.011 11.951-9.075 11.951-18.506zm7.447 15.719c0-.981.123-2.029.446-3.233l5.63-24.224h-9.119l1.07-4.749h15.518l-6.789 29.531a9.58 9.58 0 0 0-.279 2.263c0 2.43 1.639 3.467 3.935 3.467 1.862 0 3.311-.413 5.351-1.338l1.438 4.515a20.99 20.99 0 0 1-8.695 1.795c-4.95 0-8.506-2.832-8.506-8.027zm21.905.613c0-1.015.201-2.029.491-3.188l3.266-12.842H48.733l1.07-4.749h16.733l-4.392 17.993c-.156.557-.245 1.115-.245 1.594 0 2.575 1.628 3.623 4.024 3.623 1.628 0 3.144-.479 5.139-1.26l1.394 4.526c-2.542 1.048-5.05 1.706-8.484 1.706-5.206.011-8.696-2.664-8.696-7.402zm4.27-29.576c0-2.464 2.308-4.604 5.117-4.604 2.598 0 4.404 1.327 4.404 3.701 0 2.62-2.33 4.604-5.173 4.604-2.33 0-4.348-1.249-4.348-3.701zm43.399 8.796h-6.387l-8.863 14.693-4.704 8.272h-.245l-1.36-8.238-2.899-14.727h-6.399l6.064 27.524h7.592l7.48-11.873c.167-6.856 4.013-12.675 9.721-15.652zM47.039 31.574c-.022-1.193-.479-1.683-1.159-5.496-.189-1.048-.535-4.281-.468-7.046-.346 2.731-1.171 5.897-1.516 6.912-1.237 3.679-1.773 4.114-1.973 5.284l-.067.546c-.111 1.416.714 2.363 1.784 2.687a2.62 2.62 0 0 0 .602.111 2.83 2.83 0 0 0 .613-.033c1.104-.167 2.062-1.014 2.163-2.43.022-.19.022-.368.022-.535zm69.686 5.674l-.491-.491 2.475-2.575-.156-.279c-2.742 1.85-5.841 3.222-9.487 3.222-4.559 0-7.881-2.408-7.881-7.647 0-.167.022-.323.022-.491h21.348c.179-.457.424-1.371.614-2.453-1.55-1.46-2.286-3.188-2.286-5.251 0-1.349.312-2.586.903-3.69-1.873-2.887-5.284-4.66-10-4.66-9.018 0-17.045 6.901-17.045 16.811 0 8.026 5.262 12.051 12.91 12.051 4.303 0 8.216-1.104 11.27-2.742-.791-.546-1.538-1.148-2.196-1.806zm-5.173-19.643c3.635 0 5.931 2.163 5.931 5.864a7.65 7.65 0 0 1-.134 1.327h-15.328c1.728-4.604 5.886-7.19 9.531-7.19zm6.31 19.142l3.646-3.79c2.965 2.954 6.856 4.292 10.813 4.292 3.434 0 5.786-1.059 5.786-3.311 0-2.118-2.152-2.965-6.789-4.37-6.076-1.862-9.075-4.27-9.075-8.283 0-5.563 5.474-8.35 11.817-8.35 5.719 0 9.822 2.062 12.441 4.493l-3.567 3.612c-2.408-1.895-5.719-3.545-9.576-3.545-3.088 0-5.005 1.104-5.005 3.066 0 2.007 2.084 2.921 6.755 4.415 5.418 1.683 9.108 3.679 9.108 8.16 0 6.087-5.73 8.673-13.01 8.673-5.328-.011-10.311-1.995-13.344-5.061z" fill="#687c35"/></svg>