<svg width="107" height="20" viewBox="0 0 107 20" fill="none" xmlns="http://www.w3.org/2000/svg">
<g clip-path="url(#clip0_130_1644)">
<path fill-rule="evenodd" clip-rule="evenodd" d="M104.594 0.5H89.8938L95.2629 7.77508L87.7018 17.0025C86.9199 17.9563 87.7353 19.2532 89.1162 19.2532H107L98.578 7.84145L96.9814 5.67814L94.8774 2.82705H99.3177L97.9793 4.46059L99.6189 6.54365L104.594 0.5ZM96.86 9.93831L102.017 16.9263H91.1334L96.86 9.93831ZM4.84329 2.8994C4.84103 2.89771 4.83863 2.89609 4.83615 2.89458C4.82213 2.88615 4.80492 2.88121 4.7863 2.88121H0.358821C0.311627 2.88121 0.273341 2.84922 0.273341 2.80982V0.964952C0.273341 0.925553 0.311627 0.893564 0.358821 0.893564H12.5753C12.6225 0.893564 12.6608 0.925553 12.6608 0.964952V1.89419C12.6608 2.43927 12.1731 2.88121 11.5717 2.88121H8.13426C8.11098 2.88121 8.08991 2.88898 8.0745 2.90157C8.05868 2.91452 8.04882 2.93259 8.04882 2.95259V9.29582H4.9572C4.91002 9.29582 4.87174 9.26384 4.87174 9.22443V2.95259C4.87174 2.93145 4.86077 2.91247 4.84329 2.8994ZM27.7737 0.893564C27.8208 0.893564 27.8591 0.925553 27.8591 0.964952V2.73078C27.8591 2.77018 27.8208 2.80217 27.7737 2.80217H16.1824C16.1351 2.80217 16.0969 2.8341 16.0969 2.87349V3.97305C16.0969 4.01243 16.1351 4.04444 16.1824 4.04444H27.3416C27.5303 4.04444 27.6833 4.17221 27.6833 4.32991V5.67873C27.6833 5.83646 27.5303 5.9643 27.3416 5.9643H16.1824C16.1548 5.9643 16.1302 5.97521 16.1146 5.99218C16.1119 5.99507 16.1094 5.99821 16.1073 6.00146C16.1036 6.00714 16.1009 6.01321 16.0991 6.0196C16.0983 6.02231 16.0978 6.02508 16.0974 6.02791C16.0971 6.03043 16.0969 6.03302 16.0969 6.03569V7.27071C16.0969 7.31012 16.1351 7.34205 16.1824 7.34205H27.909C27.9561 7.34205 27.9945 7.37403 27.9945 7.41343V7.8682C27.9945 8.65665 27.2291 9.29582 26.2853 9.29582H15.5511C14.1352 9.29582 12.9875 8.33701 12.9875 7.15439V3.03499C12.9875 1.85232 14.1352 0.893564 15.5511 0.893564H27.7737ZM29.3005 0.964952C29.3005 0.925553 29.3389 0.893564 29.386 0.893564H33.7251C33.7561 0.893564 33.7847 0.907661 33.8 0.930313L37.1752 6.01015C37.2079 6.05913 37.292 6.05918 37.3247 6.01027L40.7136 0.930192C40.7286 0.907602 40.7571 0.893564 40.7882 0.893564H44.965C44.9764 0.893564 44.987 0.895432 44.9971 0.898805C45.0105 0.903264 45.0219 0.910432 45.0309 0.919468C45.0431 0.931818 45.0505 0.947662 45.0505 0.964952V7.8682C45.0505 8.65665 44.2854 9.29582 43.3415 9.29582H42.0264C41.9962 9.29582 41.9695 9.28264 41.9543 9.26275C41.9458 9.25167 41.9409 9.23854 41.9409 9.22443V3.74954C41.9409 3.67628 41.8247 3.65057 41.7814 3.71423L38.0045 9.25974C37.9893 9.2821 37.961 9.29582 37.9302 9.29582H36.3396C36.3092 9.29582 36.2806 9.2821 36.2656 9.25974L32.4887 3.71423C32.4452 3.65057 32.3289 3.67628 32.3289 3.74954V9.22443C32.3289 9.26384 32.2905 9.29582 32.2434 9.29582H29.386C29.3389 9.29582 29.3005 9.26384 29.3005 9.22443V0.964952ZM49.8312 6.49509C49.7841 6.49509 49.7457 6.52702 49.7457 6.56643V7.8682C49.7457 8.65665 48.9806 9.29582 48.0367 9.29582H46.6813C46.634 9.29582 46.5959 9.26384 46.5959 9.22443V0.964952C46.5959 0.925553 46.634 0.893564 46.6813 0.893564H54.1395C55.0407 0.893564 55.7935 0.965073 56.3974 1.10815C57.0013 1.24363 57.4832 1.43563 57.8437 1.68413C58.2044 1.93257 58.4565 2.22239 58.6008 2.55367C58.7541 2.88494 58.8306 3.24259 58.8306 3.62659V3.73948C58.8306 4.11595 58.7541 4.47354 58.6008 4.81233C58.4475 5.1436 58.1908 5.43351 57.8303 5.68194C57.4698 5.93037 56.9877 6.1299 56.3838 6.28052C55.7889 6.42358 55.0407 6.49509 54.1395 6.49509H49.8312ZM49.7457 4.5377C49.7457 4.57708 49.7841 4.60908 49.8312 4.60908H54.0853C54.5811 4.60908 54.9462 4.53377 55.1806 4.38323C55.4238 4.23264 55.5455 4.01431 55.5455 3.72822V3.69429C55.5455 3.40821 55.4284 3.18988 55.194 3.03934C54.9598 2.88121 54.5901 2.80217 54.0853 2.80217H49.8312C49.8203 2.80217 49.8097 2.80391 49.8001 2.80711C49.7914 2.80994 49.7833 2.81391 49.7762 2.81885C49.7577 2.83193 49.7457 2.85157 49.7457 2.87349V4.5377ZM79.2276 9.44263C78.3531 9.44263 77.5962 9.39373 76.9564 9.29582C76.3252 9.19793 75.7935 9.06991 75.3612 8.91184C74.9285 8.74617 74.5765 8.5617 74.3061 8.35845C74.0445 8.14767 73.8417 7.93315 73.6982 7.71477C73.5536 7.48884 73.4591 7.26674 73.4139 7.04841C73.369 6.83011 73.3464 6.62683 73.3464 6.43859V6.31437H76.6318C76.64 6.44239 76.6765 6.5854 76.7396 6.74347C76.8115 6.89407 76.9512 7.03716 77.1592 7.1727C77.3751 7.30819 77.6768 7.42108 78.065 7.51144C78.4519 7.60181 78.9703 7.64699 79.6194 7.64699H79.8086C80.4659 7.64699 80.9894 7.62441 81.3768 7.57923C81.773 7.5265 82.0706 7.45874 82.2691 7.37595C82.4762 7.28559 82.6069 7.1877 82.6614 7.08234C82.6712 7.06583 82.6804 7.0492 82.6886 7.03252C82.6938 7.0224 82.6984 7.01221 82.7028 7.00197C82.7079 6.9904 82.7126 6.97883 82.7169 6.96716C82.7199 6.95931 82.7226 6.95149 82.7251 6.94359C82.7325 6.92161 82.7384 6.89945 82.7431 6.87709C82.7485 6.85168 82.7521 6.82601 82.7542 6.80015C82.7553 6.7851 82.7559 6.76998 82.7559 6.7548C82.7559 6.63431 82.724 6.52522 82.6614 6.42731C82.6069 6.32942 82.4899 6.24286 82.3096 6.16755C82.1294 6.09224 81.8639 6.03581 81.5122 5.99816C81.1609 5.95298 80.6962 5.92285 80.1198 5.90779L78.3893 5.87394C77.4513 5.85134 76.6669 5.7723 76.0367 5.63676C75.4055 5.50127 74.9008 5.32435 74.5229 5.10602C74.1439 4.88012 73.8735 4.62414 73.7115 4.33805C73.558 4.05196 73.4817 3.74328 73.4817 3.41201V3.31037C73.4817 2.99416 73.5487 2.68542 73.6846 2.38426C73.8286 2.07558 74.0989 1.80082 74.4959 1.55985C74.9008 1.31894 75.46 1.12321 76.1717 0.972602C76.8837 0.822057 77.8121 0.746753 78.9572 0.746753H79.89C81.0795 0.746753 82.0529 0.825791 82.8098 0.983928C83.5667 1.14201 84.1616 1.34906 84.5947 1.60503C85.0274 1.85353 85.3247 2.13582 85.487 2.45204C85.6489 2.76825 85.7304 3.08447 85.7304 3.40068C85.7304 3.43079 85.7162 3.45815 85.6931 3.47846C85.6683 3.50012 85.6334 3.51362 85.5945 3.51362H82.4585C82.4398 3.43079 82.3992 3.3329 82.3366 3.22001C82.2827 3.10705 82.1563 2.99788 81.9584 2.89247C81.7686 2.78711 81.4852 2.69674 81.1062 2.62144C80.7283 2.54614 80.2091 2.50854 79.5519 2.50854H79.3351C78.7223 2.50854 78.2404 2.53108 77.8891 2.57626C77.5461 2.61391 77.2893 2.66662 77.1184 2.7344C76.9468 2.80217 76.8385 2.88121 76.7941 2.97158C76.7886 2.9815 76.7835 2.99152 76.7786 3.00151C76.7767 3.00578 76.7745 3.01012 76.7726 3.01446C76.7704 3.01923 76.7685 3.02399 76.7666 3.0288C76.7543 3.05844 76.7448 3.08856 76.7383 3.11916C76.7304 3.15585 76.7266 3.19321 76.7266 3.23126C76.7266 3.32165 76.7483 3.40821 76.7941 3.49104C76.848 3.57388 76.9564 3.64911 77.1184 3.7169C77.2806 3.78466 77.5148 3.84111 77.8213 3.88629C78.1276 3.92395 78.5377 3.94653 79.0517 3.95405L80.7414 3.97665C81.688 3.99171 82.4942 4.05196 83.1618 4.15738C83.8373 4.26274 84.3862 4.41708 84.8106 4.62034C85.2433 4.82366 85.5588 5.07964 85.7568 5.38831C85.9552 5.69699 86.0541 6.05839 86.0541 6.47249V6.63063C86.0541 6.9769 85.9814 7.31945 85.8382 7.65826C85.7029 7.98953 85.4235 8.29074 84.9999 8.5617C84.5852 8.82521 83.9906 9.03978 83.2155 9.20545C82.4398 9.3636 81.4218 9.44263 80.1604 9.44263H79.2276ZM65.9106 9.43247C65.0241 9.43247 64.2574 9.35654 63.6102 9.20469C62.963 9.04479 62.409 8.83703 61.948 8.58129C61.4958 8.32551 61.1236 8.0338 60.8309 7.70608C60.5472 7.37042 60.3213 7.03077 60.1527 6.68709C59.9932 6.33539 59.8824 5.98772 59.8203 5.64404C59.7672 5.30036 59.7405 4.98866 59.7405 4.70889V0.87013H62.8522V4.54108C62.8522 4.82884 62.8966 5.12453 62.9851 5.42825C63.0739 5.73193 63.2378 6.0117 63.4771 6.26744C63.7164 6.5152 64.0488 6.71902 64.4744 6.87889C64.8999 7.03871 65.4496 7.11866 66.1235 7.11866C66.7884 7.11866 67.3291 7.03871 67.7456 6.87889C68.1712 6.71902 68.5036 6.5152 68.743 6.26744C68.9823 6.0117 69.1462 5.73193 69.2349 5.42825C69.3237 5.12453 69.3678 4.82884 69.3678 4.54108V0.87013H72.4662V4.70889C72.4662 4.98866 72.4308 5.30036 72.3597 5.64404C72.2979 5.98772 72.1825 6.33539 72.0142 6.68709C71.8457 7.03077 71.6151 7.37042 71.3227 7.70608C71.039 8.0338 70.6711 8.32551 70.2189 8.58129C69.7669 8.83703 69.2262 9.04479 68.5967 9.20469C67.9673 9.35654 67.2316 9.43247 66.3892 9.43247H65.9106ZM19.1245 19.3026C18.3025 19.3026 17.5821 19.2387 16.9636 19.1108C16.3451 18.9755 15.812 18.7988 15.3644 18.5807C14.9167 18.3626 14.5464 18.1106 14.2534 17.8249C13.9604 17.5391 13.7244 17.2421 13.5453 16.9338C13.3744 16.6179 13.2523 16.3021 13.179 15.9862C13.1058 15.6629 13.0692 15.3621 13.0692 15.0838V14.768C13.0692 14.4972 13.0976 14.2078 13.1547 13.8994C13.2197 13.5836 13.3337 13.2715 13.4965 12.9631C13.6674 12.6548 13.8953 12.3616 14.1801 12.0833C14.4731 11.7976 14.8475 11.5456 15.3033 11.3275C15.7591 11.1094 16.3084 10.9365 16.9514 10.8086C17.5944 10.6808 18.3513 10.6169 19.2222 10.6169H22.4698C23.3162 10.6169 24.0528 10.6695 24.6795 10.7748C25.3062 10.8801 25.8393 11.0192 26.2787 11.1921C26.7183 11.3652 27.0804 11.5644 27.3653 11.79C27.6503 12.0081 27.8741 12.2337 28.0367 12.4668C28.1995 12.6999 28.3136 12.9331 28.3786 13.1662C28.4437 13.3993 28.4805 13.6099 28.4886 13.7979V13.8091H25.4608C25.4512 13.7827 25.4319 13.742 25.4027 13.687C25.3822 13.6483 25.3568 13.6026 25.3265 13.5497C25.2533 13.4144 25.1027 13.279 24.8748 13.1436C24.6551 13.0007 24.3336 12.8767 23.9104 12.7714C23.4953 12.6661 22.9337 12.6134 22.2256 12.6134C18.8111 12.6134 18.2414 12.6774 17.7938 12.8053C17.3462 12.9331 16.9921 13.1023 16.7317 13.3129C16.4794 13.5234 16.3003 13.7641 16.1945 14.0347C16.0969 14.3055 16.048 14.5875 16.048 14.8808V15.0049C16.048 15.2756 16.109 15.5463 16.2311 15.817C16.3532 16.0877 16.5485 16.3322 16.8171 16.5502C17.0939 16.7608 17.4479 16.9338 17.8793 17.0692C18.3187 17.197 18.8518 17.2609 22.2012 17.2609C22.8768 17.2609 23.4383 17.212 23.8859 17.1142C24.3417 17.009 24.7039 16.8886 24.9724 16.7533C25.2411 16.6179 25.4324 16.4863 25.5463 16.3585C25.6165 16.2751 25.6651 16.2059 25.692 16.1511C25.7088 16.1169 25.7172 16.0883 25.7172 16.0652V16.0426H23.9073C22.938 16.0426 22.1523 15.3306 22.1523 14.4522H27.1882C27.94 14.4522 28.5496 15.0045 28.5496 15.6859V19.156H26.8403C26.8323 19.0808 26.8159 18.9867 26.7915 18.874C26.7671 18.7611 26.7386 18.6446 26.7061 18.5243C26.6879 18.453 26.6685 18.3841 26.6478 18.3175C26.6314 18.2646 26.6142 18.2132 26.5962 18.1633L26.5842 18.1285L26.5784 18.1118L26.5645 18.0728C26.5482 18.0277 26.5319 17.9851 26.5156 17.9448C26.5018 17.9106 26.488 17.8782 26.4741 17.8475C26.3765 17.9527 26.2258 18.0881 26.0223 18.2535C25.819 18.4189 25.5422 18.5807 25.1922 18.7386C24.8504 18.889 24.4231 19.0206 23.9104 19.1334C23.4057 19.2462 22.8034 19.3026 22.1035 19.3026H19.1245ZM3.62866 17.6219H9.13464L9.95149 19.0882C9.97463 19.1297 10.0216 19.156 10.073 19.156H12.6058C12.7082 19.156 12.7739 19.0574 12.7263 18.9752L8.19462 10.7635H4.50767L0.0148348 18.9777C-0.0300331 19.0597 0.035773 19.156 0.136809 19.156H2.72531C2.77756 19.156 2.82515 19.1288 2.84789 19.0862L3.62866 17.6219ZM6.32672 12.5796L4.642 15.7268H8.08473L6.32672 12.5796ZM44.745 10.8126C44.745 10.7726 44.7061 10.7403 44.6584 10.7403H32.2747C30.8402 10.7403 29.6773 11.7117 29.6773 12.91V17.0835C29.6773 18.2818 30.8402 19.2532 32.2747 19.2532H43.1503C44.1065 19.2532 44.882 18.6056 44.882 17.8068V17.346C44.882 17.3061 44.843 17.2737 44.7954 17.2737H32.9143C32.8664 17.2737 32.8277 17.2413 32.8277 17.2014V15.9501C32.8277 15.9404 32.8299 15.9311 32.8342 15.9226C32.837 15.9169 32.8405 15.9117 32.8449 15.9068C32.85 15.901 32.8563 15.8958 32.8634 15.8915C32.8683 15.8885 32.8737 15.8859 32.8794 15.8838C32.8901 15.88 32.9018 15.8778 32.9143 15.8778H44.2206C44.4118 15.8778 44.5669 15.7483 44.5669 15.5885V14.2219C44.5669 14.0622 44.4118 13.9326 44.2206 13.9326H32.9143C32.8963 13.9326 32.88 13.9282 32.8661 13.9205C32.843 13.9074 32.8277 13.8853 32.8277 13.8603V12.7463C32.8277 12.7263 32.8375 12.7082 32.853 12.6951C32.8688 12.6821 32.8903 12.674 32.9143 12.674H44.6584C44.7061 12.674 44.745 12.6416 44.745 12.6016V10.8126ZM50.1034 11.2721C49.7457 10.9465 49.2597 10.7635 48.7527 10.7635H46.3707V19.156H49.1786V13.8416L55.8882 19.156H58.6961V10.7635H57.292H55.8882V15.7959L50.1034 11.2721ZM63.5196 19.0996C64.1626 19.2349 64.9236 19.3026 65.8025 19.3026H67.6645C68.527 19.3026 69.276 19.2425 69.9107 19.1221C70.5538 19.0018 71.0991 18.8476 71.5467 18.6596C72.0025 18.4641 72.3728 18.246 72.6576 18.0054C72.9426 17.7572 73.1664 17.509 73.329 17.2609C73.4918 17.0052 73.6018 16.757 73.6587 16.5164C73.7238 16.2757 73.7564 16.0689 73.7564 15.896V15.7719H70.7408C70.7248 15.817 70.6798 15.9223 70.6066 16.0877C70.5415 16.2456 70.3951 16.4149 70.1672 16.5953C69.9393 16.7683 69.6096 16.9225 69.1783 17.0578C68.747 17.1932 68.1649 17.2609 67.4325 17.2609C66.7731 17.2609 64.8626 17.1895 64.4229 17.0466C63.9917 16.8961 63.6459 16.7082 63.3853 16.4826C63.1329 16.257 62.9541 16.0088 62.8481 15.7381C62.7504 15.4673 62.7017 15.2079 62.7017 14.9598V14.8244C62.7017 14.5612 62.7463 14.3017 62.8359 14.0461C62.9336 13.7829 63.1046 13.5497 63.3488 13.3467C63.601 13.1361 63.9429 12.9669 64.3742 12.839C64.8055 12.7112 66.7244 12.6473 67.408 12.6473C68.1325 12.6473 68.7062 12.7112 69.1296 12.839C69.5608 12.9594 69.8905 13.1023 70.1184 13.2677C70.3545 13.4256 70.5089 13.5836 70.5824 13.7415C70.6635 13.8919 70.7125 13.9934 70.7289 14.0461H73.7442V13.922C73.7442 13.7565 73.7156 13.561 73.6587 13.3354C73.6018 13.1098 73.4918 12.8767 73.329 12.636C73.1746 12.3878 72.9546 12.1435 72.6698 11.9028C72.3932 11.6622 72.0311 11.4479 71.5832 11.2598C71.1356 11.0643 70.5903 10.9102 69.9474 10.7974C69.3044 10.6771 68.5434 10.6169 67.6645 10.6169H65.8025C64.9073 10.6169 64.1341 10.6846 63.4831 10.82C62.84 10.9553 62.2906 11.1358 61.8348 11.3614C61.3872 11.5794 61.0251 11.8351 60.7484 12.1284C60.4716 12.4142 60.2559 12.7112 60.1013 13.0195C59.9548 13.3204 59.853 13.6249 59.7961 13.9332C59.7473 14.234 59.7228 14.5123 59.7228 14.768V15.0951C59.7228 15.3433 59.7514 15.6215 59.8083 15.9299C59.8652 16.2306 59.9711 16.539 60.1258 16.8548C60.2886 17.1631 60.5083 17.4639 60.7849 17.7572C61.0697 18.0505 61.4362 18.3137 61.8838 18.5468C62.3396 18.7724 62.8849 18.9567 63.5196 19.0996ZM73.2527 10.7635L78.3838 15.9072V19.156H81.2285V15.9072L86.2253 10.7635H83.0145L79.8731 13.8543L76.7808 10.7635H73.2527Z" fill="#C5C5C5"/>
</g>
<defs>
<clipPath id="clip0_130_1644">
<rect width="107" height="19" fill="white" transform="translate(0 0.5)"/>
</clipPath>
</defs>
</svg>
