<svg width="30" height="21" viewBox="0 0 30 21" fill="none" xmlns="http://www.w3.org/2000/svg">
<path d="M8.5 10C9.69347 10 10.8381 9.52589 11.682 8.68198C12.5259 7.83807 13 6.69347 13 5.5C13 4.30653 12.5259 3.16193 11.682 2.31802C10.8381 1.47411 9.69347 1 8.5 1H1.75V19H8.5C9.69347 19 10.8381 18.5259 11.682 17.682C12.5259 16.8381 13 15.6935 13 14.5C13 13.3065 12.5259 12.1619 11.682 11.318C10.8381 10.4741 9.69347 10 8.5 10ZM8.5 10H1.75M18.25 11.5H28.75C28.75 10.1076 28.1969 8.77226 27.2123 7.78769C26.2277 6.80312 24.8924 6.25 23.5 6.25C22.1076 6.25 20.7723 6.80312 19.7877 7.78769C18.8031 8.77226 18.25 10.1076 18.25 11.5ZM18.25 11.5V14.5C18.4047 15.623 18.9188 16.6658 19.7153 17.4724C20.5118 18.279 21.5481 18.8061 22.669 18.9749C23.79 19.1437 24.9355 18.9452 25.9343 18.4089C26.933 17.8727 27.7314 17.0276 28.21 16M21.25 1H25.75" stroke="white" stroke-width="2" stroke-linecap="round" stroke-linejoin="round"/>
</svg>
