<svg xmlns="http://www.w3.org/2000/svg" width="43" height="30" fill="none" xmlns:v="https://vecta.io/nano"><path d="M11.75 15a6.5 6.5 0 0 0 6.5-6.5 6.5 6.5 0 0 0-6.5-6.5H2v26h9.75a6.5 6.5 0 0 0 6.5-6.5 6.5 6.5 0 0 0-6.5-6.5zm0 0H2m23.833 2.167H41c0-2.011-.799-3.94-2.221-5.362s-3.351-2.221-5.362-2.221-3.94.799-5.362 2.221-2.221 3.351-2.221 5.362zm0 0V21.5c.223 1.622.966 3.128 2.117 4.293s2.647 1.927 4.267 2.17 3.274-.043 4.716-.817 2.596-1.995 3.287-3.48M30.167 2h6.5" stroke="#fff" stroke-width="3" stroke-linecap="round" stroke-linejoin="round"/></svg>