<svg xmlns="http://www.w3.org/2000/svg" width="15" height="15" fill="none" xmlns:v="https://vecta.io/nano"><path fill-rule="evenodd" d="M.488.488C.801.176 1.225 0 1.667 0H10c.442 0 .866.176 1.178.488s.488.736.488 1.179h1.667c.442 0 .866.176 1.178.488S15 2.891 15 3.333V12.5a2.5 2.5 0 0 1-2.5 2.5H3.333c-.884 0-1.732-.351-2.357-.976S0 12.551 0 11.667v-10C0 1.225.176.801.488.488zm9.655 12.845h-6.81c-.442 0-.866-.176-1.179-.488s-.488-.736-.488-1.178v-10H10V12.5a2.5 2.5 0 0 0 .143.833zm1.524-10V12.5c0 .221.088.433.244.589s.368.244.589.244.433-.088.589-.244.244-.368.244-.589V3.333h-1.667zm-8.333.833c0-.46.373-.833.833-.833H7.5c.46 0 .833.373.833.833S7.96 5 7.5 5H4.167c-.46 0-.833-.373-.833-.833zm0 3.333c0-.46.373-.833.833-.833H7.5c.46 0 .833.373.833.833s-.373.833-.833.833H4.167c-.46 0-.833-.373-.833-.833zm0 3.333c0-.46.373-.833.833-.833H7.5c.46 0 .833.373.833.833s-.373.833-.833.833H4.167c-.46 0-.833-.373-.833-.833z" fill="#205bf1"/></svg>