<svg xmlns="http://www.w3.org/2000/svg" width="17" height="14" fill="none" xmlns:v="https://vecta.io/nano"><path fill-rule="evenodd" d="M1.667 2.339v9.022c.929-.347 1.917-.527 2.917-.527s1.987.18 2.917.527V2.339c-.907-.441-1.904-.672-2.917-.672s-2.01.231-2.917.672zm7.5 0v9.022a8.33 8.33 0 0 1 2.917-.527c1 0 1.987.18 2.917.527V2.339c-.907-.441-1.904-.672-2.917-.672s-2.01.231-2.917.672zM8.333.891C7.172.306 5.888 0 4.583 0 3.121 0 1.683.385.417 1.116.159 1.265 0 1.54 0 1.838v10.833c0 .298.159.573.417.722s.575.149.833 0c1.013-.585 2.163-.893 3.333-.893s2.32.308 3.333.893c.258.149.575.149.833 0 1.013-.585 2.163-.893 3.333-.893s2.32.308 3.333.893c.258.149.575.149.833 0s.417-.424.417-.722V1.838c0-.298-.159-.573-.417-.722C14.983.385 13.546 0 12.083 0c-1.305 0-2.589.306-3.75.891z" fill="#205bf1"/></svg>