<svg width="21" height="30" viewBox="0 0 21 30" fill="none" xmlns="http://www.w3.org/2000/svg">
<path d="M14.75 10.5C12.2647 10.5 10.25 12.5147 10.25 15C10.25 17.4853 12.2647 19.5 14.75 19.5C17.2353 19.5 19.25 17.4853 19.25 15C19.25 12.5147 17.2353 10.5 14.75 10.5ZM14.75 10.5C17.2353 10.5 19.25 8.48528 19.25 6C19.25 3.51472 17.2353 1.5 14.75 1.5H5.75C3.26472 1.5 1.25 3.51472 1.25 6C1.25 8.48528 3.26472 10.5 5.75 10.5M14.75 10.5H5.75M5.75 10.5C4.55653 10.5 3.41194 10.9741 2.56802 11.818C1.72411 12.6619 1.25 13.8065 1.25 15C1.25 16.1935 1.72411 17.3381 2.56802 18.182C3.41194 19.0259 4.55653 19.5 5.75 19.5M5.75 19.5H10.25M5.75 19.5C4.85999 19.5 3.98996 19.7639 3.24994 20.2584C2.50991 20.7529 1.93314 21.4557 1.59254 22.2779C1.25195 23.1002 1.16283 24.005 1.33647 24.8779C1.5101 25.7508 1.93869 26.5526 2.56802 27.182C3.19736 27.8113 3.99918 28.2399 4.8721 28.4135C5.74501 28.5872 6.64981 28.4981 7.47208 28.1575C8.29434 27.8169 8.99715 27.2401 9.49161 26.5001C9.98608 25.76 10.25 24.89 10.25 24V1.5" stroke="white" stroke-width="2" stroke-linecap="round" stroke-linejoin="round"/>
</svg>
