<svg width="30" height="43" viewBox="0 0 30 43" fill="none" xmlns="http://www.w3.org/2000/svg">
<path d="M21.5 15C17.9101 15 15 17.9101 15 21.5C15 25.0899 17.9101 28 21.5 28C25.0899 28 28 25.0899 28 21.5C28 17.9101 25.0899 15 21.5 15ZM21.5 15C25.0899 15 28 12.0899 28 8.5C28 4.91015 25.0899 2 21.5 2H8.5C4.91015 2 2 4.91015 2 8.5C2 12.0899 4.91015 15 8.5 15M21.5 15H8.5M8.5 15C6.77609 15 5.1228 15.6848 3.90381 16.9038C2.68482 18.1228 2 19.7761 2 21.5C2 23.2239 2.68482 24.8772 3.90381 26.0962C5.1228 27.3152 6.7761 28 8.5 28M8.5 28H15M8.5 28C7.21442 28 5.95772 28.3812 4.8888 29.0954C3.81988 29.8097 2.98676 30.8248 2.49479 32.0126C2.00282 33.2003 1.87409 34.5072 2.1249 35.7681C2.3757 37.029 2.99477 38.1872 3.90381 39.0962C4.81285 40.0052 5.97104 40.6243 7.23192 40.8751C8.49279 41.1259 9.79973 40.9972 10.9874 40.5052C12.1752 40.0132 13.1903 39.1801 13.9046 38.1112C14.6188 37.0423 15 35.7856 15 34.5V2" stroke="white" stroke-width="3" stroke-linecap="round" stroke-linejoin="round"/>
</svg>
