<svg xmlns="http://www.w3.org/2000/svg" width="29" height="30" fill="none" xmlns:v="https://vecta.io/nano"><path d="M10.75 25.5c-6.45 2.1-6.45-3.75-9-4.5m18 7.5v-5.25c0-1.5.15-2.1-.75-3 4.2-.45 8.25-2.1 8.25-9a6.9 6.9 0 0 0-1.95-4.8 6.3 6.3 0 0 0-.15-4.8S23.5 1.2 19.9 3.6a18.45 18.45 0 0 0-9.3 0C7 1.2 5.35 1.65 5.35 1.65a6.3 6.3 0 0 0-.15 4.8 6.9 6.9 0 0 0-1.95 4.8c0 6.9 4.05 8.55 8.25 9-.9.9-.9 1.8-.75 3v5.25" stroke="#fff" stroke-width="2" stroke-linecap="round" stroke-linejoin="round"/></svg>