<svg xmlns="http://www.w3.org/2000/svg" width="41" height="43" fill="none" xmlns:v="https://vecta.io/nano"><path fill-rule="evenodd" d="M15.056 3.252a28.15 28.15 0 0 1 12.888 0C30.392 1.694 32.276.987 33.64.691c.733-.159 1.312-.199 1.74-.19a4.3 4.3 0 0 1 .524.042 2.91 2.91 0 0 1 .175.031 2.23 2.23 0 0 1 .065.015l.027.007.012.003.006.002h.003c.001 0 .003.001-.392 1.448l.395-1.447a1.5 1.5 0 0 1 .974.832 10.6 10.6 0 0 1 .541 7.192c1.687 2.044 2.621 4.619 2.624 7.288v.001c0 5.293-1.567 8.847-4.201 11.128-1.959 1.697-4.374 2.566-6.799 3.033a4.76 4.76 0 0 1 .093.435c.104.622.092 1.357.081 2.079l-.007.659v7.583a1.5 1.5 0 1 1-3 0v-7.583l.009-.974c.008-.59.014-.936-.042-1.271-.049-.294-.144-.562-.61-1.028a1.5 1.5 0 0 1 .901-2.552c2.934-.314 5.539-1.028 7.411-2.649 1.807-1.565 3.165-4.186 3.165-8.858-.002-2.199-.86-4.312-2.393-5.89a1.5 1.5 0 0 1-.328-1.573 7.6 7.6 0 0 0 .149-4.917c-.14.019-.301.046-.484.086-1.026.223-2.75.839-5.228 2.491a1.5 1.5 0 0 1-1.21.204 25.15 25.15 0 0 0-12.677 0 1.5 1.5 0 0 1-1.21-.203c-2.478-1.652-4.202-2.268-5.228-2.491-.183-.04-.344-.067-.484-.086a7.6 7.6 0 0 0 .149 4.917 1.5 1.5 0 0 1-.328 1.573c-1.532 1.578-2.39 3.69-2.393 5.889 0 4.673 1.358 7.294 3.165 8.859 1.872 1.621 4.478 2.334 7.411 2.649a1.5 1.5 0 0 1 .901 2.552c-.45.45-.622.834-.698 1.227-.087.454-.064 1.008.043 1.86a1.5 1.5 0 0 1 .012.186v3.216a1.61 1.61 0 0 1 0 .069v4.298a1.5 1.5 0 1 1-3 0v-2.393c-1.656.317-3.089.273-4.348-.079-1.742-.487-2.966-1.512-3.897-2.583-.582-.669-1.142-1.485-1.609-2.164l-.577-.823c-.639-.864-1.078-1.23-1.492-1.352a1.5 1.5 0 1 1 .847-2.878c1.428.42 2.369 1.516 3.058 2.446.301.406.554.779.796 1.133.397.582.76 1.115 1.242 1.669.694.798 1.447 1.385 2.441 1.662.832.233 1.96.284 3.54-.102v-2.028c-.104-.856-.177-1.784 0-2.705a5.17 5.17 0 0 1 .142-.566c-2.417-.467-4.821-1.337-6.773-3.028-2.634-2.281-4.201-5.834-4.201-11.128v-.001c.003-2.67.936-5.244 2.624-7.288a10.6 10.6 0 0 1 .541-7.192 1.5 1.5 0 0 1 .974-.832L7.2 2.048 6.808.6h.003l.006-.002.012-.003.027-.007.065-.015c.048-.01.107-.021.175-.031A4.3 4.3 0 0 1 7.62.501c.428-.01 1.007.03 1.74.19 1.363.296 3.248 1.003 5.695 2.561z" fill="#fff"/></svg>