<svg xmlns="http://www.w3.org/2000/svg" width="20" height="20" fill="none" xmlns:v="https://vecta.io/nano"><path fill-rule="evenodd" d="M9.621.007L10 0l.379.007a1 1 0 0 1 .347.019C15.91.398 20 4.722 20 10s-4.09 9.602-9.273 9.974a1 1 0 0 1-.347.019A10.17 10.17 0 0 1 10 20a10.17 10.17 0 0 1-.379-.007 1 1 0 0 1-.347-.019C4.09 19.602 0 15.279 0 10S4.09.398 9.273.026a1 1 0 0 1 .347-.019zm2.755 17.634A8.02 8.02 0 0 0 16.93 14h-3.302c-.286 1.253-.705 2.474-1.252 3.642zM11.57 14A16 16 0 0 1 10 17.885 16 16 0 0 1 8.43 14h3.139zm2.397-2h3.782c.165-.639.252-1.309.252-2s-.087-1.361-.252-2h-3.782a17.98 17.98 0 0 1 0 4zm-2.014-4a16 16 0 0 1 0 4H8.048a16 16 0 0 1 0-4h3.905zm1.675-2h3.302a8.02 8.02 0 0 0-4.554-3.641A18 18 0 0 1 13.628 6zM11.57 6H8.43A16 16 0 0 1 10 2.115 16 16 0 0 1 11.57 6zM7.625 2.359A8.02 8.02 0 0 0 3.07 6h3.302a18 18 0 0 1 1.252-3.641zM6.034 8H2.252C2.088 8.639 2 9.31 2 10s.088 1.361.252 2h3.782c-.074-.662-.111-1.33-.111-2a18 18 0 0 1 .111-2zm.339 6a18 18 0 0 0 1.252 3.642A8.02 8.02 0 0 1 3.07 14h3.302z" fill="#000"/></svg>