<svg xmlns="http://www.w3.org/2000/svg" width="14" height="17" fill="none" xmlns:v="https://vecta.io/nano"><path fill-rule="evenodd" d="M5.833 1.667c-.46 0-.833.373-.833.833s.373.833.833.833H7.5c.46 0 .833-.373.833-.833s-.373-.833-.833-.833H5.833zm-2.358 0A2.5 2.5 0 0 1 5.833 0H7.5a2.5 2.5 0 0 1 2.358 1.667h.976a2.5 2.5 0 0 1 2.5 2.5v10a2.5 2.5 0 0 1-2.5 2.5H2.5a2.5 2.5 0 0 1-2.5-2.5v-10a2.5 2.5 0 0 1 2.5-2.5h.976zm0 1.667H2.5c-.221 0-.433.088-.589.244s-.244.368-.244.589v10c0 .221.088.433.244.589S2.279 15 2.5 15h8.333c.221 0 .433-.088.589-.244s.244-.368.244-.589v-10c0-.221-.088-.433-.244-.589s-.368-.244-.589-.244h-.976A2.5 2.5 0 0 1 7.5 5H5.833a2.5 2.5 0 0 1-2.358-1.667zM4.167 7.5c.46 0 .833.373.833.833V12.5c0 .46-.373.833-.833.833s-.833-.373-.833-.833V8.333c0-.46.373-.833.833-.833zm5 1.667c.46 0 .833.373.833.833v2.5c0 .46-.373.833-.833.833s-.833-.373-.833-.833V10c0-.46.373-.833.833-.833zm-2.5 1.667c.46 0 .833.373.833.833v.833c0 .46-.373.833-.833.833s-.833-.373-.833-.833v-.833c0-.46.373-.833.833-.833z" fill="#fff"/></svg>