<svg xmlns="http://www.w3.org/2000/svg" width="18" height="18" fill="none" xmlns:v="https://vecta.io/nano"><path fill-rule="evenodd" d="M3 2a1 1 0 0 0-1 1v12a1 1 0 0 0 1 1h12a1 1 0 0 0 1-1V3a1 1 0 0 0-1-1H3zM0 3a3 3 0 0 1 3-3h12a3 3 0 0 1 3 3v12a3 3 0 0 1-3 3H3a3 3 0 0 1-3-3V3zm5 1a1 1 0 0 1 1 1v.01a1 1 0 1 1-2 0V5a1 1 0 0 1 1-1zm0 3a1 1 0 0 1 1 1v5a1 1 0 1 1-2 0V8a1 1 0 0 1 1-1zm3 6a1 1 0 1 0 2 0v-3a1 1 0 0 1 1-1 1 1 0 0 1 1 1v3a1 1 0 1 0 2 0v-3a3 3 0 0 0-3-3 3 3 0 0 0-1.293.293C9.526 7.112 9.276 7 9 7a1 1 0 0 0-1 1v5z" fill="#1f2025"/></svg>