<svg xmlns="http://www.w3.org/2000/svg" width="43" height="43" fill="none" xmlns:v="https://vecta.io/nano"><path d="M12.833 38.833l8.667-19.5m-2.817 6.5c.947 2.736 3.098 4.333 5.525 4.333 4.487 0 8.125-3.367 8.125-8.667.002-1.582-.343-3.145-1.01-4.58s-1.64-2.706-2.851-3.724-2.63-1.759-4.158-2.17-3.127-.483-4.685-.21-3.038.884-4.335 1.79-2.379 2.085-3.172 3.455-1.275 2.896-1.415 4.472a10.83 10.83 0 0 0 .608 4.65M41 21.5C41 32.27 32.27 41 21.5 41S2 32.27 2 21.5 10.73 2 21.5 2 41 10.73 41 21.5z" stroke="#fff" stroke-width="3" stroke-linecap="round" stroke-linejoin="round"/></svg>