<svg width="30" height="30" viewBox="0 0 30 30" fill="none" xmlns="http://www.w3.org/2000/svg">
<path d="M9.25 27L15.25 13.5M13.3 18C13.9555 19.8945 15.445 21 17.125 21C20.2315 21 22.75 18.669 22.75 15C22.7513 13.9047 22.5127 12.8225 22.0509 11.8293C21.5892 10.8361 20.9155 9.95616 20.0773 9.25121C19.239 8.54626 18.2565 8.03346 17.1989 7.74885C16.1413 7.46424 15.0341 7.41473 13.9553 7.60381C12.8765 7.79288 11.8522 8.21594 10.9543 8.84326C10.0565 9.47057 9.30701 10.2869 8.75845 11.2349C8.2099 12.1829 7.87564 13.2395 7.77916 14.3306C7.68268 15.4216 7.82633 16.5205 8.2 17.55M28.75 15C28.75 22.4558 22.7058 28.5 15.25 28.5C7.79416 28.5 1.75 22.4558 1.75 15C1.75 7.54416 7.79416 1.5 15.25 1.5C22.7058 1.5 28.75 7.54416 28.75 15Z" stroke="white" stroke-width="2" stroke-linecap="round" stroke-linejoin="round"/>
</svg>
