<svg xmlns="http://www.w3.org/2000/svg" width="22" height="19" fill="none" xmlns:v="https://vecta.io/nano"><path fill-rule="evenodd" d="M18.281.979l.252-.069c.722-.198 1.338-.366 1.991-.682.177-.096.384-.139.597-.113a1 1 0 0 1 .879.993v.001a1 1 0 0 1-.037.268c-.193.751-.7 1.783-1.098 2.564l-.284.552-.267.52-.133.274a14.84 14.84 0 0 1-.533 3.853l-.001.005a12 12 0 0 1-8.335 8.432h0c-3.436.997-7.315.296-10.791-1.599a1 1 0 0 1 .517-1.877c1.406.055 2.655-.298 3.909-.942-1.298-.802-2.231-1.737-2.87-2.747C1.196 9.016.919 7.554.932 6.251c.013-1.295.311-2.447.599-3.267.145-.412.289-.748.4-.983a7.79 7.79 0 0 1 .136-.278l.042-.079.013-.024.004-.008.002-.003.001-.001c0 0 .001-.001.872.489l-.872-.49a1 1 0 0 1 1.685-.092C5.299 3.592 7.495 4.862 10 5.072c-.012-2.105 1.313-3.913 3.27-4.646 1.624-.608 3.547-.679 5.012.554zM3.301 4.005c-.195.636-.36 1.423-.369 2.266-.01 1.002.202 2.066.836 3.069s1.736 2.015 3.631 2.842a1 1 0 0 1 .155 1.749c-.952.634-1.933 1.188-2.985 1.578 2.154.629 4.29.697 6.186.146M3.301 4.005c2.014 2.042 4.737 3.17 7.725 3.093a1 1 0 0 0 .974-1v-1h0v-.014c-.017-1.231.746-2.328 1.971-2.787 1.391-.521 2.544-.368 3.281.464a1 1 0 0 0 1.031.296l.655-.183.262-.072-.116.229-.269.524-.286.558a9.09 9.09 0 0 0-.197.412c-.026.059-.055.129-.079.2a1.23 1.23 0 0 0-.07.4 12.84 12.84 0 0 1-.46 3.48 10 10 0 0 1-6.966 7.049" fill="#1f2025"/></svg>