<svg xmlns="http://www.w3.org/2000/svg" width="17" height="12" fill="none" xmlns:v="https://vecta.io/nano"><path fill-rule="evenodd" d="M2.5 1.667c-.46 0-.833.373-.833.833v6.667c0 .46.373.833.833.833h6.667c.46 0 .833-.373.833-.833V2.5c0-.46-.373-.833-.833-.833H2.5zm9.167 1.152V2.5a2.5 2.5 0 0 0-2.5-2.5H2.5A2.5 2.5 0 0 0 0 2.5v6.667a2.5 2.5 0 0 0 2.5 2.5h6.667a2.5 2.5 0 0 0 2.5-2.5v-.318l2.588 1.294c.254.127.536.187.82.174s.559-.098.801-.247.441-.358.579-.606.211-.527.211-.811V3.015a1.67 1.67 0 0 0-.211-.812c-.138-.248-.338-.457-.579-.606s-.517-.234-.801-.247-.566.047-.82.174l-2.588 1.294zm0 1.863v2.303L15 8.651V3.016l-3.333 1.666z" fill="#205bf1"/></svg>