<svg width="120" height="35" viewBox="0 0 120 35" fill="none" xmlns="http://www.w3.org/2000/svg">
<path fill-rule="evenodd" clip-rule="evenodd" d="M16.628 0.39991C15.8228 0.399803 15.0756 0.399704 14.466 0.48194C13.7914 0.57295 13.0664 0.788691 12.4687 1.38843C11.871 1.98817 11.656 2.71574 11.5653 3.39266C11.4834 4.00433 11.4835 4.75407 11.4836 5.56209L11.4836 6.09992H6.4011C5.57552 6.09992 4.90626 6.77149 4.90626 7.59992C4.90626 8.42834 5.57552 9.09992 6.4011 9.09992H22.3959C23.319 9.09992 23.861 9.1031 24.2471 9.15519C24.5174 9.19166 24.5469 9.22209 24.5831 9.4924C24.635 9.87981 24.6382 10.4236 24.6382 11.3499V19.5999H22.0308L22.0308 17.5623C22.0309 16.7542 22.031 16.0045 21.9491 15.3928C21.8584 14.7159 21.6434 13.9883 21.0457 13.3886C20.448 12.7889 19.7229 12.5731 19.0484 12.4821C18.4388 12.3999 17.6916 12.4 16.8864 12.4001L5.35052 12.4001C4.54527 12.4 3.7981 12.3999 3.18854 12.4821C2.51394 12.5731 1.78888 12.7889 1.1912 13.3886C0.593516 13.9883 0.378517 14.7159 0.287819 15.3928C0.205866 16.0045 0.205965 16.7542 0.206071 17.5623L0.20607 29.4379C0.205963 30.2459 0.205865 30.9957 0.287817 31.6073C0.378515 32.2843 0.593514 33.0118 1.19119 33.6116C1.78887 34.2113 2.51394 34.427 3.18853 34.5181C3.7981 34.6003 4.54527 34.6002 5.35051 34.6001L17.4843 34.6001C18.2896 34.6002 19.0367 34.6003 19.6463 34.5181C20.3209 34.427 21.0459 34.2113 21.6436 33.6116C22.2413 33.0118 22.4563 32.2843 22.547 31.6073C22.6668 30.7129 22.6288 29.8007 22.6287 28.9001H27.7112C28.5368 28.9001 29.2061 28.2285 29.2061 27.4001C29.2061 26.5717 28.5368 25.9001 27.7112 25.9001H11.7164C10.7933 25.9001 10.3281 25.8999 9.90625 25.8999C9.59959 25.8999 9.47411 25.8448 9.47411 25.4858C9.47411 24.9585 9.47411 24.5764 9.47411 23.6501L9.47411 15.4001H12.0815L12.0815 17.4377C12.0814 18.2458 12.0813 18.9955 12.1633 19.6072C12.2539 20.2841 12.4689 21.0117 13.0666 21.6114C13.6643 22.2111 14.3894 22.4269 15.064 22.5179C15.6735 22.6001 16.4207 22.6 17.226 22.5999H28.7618C29.567 22.6 30.3142 22.6001 30.9238 22.5179C31.5984 22.4269 32.3234 22.2111 32.9211 21.6114C33.5188 21.0117 33.7338 20.2841 33.8245 19.6072C33.9065 18.9955 33.9064 18.2458 33.9062 17.4377V5.5621C33.9064 4.75408 33.9065 4.00433 33.8245 3.39266C33.7338 2.71574 33.5188 1.98817 32.9211 1.38843C32.3234 0.788691 31.5984 0.57295 30.9238 0.48194C30.3142 0.399704 29.567 0.399803 28.7618 0.39991H16.628ZM15.0712 15.4001V17.3499C15.0712 18.2762 15.0744 18.82 15.1263 19.2074C15.1625 19.4777 15.192 19.5082 15.4623 19.5446C15.8484 19.5967 16.3904 19.5999 17.3135 19.5999H19.0411V17.6501C19.0411 16.7238 19.0379 16.18 18.986 15.7926C18.9498 15.5223 18.9203 15.4918 18.65 15.4554C18.2639 15.4033 17.722 15.4001 16.7989 15.4001H15.0712ZM14.4733 6.09992V5.64992C14.4733 4.72363 14.4764 4.17981 14.5283 3.7924C14.5646 3.52209 14.5941 3.49166 14.8644 3.45519C15.2505 3.4031 15.7924 3.39992 16.7155 3.39992H28.6743C29.5974 3.39992 30.1393 3.4031 30.5254 3.45519C30.7957 3.49166 30.8253 3.52209 30.8615 3.7924C30.9134 4.17981 30.9166 4.72363 30.9166 5.64992V17.3499C30.9166 18.2762 30.9134 18.82 30.8615 19.2074C30.8253 19.4777 30.7958 19.5082 30.5254 19.5446C30.1393 19.5967 29.5974 19.5999 28.6743 19.5999H27.6279L27.6279 11.2621C27.628 10.4541 27.6281 9.70434 27.5462 9.09266C27.4555 8.41574 27.2405 7.68817 26.6428 7.08843C26.0451 6.48869 25.32 6.27295 24.6454 6.18194C24.0359 6.0997 23.2887 6.0998 22.4835 6.09991L14.4733 6.09992ZM19.6391 28.9001C19.6391 29.6659 19.584 30.8078 19.584 31.2076C19.584 31.6073 19.584 31.6001 19.2061 31.6001C18.8281 31.6001 10.8148 31.6001 5.43803 31.6001C4.51493 31.6001 3.97298 31.5969 3.5869 31.5448C3.31657 31.5083 3.28706 31.4779 3.25085 31.2076C3.19894 30.8202 3.19577 30.2764 3.19577 29.3501L3.19577 17.6501C3.19577 16.7238 3.19894 16.18 3.25085 15.7926C3.28707 15.5223 3.31657 15.4918 3.58691 15.4554C3.97298 15.4033 4.51493 15.4001 5.43803 15.4001H6.48443L6.48442 23.7379C6.48431 24.5459 6.48421 25.2957 6.56617 25.9073C6.65686 26.5843 6.87186 27.3118 7.46954 27.9116C8.06722 28.5113 8.79229 28.727 9.46688 28.8181C10.0764 28.9003 10.8236 28.9002 11.6289 28.9001L19.6391 28.9001ZM3.32457 15.4837C3.3145 15.494 3.31941 15.498 3.32457 15.4837V15.4837Z" fill="#000"/>
<path d="M49.2361 33.0325C45.869 33.0325 43.9062 30.6636 43.9062 26.3659C43.9062 21.9667 45.8521 19.7163 49.7606 19.7163C53.5404 19.7163 54.8739 21.2911 55.2725 24.31C55.3079 24.5776 55.1146 24.8197 54.8468 24.854L53.3299 25.0488C53.0518 25.0845 52.8007 24.8838 52.7546 24.6073C52.4554 22.8129 51.6009 21.5775 49.7099 21.5775C48.9359 21.5775 48.2235 21.7619 47.631 22.1014C47.5731 22.1345 47.5238 22.1805 47.4858 22.2353C46.8258 23.1877 46.4104 24.4065 46.4104 26.2644C46.4104 29.2085 47.7471 31.2051 49.9129 31.2051C50.7758 31.2051 51.4357 31.019 51.9602 30.6975C52.5539 30.3124 53.0411 29.3795 53.1909 28.9378C53.2061 28.8929 53.2123 28.8461 53.2123 28.7987V28.5918C53.2123 28.3157 52.9888 28.0918 52.7127 28.0918C52.2675 28.0918 51.6195 28.0918 51.1742 28.0918C50.8981 28.0918 50.6743 27.8679 50.6743 27.5918V27.0859C50.6743 26.8098 50.8982 26.5859 51.1743 26.5859H55.1274C55.4053 26.5859 55.6298 26.8125 55.6289 27.0904C55.6242 28.6717 55.661 30.273 55.6788 32.3089C55.6812 32.5863 55.4568 32.8125 55.1793 32.8125H53.74C53.4597 32.8125 53.2342 32.5821 53.2401 32.3019L53.2782 30.5135C53.2792 30.4659 53.2409 30.4268 53.1933 30.4268C53.1547 30.4268 53.121 30.4531 53.1106 30.4903C52.685 32.0119 51.3556 33.0325 49.2361 33.0325ZM58.0456 32.8125C57.7659 32.8125 57.5405 32.5833 57.546 32.3036C57.5817 30.493 57.6379 28.0794 57.6379 26.3829C57.6379 24.6896 57.5819 22.198 57.5463 20.4116C57.5407 20.1318 57.766 19.9024 58.0459 19.9024H63.0354C66.4194 19.9024 68.213 20.63 68.213 23.388C68.213 25.8039 66.884 26.8252 64.4846 26.8882C64.4227 26.8898 64.3721 26.9402 64.3721 27.0022C64.3721 27.0627 64.4207 27.1126 64.4811 27.116C66.6361 27.2373 67.5437 28.0039 67.993 29.8346C68.0942 30.3024 68.3748 31.3558 68.609 32.1409C68.7075 32.471 68.4618 32.8125 68.1174 32.8125H66.4775C66.2453 32.8125 66.0436 32.6528 65.9876 32.4274C65.7937 31.6472 65.5194 30.6193 65.4042 29.8853C64.9643 28.4133 64.4059 27.9564 62.7985 27.9564H60.6082C60.3321 27.9564 60.1082 28.1803 60.1082 28.4564V32.3125C60.1082 32.5887 59.8844 32.8125 59.6082 32.8125H58.0456ZM60.0913 25.6291C60.0913 25.9052 60.3152 26.1291 60.5913 26.1291H62.6293C64.7443 26.1291 65.6073 25.5538 65.6073 23.9633C65.6073 22.1528 64.6259 21.679 62.6462 21.679H60.5913C60.3152 21.679 60.0913 21.9029 60.0913 22.179V25.6291ZM76.0359 33.0325C72.0258 33.0325 70.0631 30.8159 70.0631 26.3659C70.0631 21.9329 72.0766 19.7163 75.9682 19.7163C79.9275 19.7163 81.941 21.9498 81.941 26.3998C81.941 30.8159 79.8937 33.0325 76.0359 33.0325ZM76.1205 31.1543C76.81 31.1543 77.5299 31.048 78.0785 30.7633C78.1381 30.7323 78.1889 30.687 78.2284 30.6325C78.9699 29.6084 79.403 28.2296 79.403 26.4336C79.403 23.5403 78.1678 21.5944 75.9344 21.5944C75.1608 21.5944 74.4027 21.748 73.7767 22.0988C73.715 22.1334 73.663 22.1827 73.624 22.2417C72.9843 23.2098 72.618 24.4425 72.618 26.2644C72.618 29.1916 73.887 31.1543 76.1205 31.1543ZM88.9357 33.0325C84.9933 33.0325 83.8596 31.1205 83.8596 27.3642V23.6925C83.8596 22.5093 83.8473 21.4244 83.8227 20.4171C83.8159 20.1353 84.0419 19.9024 84.3238 19.9024H85.8581C86.1365 19.9024 86.3613 20.1291 86.3589 20.4074C86.3438 22.1437 86.33 25.4999 86.33 27.0258C86.33 29.53 86.9729 31.1882 89.2064 31.1882C90.102 31.1882 90.9371 30.9615 91.426 30.4937C91.4816 30.4405 91.5184 30.3712 91.5393 30.2971C91.8544 29.1823 91.9813 28.7642 91.9813 27.0935C91.9813 25.4048 91.9674 22.2259 91.9395 20.4125C91.9352 20.1324 92.1607 19.9024 92.4408 19.9024H93.9732C94.2541 19.9024 94.4798 20.1338 94.4745 20.4147C94.4516 21.6396 94.4516 22.8939 94.4516 24.2002L94.4686 28.2948C94.4347 31.7973 92.3874 33.0325 88.9357 33.0325ZM97.4658 32.8125C97.188 32.8125 96.9635 32.5862 96.9658 32.3084C96.9813 30.4013 96.9955 28.4336 96.9955 26.3659C96.9955 24.2981 96.9813 22.316 96.9658 20.4065C96.9635 20.1287 97.188 19.9024 97.4658 19.9024H102.292C105.625 19.9024 107.621 21.0022 107.621 24.3186C107.621 27.4996 106.251 28.8363 103.222 28.8363H99.9997C99.7236 28.8363 99.4997 29.0602 99.5003 29.3363C99.5029 30.4524 99.514 31.5222 99.5339 32.2927C99.5412 32.5766 99.314 32.8125 99.03 32.8125H97.4658ZM99.5013 26.7104C99.5004 26.9872 99.7245 27.2119 100.001 27.2119H102.072C103.865 27.2119 105.066 26.5182 105.066 24.454C105.066 22.4066 103.95 21.679 102.055 21.679H100.015C99.7396 21.679 99.5159 21.902 99.5151 22.1775L99.5013 26.7104Z" fill="#000"/>
<path d="M51.7758 10.0647L55.4876 14.6829C55.7506 15.0101 55.5177 15.4961 55.0979 15.4961H53.4882C53.3363 15.4961 53.1927 15.4271 53.0978 15.3085L48.7957 9.9309C48.7008 9.8123 48.5572 9.74325 48.4053 9.74325H47.915C47.6371 9.74325 47.4125 9.96938 47.4155 10.2473C47.4325 11.8092 47.4659 13.9012 47.4854 14.9868C47.4905 15.2669 47.2649 15.4961 46.9847 15.4961H45.4142C45.135 15.4961 44.9099 15.2675 44.9142 14.9883C44.9452 12.9974 44.9739 10.9516 44.9739 9.04953C44.9739 7.16175 44.9452 5.10133 44.9141 3.09379C44.9098 2.81462 45.1349 2.58602 45.4141 2.58602H46.9838C47.2643 2.58602 47.49 2.81624 47.4846 3.09668C47.4652 4.09353 47.4331 5.94776 47.4162 7.32632C47.4127 7.60444 47.6374 7.83128 47.9156 7.83128H48.4077C48.5582 7.83128 48.7007 7.76347 48.7957 7.64667L52.7594 2.77063C52.8544 2.65383 52.9969 2.58602 53.1474 2.58602H54.6802C55.0991 2.58602 55.3323 3.0702 55.0711 3.39771L51.7928 7.50979C51.1208 8.39486 50.9092 8.48609 49.9123 8.64473C49.8552 8.65382 49.8131 8.70298 49.8131 8.76078C49.8131 8.81955 49.8566 8.86921 49.9148 8.87729C50.9546 9.02172 51.087 9.12994 51.7758 10.0647ZM61.9187 15.7161C57.9086 15.7161 55.9459 13.4995 55.9459 9.04953C55.9459 4.61644 57.9594 2.3999 61.851 2.3999C65.8103 2.3999 67.8238 4.63336 67.8238 9.08337C67.8238 13.4995 65.7765 15.7161 61.9187 15.7161ZM62.0033 13.8379C62.6928 13.8379 63.4126 13.7316 63.9612 13.4469C64.0209 13.4159 64.0717 13.3706 64.1111 13.3161C64.8526 12.292 65.2858 10.9132 65.2858 9.11721C65.2858 6.22386 64.0506 4.27804 61.8172 4.27804C61.0436 4.27804 60.2854 4.43154 59.6595 4.78241C59.5978 4.81699 59.5457 4.86632 59.5067 4.92533C58.867 5.89335 58.5008 7.12613 58.5008 8.94801C58.5008 11.8752 59.7698 13.8379 62.0033 13.8379ZM74.7846 15.6991C71.4214 15.6991 69.6348 14.6431 69.146 12.1544C69.0911 11.875 69.3026 11.6208 69.5866 11.5997L71.3534 11.4688C71.6104 11.4498 71.8362 11.6305 71.9017 11.8798C72.2091 13.0505 72.9521 13.9225 74.8354 13.9225C75.6482 13.9225 76.5079 13.7976 76.9493 13.4877C76.9846 13.4629 77.0144 13.4314 77.0393 13.3961C77.3548 12.9492 77.5426 12.4091 77.5426 11.7906C77.5426 10.6908 76.9166 10.2509 74.5647 9.9463C70.9607 9.70941 69.4209 8.2712 69.4209 6.0885C69.4209 3.58431 71.6375 2.3999 74.6324 2.3999C77.7923 2.3999 79.344 3.68343 79.8939 6.08516C79.9587 6.36817 79.7498 6.6345 79.4606 6.65973L77.919 6.79424C77.6659 6.81632 77.4388 6.64443 77.3769 6.39802C77.0447 5.07484 76.4576 4.2442 74.5139 4.2442C73.9003 4.2442 73.1327 4.32124 72.7109 4.54882C72.6715 4.5701 72.6371 4.5991 72.6076 4.63283C72.2402 5.05315 71.959 5.64173 71.959 6.30846C71.959 7.54363 72.7204 7.86512 74.8354 8.1866C79.0654 8.54192 80.0468 9.8617 80.0468 11.909C80.0468 14.3286 77.8979 15.6991 74.7846 15.6991ZM92.2647 2.58602C92.5476 2.58602 92.7742 2.8198 92.7675 3.10263C92.7315 4.62552 92.7315 6.95192 92.7315 9.04953C92.7315 10.9982 92.7315 13.4325 92.7676 14.9796C92.7742 15.2624 92.5476 15.4961 92.2647 15.4961H90.7088C90.4268 15.4961 90.2006 15.2631 90.2073 14.9812C90.2428 13.5006 90.2577 11.5138 90.2606 10.1243C90.2612 9.84815 90.0373 9.62481 89.7612 9.62481H84.9745C84.6983 9.62481 84.4745 9.84861 84.4749 10.1248C84.4774 11.6042 84.4897 13.5887 84.5031 14.9911C84.5058 15.2694 84.281 15.4961 84.0028 15.4961H82.4145C82.1338 15.4961 81.9081 15.265 81.9143 14.9843C81.9585 12.9947 81.9872 10.9504 81.9872 9.04953C81.9872 7.14748 81.9585 5.10177 81.9142 3.09772C81.908 2.81705 82.1337 2.58602 82.4144 2.58602H84.0028C84.2811 2.58602 84.5058 2.81299 84.5029 3.09124C84.4896 4.3908 84.4774 5.88752 84.4749 7.28055C84.4744 7.55669 84.6983 7.78051 84.9745 7.78051H89.7612C90.0373 7.78051 90.2612 7.55686 90.2606 7.28072C90.2576 5.98334 90.2428 4.4822 90.2077 3.10094C90.2005 2.81902 90.4267 2.58602 90.7087 2.58602H92.2647ZM100.38 15.7161C96.4381 15.7161 95.3044 13.8041 95.3044 10.0478V6.37614C95.3044 5.19286 95.2921 4.10804 95.2675 3.10067C95.2606 2.81886 95.4867 2.58602 95.7686 2.58602H97.3029C97.5812 2.58602 97.806 2.81266 97.8036 3.09101C97.7885 4.82734 97.7748 8.1835 97.7748 9.70941C97.7748 12.2136 98.4177 13.8718 100.651 13.8718C101.547 13.8718 102.382 13.6451 102.871 13.1773C102.926 13.124 102.963 13.0548 102.984 12.9807C103.299 11.8659 103.426 11.4478 103.426 9.77709C103.426 8.08843 103.412 4.90944 103.384 3.09608C103.38 2.81598 103.606 2.58602 103.886 2.58602H105.418C105.699 2.58602 105.925 2.81736 105.919 3.09822C105.896 4.32321 105.896 5.57743 105.896 6.88375L105.913 10.9784C105.879 14.4809 103.832 15.7161 100.38 15.7161ZM108.928 15.4961C108.65 15.4961 108.425 15.2697 108.428 14.9918C108.446 13.2258 108.474 11.1173 108.474 7.30675C108.474 5.98374 108.447 4.4737 108.418 3.09712C108.412 2.81665 108.637 2.58602 108.918 2.58602H111.4C111.579 2.58602 111.744 2.68175 111.833 2.837L116.46 10.8938C116.846 11.6818 117.263 12.4393 117.478 12.9191C117.497 12.9633 117.541 12.9919 117.589 12.9919C117.663 12.9919 117.72 12.9262 117.709 12.8532C117.596 12.1077 117.476 11.386 117.476 10.5893C117.476 8.19079 117.447 5.02812 117.417 3.09435C117.412 2.81466 117.638 2.58602 117.917 2.58602H119.285C119.565 2.58602 119.79 2.81498 119.786 3.09438C119.757 4.94931 119.743 6.86104 119.743 8.82956C119.743 10.791 119.758 12.8542 119.773 14.9924C119.775 15.27 119.551 15.4961 119.273 15.4961H116.83C116.653 15.4961 116.49 15.4028 116.4 15.2507L112.061 7.91588C111.359 6.51231 111.02 5.78565 110.754 5.09818C110.736 5.05266 110.692 5.02253 110.643 5.02253C110.571 5.02253 110.515 5.08726 110.526 5.15917C110.612 5.74917 110.741 6.99157 110.741 7.45903C110.741 10.4181 110.756 12.8846 110.771 14.9926C110.774 15.2702 110.549 15.4961 110.271 15.4961H108.928Z" fill="#000"/>
</svg>
