<svg xmlns="http://www.w3.org/2000/svg" xmlns:xlink="http://www.w3.org/1999/xlink" width="309" height="284" fill="none" xmlns:v="https://vecta.io/nano"><g stroke="#fff" stroke-width="3" stroke-miterlimit="10"><path d="M134.508 180.464c-7.068 0-13.711-4.401-18.23-12.095-3.959-6.722-6.143-15.539-6.143-24.796 0-9.272 2.184-18.074 6.143-24.797 4.519-7.678 11.178-12.094 18.23-12.094 7.068 0 13.711 4.4 18.23 12.094 3.959 6.723 6.143 15.54 6.143 24.797s-2.184 18.074-6.143 24.796c-4.519 7.679-11.162 12.095-18.23 12.095z" fill="#1f2025"/><path d="M134.508 173.999c9.901 0 17.927-13.622 17.927-30.426s-8.026-30.427-17.927-30.427-17.927 13.623-17.927 30.427 8.027 30.426 17.927 30.426zm1.471-67.257l105.348 8.908s10.177 7.148 10.177 27.923-10.177 27.907-10.177 27.907l-105.348 8.923"/><path d="M244.163 118.519l46.804 3.96s7.69 5.388 7.69 21.094-7.69 21.078-7.69 21.078l-46.804 3.961m52.295-38.045l6.415.547s4.535 3.187 4.535 12.459-4.535 12.459-4.535 12.459l-6.415.546"/><path d="M81.41 180.464c-7.068 0-13.711-4.401-18.23-12.095-3.959-6.722-6.142-15.539-6.142-24.796 0-9.272 2.184-18.074 6.142-24.797 4.52-7.678 11.178-12.094 18.23-12.094 7.068 0 13.711 4.4 18.23 12.094 3.959 6.723 6.143 15.54 6.143 24.797s-2.184 18.074-6.143 24.796c-4.535 7.679-11.178 12.095-18.23 12.095z" fill="#1f2025"/><path d="M81.41 173.999c9.901 0 17.927-13.622 17.927-30.426s-8.026-30.427-17.927-30.427-17.927 13.623-17.927 30.427 8.026 30.426 17.927 30.426zm42.482 2.929l-41.026 3.475m0-73.661l40.798 3.445"/></g><path d="M163.307 216.081l2.033 5.281 5.293 2.034-5.293 2.033-2.033 5.296-2.032-5.281-5.278-2.048 5.278-2.034 2.032-5.281zM40.602 70.085l2.032 5.296 5.293 2.033-5.293 2.034-2.032 5.296-2.032-5.296-5.278-2.034 5.278-2.033 2.032-5.296zm141.62-7.078l2.033 5.281 5.278 2.049-5.278 2.034-2.033 5.281-2.047-5.281-5.278-2.034 5.293-2.049 2.032-5.281zM298.657 194.67l2.032 5.296 5.278 2.034-5.278 2.033-2.032 5.296-2.032-5.296-5.293-2.033 5.293-2.034 2.032-5.296z" fill="#f12052"/><g fill="#fff"><path d="M254.686 228.448h-1.244v55.42h1.244v-55.42z"/><path d="M281.767 256.779v-1.245h-55.389v1.245h55.389z"/><path d="M234.917 236.129l-.88.88 39.165 39.187.88-.879-39.165-39.188z"/><path d="M274.09 236.998l-.88-.88-39.165 39.188.879.88 39.166-39.188z"/><path d="M254.064 261.105c2.731 0 4.945-2.215 4.945-4.947s-2.214-4.947-4.945-4.947-4.944 2.215-4.944 4.947 2.214 4.947 4.944 4.947z"/></g><path d="M189.563 2.822v25.13a4.39 4.39 0 0 0 4.383 4.386h50.141a4.39 4.39 0 0 1 4.384 4.386v28.317c0 2.413 1.956 4.386 4.383 4.386h49.109" stroke="#fff" stroke-width="3" stroke-miterlimit="10"/><g fill="#fff"><use xlink:href="#B"/><use xlink:href="#B" x="112.37" y="66.605"/></g><path d="M2.336 214.024h19.611c2.624 0 4.747 2.125 4.747 4.75v16.253c0 2.625 2.123 4.75 4.747 4.75h49.398c2.624 0 4.747 2.124 4.747 4.75v27.588c0 2.626 2.123 4.75 4.747 4.75h82.765" stroke="#fff" stroke-width="3" stroke-miterlimit="10"/><g fill="#fff"><use xlink:href="#B" x="-187.227" y="211.202"/><path d="M173.082 278.93a2.08 2.08 0 0 0 2.078-2.079 2.08 2.08 0 0 0-2.078-2.08 2.08 2.08 0 0 0-2.077 2.08 2.08 2.08 0 0 0 2.077 2.079z"/></g><defs ><path id="B" d="M189.563 4.901a2.08 2.08 0 0 0 2.078-2.079 2.08 2.08 0 0 0-2.078-2.079 2.08 2.08 0 0 0-2.078 2.079 2.08 2.08 0 0 0 2.078 2.079z"/></defs></svg>