<svg xmlns="http://www.w3.org/2000/svg" width="116" height="32" fill="none" xmlns:v="https://vecta.io/nano"><path fill-rule="evenodd" d="M20.748 7.298a2.01 2.01 0 0 1-.181 2.823l-4.391 3.88 4.095 1.103c.709.191 1.255.758 1.422 1.477s-.073 1.471-.624 1.957l-7.183 6.347a1.98 1.98 0 0 1-2.807-.182 2.01 2.01 0 0 1 .181-2.822L15.651 18l-4.096-1.103c-.709-.191-1.255-.758-1.422-1.477s.073-1.471.624-1.958l7.183-6.347a1.98 1.98 0 0 1 2.807.182z" fill="#205bf1"/><path d="M45.455 25.252l-1.599-1.848a9.41 9.41 0 0 1-2.339 1.164 8.06 8.06 0 0 1-2.578.42c-1.138 0-2.172-.224-3.103-.672-.931-.456-1.719-1.08-2.363-1.872-.644-.8-1.106-1.728-1.384-2.784s-.334-2.184-.167-3.384.537-2.324 1.11-3.372c.573-1.056 1.293-1.984 2.16-2.784s1.83-1.424 2.888-1.872a8.24 8.24 0 0 1 3.294-.684c1.138 0 2.168.228 3.091.684a6.76 6.76 0 0 1 2.363 1.872c.644.8 1.106 1.728 1.384 2.784.279 1.048.334 2.172.167 3.372-.127.936-.386 1.828-.776 2.676a10.88 10.88 0 0 1-1.432 2.328l1.635 1.908-2.351 2.064zm-6.111-3.192c.462 0 .923-.068 1.385-.204.469-.144.907-.344 1.313-.6l-1.301-1.524 2.351-2.076 1.217 1.44c.31-.416.565-.864.764-1.344s.33-.972.394-1.476c.111-.8.076-1.548-.107-2.244a4.86 4.86 0 0 0-.883-1.836c-.414-.536-.923-.952-1.528-1.248-.597-.304-1.257-.456-1.981-.456-.74 0-1.452.152-2.136.456s-1.309.724-1.874 1.26c-.557.528-1.026 1.14-1.408 1.836-.374.696-.613 1.44-.716 2.232-.111.792-.08 1.54.095 2.244.183.696.481 1.312.895 1.848.414.528.919.944 1.516 1.248.605.296 1.273.444 2.005.444z" fill="url(#A)"/><path d="M49.752 20.308l1.05-7.56h2.912l-.955 6.792c-.056.472.004.904.179 1.296.175.384.438.692.788.924.358.224.768.336 1.229.336a2.74 2.74 0 0 0 1.325-.336c.422-.232.772-.54 1.05-.924a2.8 2.8 0 0 0 .525-1.296l.955-6.792h2.912l-1.659 12h-2.912l.131-1.092a5.56 5.56 0 0 1-1.611 1.032c-.597.248-1.217.372-1.862.372-.867 0-1.631-.212-2.291-.636-.653-.432-1.142-1.004-1.468-1.716-.318-.72-.418-1.52-.298-2.4z" fill="url(#A)"/><path d="M64.124 12.748h2.912l-1.671 12h-2.912l1.671-12zm1.695-1.548c-.43 0-.772-.14-1.026-.42-.255-.288-.35-.648-.286-1.08.064-.424.259-.78.585-1.068.334-.288.716-.432 1.146-.432.414 0 .744.144.991.432.255.288.354.644.298 1.068-.064.432-.259.792-.585 1.08-.318.28-.692.42-1.122.42z" fill="url(#A)"/><path d="M75.867 21.136l2.411 1.428a7.65 7.65 0 0 1-2.315 1.812c-.891.456-1.826.684-2.805.684-1.098 0-2.061-.284-2.888-.852a5.18 5.18 0 0 1-1.838-2.28c-.398-.96-.517-2.02-.358-3.18.119-.88.386-1.7.8-2.46a7.81 7.81 0 0 1 1.575-2.016c.629-.584 1.325-1.04 2.089-1.368.772-.328 1.567-.492 2.387-.492.979 0 1.85.228 2.614.684.772.456 1.377 1.068 1.814 1.836l-2.829 1.416c-.239-.32-.533-.568-.883-.744s-.724-.264-1.122-.264a2.96 2.96 0 0 0-1.623.48c-.501.312-.923.728-1.265 1.248-.342.512-.557 1.072-.644 1.68-.08.6-.024 1.16.167 1.68.199.512.505.924.919 1.236.422.312.919.468 1.492.468a2.98 2.98 0 0 0 1.217-.264 3.88 3.88 0 0 0 1.086-.732z" fill="url(#A)"/><path d="M90.42 24.748h-3.354l-2.065-4.716-1.957 2.004-.37 2.712h-2.912l2.506-18h2.912l-1.504 10.74 4.619-4.74h3.807l-4.774 4.908 3.091 7.092z" fill="url(#A)"/><path d="M93.822 12.748h2.912l-1.671 12h-2.912l1.671-12zm1.695-1.548c-.43 0-.772-.14-1.026-.42-.255-.288-.35-.648-.287-1.08.064-.424.259-.78.585-1.068.334-.288.716-.432 1.146-.432.414 0 .744.144.991.432.255.288.354.644.298 1.068-.064.432-.259.792-.585 1.08-.318.28-.692.42-1.122.42z" fill="url(#A)"/><path d="M105.594 15.676h-2.315l-1.265 9.072h-2.912l1.265-9.072H98.6l.406-2.928h1.766l.526-3.768h2.912l-.525 3.768H106l-.406 2.928z" fill="url(#A)"/><defs><linearGradient id="A" x1="30.954" y1="18.748" x2="106.543" y2="18.748" gradientUnits="userSpaceOnUse"><stop stop-color="#205bf1"/><stop offset=".708" stop-color="#fff"/></linearGradient></defs></svg>