<svg xmlns="http://www.w3.org/2000/svg" width="390" height="337" fill="none" xmlns:v="https://vecta.io/nano"><style><![CDATA[.B{fill:#1f2025}.C{stroke-width:3}.D{stroke-miterlimit:10}.E{stroke:#1f2025}.F{stroke-linejoin:round}]]></style><g stroke="#fff" class="C D"><path d="M360.026 225.727H245.491V334.861H360.026V225.727Z" class="B"/><path d="M245.491 334.86H3.969L186.65 100.476l82.629 36.67-23.788 197.714z" fill="#205bf1"/><g class="B"><path d="M186.65 100.475c10.131-22.824 36.825-33.11 59.65-22.979s33.11 36.825 22.979 59.649l-82.629-36.67z" class="F"/><path d="M241.742 70.014l37.496-37.462 9.528 9.804-37.478 37.444-9.546-9.787z"/><path d="M374.078 106.375l-86.516-73.822-9.03 10.354 86.207 73.513 9.339-10.045z"/><path d="M336.479 216.747l39.285-103.63-13.416-4.437-39.646 105.453 13.777 2.614z"/><path d="M387.924 225.725H278.532v-.877c0-8.273 6.708-14.998 14.999-14.998h79.412c8.273 0 14.999 6.708 14.999 14.998v.877h-.018z"/><path d="M304.281 204.828h-5.023v5.023h5.023v-5.023zm62.625-78.071c8.758 0 15.858-7.1 15.858-15.859a15.86 15.86 0 0 0-15.858-15.858 15.86 15.86 0 0 0-15.858 15.858c0 8.759 7.1 15.859 15.858 15.859z"/></g><path d="M366.906 117.795a6.9 6.9 0 0 0 6.897-6.897 6.9 6.9 0 0 0-6.897-6.897 6.9 6.9 0 0 0-6.897 6.897 6.9 6.9 0 0 0 6.897 6.897z" fill="#fff"/><path d="M283.4 53.898a15.86 15.86 0 0 0 15.858-15.858A15.86 15.86 0 0 0 283.4 22.181a15.86 15.86 0 0 0-15.858 15.858A15.86 15.86 0 0 0 283.4 53.898z" class="B"/><path d="M283.4 44.936a6.9 6.9 0 0 0 6.897-6.897 6.9 6.9 0 0 0-6.897-6.897 6.9 6.9 0 0 0-6.897 6.897 6.9 6.9 0 0 0 6.897 6.897z" fill="#fff"/><path d="M247.142 90.155c8.759 0 15.859-7.1 15.859-15.858s-7.1-15.858-15.859-15.858a15.86 15.86 0 0 0-15.858 15.858 15.86 15.86 0 0 0 15.858 15.858z" class="B"/><path d="M247.142 81.194a6.9 6.9 0 0 0 6.898-6.897 6.9 6.9 0 0 0-6.898-6.897 6.9 6.9 0 0 0-6.897 6.897 6.9 6.9 0 0 0 6.897 6.897zm105.54 124.579h-38.907v4.077h38.907v-4.077z" fill="#fff"/></g><path d="M299.258 318.898H279.96v8.79h19.298v-8.79z" class="B C D E"/><path d="M60.972 178.228l-.466-1.206-.466 1.206-1.623 4.197-4.197 1.623-1.206.466 1.206.467 4.197 1.623 1.623 4.197.467 1.208.466-1.209 1.623-4.213 4.195-1.606 1.214-.464-1.212-.469-4.197-1.623-1.623-4.197zM77.346 2.96l-.466-1.206-.466 1.206-1.623 4.197-4.197 1.623-1.206.466 1.206.466 4.197 1.623 1.623 4.197.466 1.206.466-1.206 1.623-4.197 4.197-1.623 1.206-.466-1.206-.466-4.197-1.623-1.623-4.197zm88.15 37.824l-.469-1.212-.464 1.214-1.606 4.195-4.213 1.623-1.209.466 1.208.467 4.197 1.623 1.623 4.197.467 1.206.466-1.206 1.623-4.197 4.197-1.623 1.206-.466-1.206-.466-4.197-1.623-1.623-4.197zm148.746 96.183l-.469-1.218-.465 1.219-1.606 4.212-4.213 1.623-1.215.468 1.216.466 4.196 1.606 1.623 4.212.466 1.212.467-1.212 1.623-4.212 4.195-1.606 1.214-.465-1.212-.469-4.197-1.623-1.623-4.213zm65.153-127.9l-.466-1.211-.467 1.211-1.623 4.213-4.195 1.606-1.214.465 1.212.469 4.197 1.623 1.623 4.197.467 1.206.466-1.206 1.623-4.197 4.197-1.623 1.212-.469-1.213-.465-4.196-1.606-1.623-4.213z" stroke="#fff" fill="#fff"/><path d="M238.08 150.089l-.468-1.212-.465 1.214-1.606 4.195-4.213 1.623-1.209.466 1.209.467 4.197 1.623 1.623 4.197.467 1.208.466-1.209 1.622-4.212 4.196-1.607 1.213-.464-1.212-.469-4.197-1.623-1.623-4.197zM171.496 161.3l-.469-1.212-.464 1.214-1.606 4.195-4.213 1.623-1.209.466 1.208.467 4.197 1.623 1.623 4.197.467 1.206.466-1.206 1.623-4.197 4.197-1.623 1.206-.467-1.206-.466-4.197-1.623-1.623-4.197zM58.866 302.49l-.465-1.219-.469 1.217-1.623 4.214-4.197 1.623-1.212.469 1.214.464 4.195 1.606 1.623 4.213.469 1.217.465-1.219 1.606-4.211 4.211-1.606 1.219-.464-1.217-.469-4.212-1.623-1.606-4.212zm71.452-17.383l-.465-1.219-.469 1.217-1.623 4.214-4.214 1.623-1.217.469 1.219.465 4.212 1.606 1.623 4.212.469 1.217.465-1.218 1.605-4.212 4.212-1.605 1.218-.465-1.217-.469-4.212-1.623-1.606-4.212z" class="B E"/><path d="M162.381 215.207l5.177 13.485 13.502 5.194-13.502 5.195-5.177 13.484-5.212-13.484-13.485-5.195 13.502-5.194 5.195-13.485z" class="C D E F"/></svg>