<svg xmlns="http://www.w3.org/2000/svg" width="628" height="118" fill="none" preserveAspectRatio="none" xmlns:v="https://vecta.io/nano"><path opacity=".07" d="M617.331 57.165l6.752-2.168c1.936-.621 3.917.823 3.917 2.857V115a3 3 0 0 1-3 3H3a3 3 0 0 1-3-3V5.055a3 3 0 0 1 3.739-2.908l5.842 1.485a3 3 0 0 0 1.746-.082L20.151.407a3 3 0 0 1 2.248.095l9.232 4.196a3 3 0 0 0 1.028.261l10.43.744a3 3 0 0 0 .442-.001l10.025-.764a3 3 0 0 1 .441-.001l10.613.757a3 3 0 0 0 .706-.033l10.328-1.719a3 3 0 0 1 1.018.006l9.958 1.772L96.87 7.734a3 3 0 0 0 1.157 0l10.249-2.015 10.556-1.816a2.97 2.97 0 0 0 .529-.142l8.318-3.066a3 3 0 0 1 3.251.79l8.849 9.675a3 3 0 0 0 1.51.892l10.027 2.418a3.01 3.01 0 0 1 .524.179l10.205 4.574c.245.11.503.186.769.227l9.171 1.416c.584.09 1.181.006 1.718-.242l9.254-4.282a3 3 0 0 1 2.266-.104l8.524 3.034c.516.183.972.505 1.318.929l9.142 11.195a3 3 0 0 0 3.664.786l6.98-3.486a3 3 0 0 1 3.588.697l8.44 9.546a2.99 2.99 0 0 0 1.21.828l8.572 3.159a3 3 0 0 0 2.856-.429l6.827-5.206a3 3 0 0 1 4.161.51l7.527 9.396a3 3 0 0 0 4.159.511l7.102-5.41a3 3 0 0 1 3.008-.367l8.855 3.826 11.189 3.192 9.035 2.26a3 3 0 0 0 2.059-.222l9.422-4.666a3 3 0 0 1 2.337-.138l9.043 3.218c.15.054.305.095.462.124l10.048 1.852a3 3 0 0 0 1.087 0l9.527-1.756a3 3 0 0 1 1.488.103l9.1 3.018a3 3 0 0 0 1.982-.032l10.203-3.761 11.188-3.192 9.155-3.977a3 3 0 0 1 1.954-.151l9.949 2.602c.158.041.311.095.46.161l10.243 4.556 10.11 3.85c.471.179.98.237 1.479.168l10.788-1.491 9.763-2.357a3 3 0 0 1 1.408 0l9.489 2.291c.182.044.368.071.555.08l10.066.504a3 3 0 0 0 2.112-.727l7.118-6.154a3 3 0 0 1 3.613-.236l9.263 6.104a3 3 0 0 0 1.651.495h8.941a3 3 0 0 0 .526-.047l10.666-1.902c.174-.031.345-.077.511-.139l10.313-3.801c.176-.065.359-.114.544-.144l10.143-1.688a3 3 0 0 1 1.499.133l8.729 3.106a3 3 0 0 0 2.011 0l9.461-3.367 9.59-3.424a3 3 0 0 1 3.301.89l8.506 10.076c.171.203.369.382.587.533l10.619 7.338c.395.273.85.447 1.327.508l8.996 1.143a3 3 0 0 0 1.447-.173l9.177-3.499a3 3 0 0 1 1.216-.193l9.655.474c.36.018.72-.03 1.064-.14z" fill="#f12052"/></svg>