<svg xmlns="http://www.w3.org/2000/svg" width="295" height="118" fill="none" preserveAspectRatio="none" xmlns:v="https://vecta.io/nano"><path opacity=".07" d="M285.895 56.929l2.822.295a2.81 2.81 0 0 0 1.88-.475c1.869-1.277 4.403.061 4.403 2.324V115a3 3 0 0 1-3 3H3a3 3 0 0 1-3-3V5.236a2.41 2.41 0 0 1 3.552-2.117c.831.449 1.847.372 2.6-.199l1.8-1.365a3 3 0 0 1 3.899.234l2.549 2.466a3 3 0 0 0 1.636.81l3.843.584a3 3 0 0 0 .931-.005l3.986-.647a3 3 0 0 1 .931-.005l4.046.614a3 3 0 0 0 1.452-.138l3.511-1.244a3 3 0 0 1 2.065.022L40.69 5.72l3.928 1.644a3 3 0 0 0 2.316 0l3.928-1.644 4.64-1.699a3 3 0 0 0 .82-.457l1.474-1.157a3 3 0 0 1 4.608 1.176l3.121 7.263a3 3 0 0 0 1.386 1.485l3.909 2.007a3 3 0 0 1 .701.498l4.282 4.085a3 3 0 0 0 1.134.679l2.535.833a3 3 0 0 0 3.042-.713l2.103-2.072a3 3 0 0 1 3.917-.254l2.166 1.641a3 3 0 0 1 .989 1.317l3.555 9.267c.645 1.682 2.827 2.112 4.062.799 1.215-1.291 3.357-.9 4.037.737l3.167 7.625c.198.475.514.892.919 1.21l1.853 1.454a2.97 2.97 0 0 0 4.359-.778c1.294-2.1 4.435-1.797 5.304.511l.985 2.618c.873 2.319 4.029 2.624 5.329.515.984-1.595 3.178-1.898 4.557-.629l2.038 1.874c.145.134.304.253.473.356l5.002 3.038 2.731 1.454a3 3 0 0 0 3.587-.584l2.006-2.115a3 3 0 0 1 3.988-.327l2.446 1.853c.22.166.46.301.716.401l3.605 1.414a3 3 0 0 0 2.191 0l2.486-.975a3 3 0 0 1 2.826.342l1.94 1.37a3 3 0 0 0 3.583-.09l3.498-2.745 4.998-3.036a3 3 0 0 0 .479-.361l2.929-2.709a3 3 0 0 1 3.497-.418l3.026 1.685c.219.122.422.271.603.443l4.643 4.396 3.862 3.131a3 3 0 0 0 2.736.548l3.641-1.071a2.98 2.98 0 0 0 .525-.21l3.293-1.693a3 3 0 0 1 2.743 0l3.048 1.567c.328.169.686.276 1.053.315l2.874.306a3 3 0 0 0 2.954-1.551l1.327-2.444c1.059-1.948 3.792-2.115 5.079-.309l1.911 2.68a3 3 0 0 0 2.442 1.259h2.652c.363 0 .724-.066 1.064-.195l4.314-1.638a2.98 2.98 0 0 0 .787-.444l4.34-3.405c.256-.201.543-.359.85-.468l3.268-1.158a3 3 0 0 1 2.814.436l1.816 1.376a3 3 0 0 0 3.623 0l3.105-2.352 2.278-1.732a3 3 0 0 1 4.604 1.283l3.169 7.99a3.03 3.03 0 0 0 .307.581l4.615 6.789a3 3 0 0 0 1.698 1.209l2.361.639a3 3 0 0 0 2.674-.566l2.759-2.239a3 3 0 0 1 2.203-.654z" fill="#f12052"/></svg>