<svg xmlns="http://www.w3.org/2000/svg" width="890" height="118" fill="none" preserveAspectRatio="xMidYMid slice" xmlns:v="https://vecta.io/nano"><path opacity=".07" d="M874.522 57.246l11.815-2.676A3 3 0 0 1 890 57.496V115a3 3 0 0 1-3 3H3a3 3 0 0 1-3-3V4.783A3 3 0 0 1 3.53 1.83l10.669 1.913a3 3 0 0 0 1.261-.043L29.347.209a3 3 0 0 1 1.648.053l14.155 4.54a3 3 0 0 0 .765.14l15.464.778 14.833-.798 15.605.785a3 3 0 0 0 .501-.017l15.244-1.79c.241-.028.484-.027.724.003l14.472 1.817 14.932 2.071c.274.038.551.038.825 0l14.932-2.071 15.345-1.862L182.203.37a3 3 0 0 1 2.588.528l13.588 10.484a3 3 0 0 0 1.329.582l15.12 2.573 15.061 4.763a2.98 2.98 0 0 0 .579.122l13.896 1.514a3 3 0 0 0 1.256-.131l14.419-4.707a3 3 0 0 1 1.662-.058l13.303 3.341a3 3 0 0 1 1.231.64l14 12.097a3 3 0 0 0 2.958.559l12.646-4.456a3 3 0 0 1 2.869.485l13.035 10.403c.328.262.709.453 1.116.559l13.588 3.534a3 3 0 0 0 2.176-.261l11.958-6.434a3 3 0 0 1 3.405.391l12.724 11.208a3 3 0 0 0 3.403.391l12.407-6.668a3 3 0 0 1 2.296-.227l13.638 4.158 15.856 3.192 13.551 2.391a3 3 0 0 0 1.511-.122l14.779-5.165a3 3 0 0 1 1.721-.078l13.961 3.506 14.958 1.945a3 3 0 0 0 .774 0l14.418-1.875c.357-.046.72-.028 1.07.054l14.093 3.299a3 3 0 0 0 1.439-.018l15.139-3.937 15.856-3.192 13.621-4.175a3 3 0 0 1 1.423-.082l15.135 2.793 14.833 4.656 14.818 3.982a3 3 0 0 0 1.07.089l15.825-1.543 14.329-2.441c.333-.057.674-.057 1.008 0l14.329 2.441 15.468.546c.587.021 1.167-.131 1.669-.437l11.67-7.121a3 3 0 0 1 2.828-.159l14.821 6.891a3 3 0 0 0 1.265.28h13.659l15.856-1.995 15.345-3.991 15.309-1.798a3 3 0 0 1 1.081.07l13.569 3.407a3 3 0 0 0 1.461 0l14.103-3.541 14.884-3.75a3 3 0 0 1 2.657.607l12.868 10.756a3 3 0 0 0 .609.395l15.543 7.579a3 3 0 0 0 1.046.291l13.752 1.233a3 3 0 0 0 1.047-.091l13.884-3.735a3 3 0 0 1 .883-.101l14.508.503a2.99 2.99 0 0 0 .766-.072z" fill="#f12052"/></svg>