<svg width="21" height="21" viewBox="0 0 21 21" fill="none" xmlns="http://www.w3.org/2000/svg">
<g id="entypo:phone">
<path id="Vector" d="M14.8444 5.56138C14.9671 5.65067 15.0174 5.76972 14.995 5.91853L13.5665 14.49C13.5479 14.5978 13.4883 14.6815 13.3879 14.7411C13.3358 14.7708 13.2781 14.7857 13.2149 14.7857C13.174 14.7857 13.1293 14.7764 13.081 14.7578L10.5531 13.7254L9.20263 15.3717C9.13566 15.4572 9.04452 15.5 8.92919 15.5C8.88083 15.5 8.83991 15.4926 8.80642 15.4777C8.73574 15.4516 8.67901 15.4079 8.63622 15.3465C8.59344 15.2852 8.57205 15.2173 8.57205 15.1429V13.1953L13.3935 7.28571L7.42808 12.4475L5.22383 11.5435C5.08619 11.4914 5.01178 11.3891 5.00062 11.2366C4.99318 11.0878 5.0527 10.9781 5.17919 10.9074L14.4649 5.55022C14.5207 5.51674 14.5802 5.5 14.6435 5.5C14.7179 5.5 14.7848 5.52046 14.8444 5.56138Z" fill="#000"/>
</g>
</svg>
