<svg width="12" height="11" viewBox="0 0 12 11" fill="none" xmlns="http://www.w3.org/2000/svg">
<path d="M2.54818 1.41676C2.54802 1.72618 2.42496 2.02287 2.20606 2.24155C1.98715 2.46023 1.69035 2.583 1.38093 2.58285C1.07151 2.58269 0.774823 2.45963 0.55614 2.24072C0.337457 2.02182 0.214689 1.72501 0.214844 1.4156C0.214999 1.10618 0.338063 0.809491 0.556965 0.590808C0.775867 0.372125 1.07267 0.249357 1.38209 0.249512C1.69151 0.249667 1.9882 0.372731 2.20688 0.591633C2.42556 0.810535 2.54833 1.10734 2.54818 1.41676ZM2.58318 3.44676H0.249844V10.7501H2.58318V3.44676ZM6.26984 3.44676H3.94818V10.7501H6.24651V6.9176C6.24651 4.7826 9.02901 4.58426 9.02901 6.9176V10.7501H11.3332V6.12426C11.3332 2.52509 7.21484 2.65926 6.24651 4.42676L6.26984 3.44676Z" fill="black"/>
</svg>
