<svg width="21" height="21" viewBox="0 0 21 21" fill="none" xmlns="http://www.w3.org/2000/svg">
<g id="iconoir:mail">
<g id="Group">
<path id="Vector" d="M5.5 8L10.5 11.5L15.5 8" stroke="#000" stroke-width="1.5" stroke-linecap="round" stroke-linejoin="round"/>
<path id="Vector_2" d="M2 15.5V5.5C2 4.96957 2.17911 4.46086 2.49792 4.08579C2.81673 3.71071 3.24913 3.5 3.7 3.5H17.3C17.7509 3.5 18.1833 3.71071 18.5021 4.08579C18.8209 4.46086 19 4.96957 19 5.5V15.5C19 16.0304 18.8209 16.5391 18.5021 16.9142C18.1833 17.2893 17.7509 17.5 17.3 17.5H3.7C3.24913 17.5 2.81673 17.2893 2.49792 16.9142C2.17911 16.5391 2 16.0304 2 15.5Z" stroke="#000" stroke-width="1.5"/>
</g>
</g>
</svg>
