<svg xmlns="http://www.w3.org/2000/svg" width="45" height="45" fill="none"  ><path d="M45 22.335a22.19 22.19 0 0 1-6.59 15.764c-4.22 4.181-9.942 6.53-15.91 6.53s-11.69-2.349-15.91-6.53A22.19 22.19 0 0 1 0 22.335 22.19 22.19 0 0 1 6.59 6.571C10.81 2.39 16.533.041 22.5.041s11.69 2.349 15.91 6.53A22.19 22.19 0 0 1 45 22.335h0zm-25.903-8.101c-.21-.148-.458-.236-.715-.255a1.42 1.42 0 0 0-.744.151 1.4 1.4 0 0 0-.556.513c-.134.218-.206.469-.206.725v13.934c0 .256.071.507.206.725a1.4 1.4 0 0 0 .556.513 1.42 1.42 0 0 0 .744.151c.258-.018.505-.106.715-.255l9.844-6.967c.182-.129.331-.299.433-.496s.156-.416.156-.638-.053-.441-.156-.638-.251-.367-.433-.496l-9.844-6.967h0z" fill="#a4bec1" style="mix-blend-mode:luminosity"/></svg>