<svg xmlns="http://www.w3.org/2000/svg" width="24" height="24" fill="none"  ><rect width="24" height="24" rx="12" fill="#fff"/><path d="M19.995 6.542a6.57 6.57 0 0 1-1.884.516 3.29 3.29 0 0 0 1.442-1.816 6.55 6.55 0 0 1-2.083.796 3.28 3.28 0 0 0-3.945-.65 3.28 3.28 0 0 0-1.646 3.643c-1.305-.066-2.581-.405-3.746-.995s-2.193-1.42-3.017-2.433a3.28 3.28 0 0 0-.056 3.198 3.28 3.28 0 0 0 1.072 1.183c-.521-.017-1.03-.157-1.486-.411v.042a3.28 3.28 0 0 0 2.632 3.217c-.483.131-.99.15-1.482.056.21.652.618 1.222 1.167 1.63s1.213.635 1.898.647c-1.162.912-2.597 1.407-4.075 1.405-.262 0-.523-.015-.783-.046A9.28 9.28 0 0 0 9.032 18c6.036 0 9.335-4.999 9.335-9.335a9.52 9.52 0 0 0-.01-.424 6.67 6.67 0 0 0 1.636-1.697l.001-.002z" fill="#14213d"/></svg>