<svg xmlns="http://www.w3.org/2000/svg" width="24" height="24" fill="none"  ><path d="M22.459 6.012a8.58 8.58 0 0 1-2.465.676c.886-.531 1.567-1.372 1.887-2.374a8.59 8.59 0 0 1-2.725 1.041C18.373 4.521 17.258 4 16.024 4c-2.37 0-4.292 1.921-4.292 4.292 0 .336.038.664.111.978-3.567-.179-6.729-1.888-8.846-4.484a4.27 4.27 0 0 0-.581 2.158 4.29 4.29 0 0 0 1.909 3.572c-.703-.022-1.365-.215-1.944-.537v.054c0 2.079 1.479 3.814 3.443 4.208-.36.098-.739.151-1.131.151-.277 0-.545-.027-.807-.077.546 1.705 2.131 2.946 4.009 2.98a8.61 8.61 0 0 1-5.33 1.837c-.346 0-.688-.02-1.024-.06C3.44 20.289 5.696 21 8.12 21c7.894 0 12.211-6.539 12.211-12.211 0-.186-.004-.371-.012-.555a8.72 8.72 0 0 0 2.141-2.222z" fill="#fff"/></svg>