<svg xmlns="http://www.w3.org/2000/svg" width="80" height="63" fill="none"><path d="M72.7.7l4.2 7.4c-3.267 1.533-6.4 3.7-9.4 6.5-3 2.733-5.467 5.633-7.4 8.7-2 3-3.067 5.7-3.2 8.1 2-.933 4.3-1.4 6.9-1.4 4.067 0 7.733 1.367 11 4.1 3.2 2.8 4.8 6.767 4.8 11.9 0 4.933-1.667 8.967-5 12.1s-7.567 4.7-12.7 4.7c-5.733 0-10.333-1.967-13.8-5.9s-5.2-8.933-5.2-15c0-6.2 1.467-12 4.4-17.4a49.78 49.78 0 0 1 11.2-14.3c4.533-4.133 9.267-7.3 14.2-9.5zM29.958.7l4.2 7.4c-3.267 1.533-6.4 3.7-9.4 6.5-3 2.733-5.467 5.633-7.4 8.7-2 3-3.067 5.7-3.2 8.1 2-.933 4.3-1.4 6.9-1.4 4.067 0 7.733 1.367 11 4.1 3.2 2.8 4.8 6.767 4.8 11.9 0 4.933-1.667 8.967-5 12.1s-7.567 4.7-12.7 4.7c-5.733 0-10.333-1.967-13.8-5.9s-5.2-8.933-5.2-15c0-6.2 1.467-12 4.4-17.4a49.78 49.78 0 0 1 11.2-14.3c4.533-4.133 9.267-7.3 14.2-9.5z" fill="#ffc800" fill-opacity=".3"/></svg>