<svg xmlns="http://www.w3.org/2000/svg" width="251" height="259" fill="none"  ><g fill="#ffc800"><ellipse cx="125.482" cy="129.5" rx="125.38" ry="129.5" fill-opacity=".25"/><ellipse cx="125.481" cy="129.5" rx="105.048" ry="108.5"/></g><path d="M184.23 163.199c4.097.15 3.741.212 3.76 4.054l-.008 5.629c-.021 1.527-.461 1.951-1.984 1.955l-10.368.004-3.255 6.511c.106.007.483.066.86.066l12.492.007c1.831.004 2.252.425 2.259 2.274l-.004 6.317c-.021 1.517-.468 1.93-1.995 1.978l-.959.004H66.001c-.41 0-.824-.004-1.234-.004-1.194-.007-1.754-.641-1.757-1.802l.004-6.727c.015-1.56.498-2.025 2.083-2.033l12.217-.003h1.362l-3.332-6.577H65.305c-1.951-.004-2.292-.348-2.299-2.337v-6.591c.004-2.322.293-2.612 2.585-2.63h1.175v-1.629-44.216c0-2.128.359-2.494 2.446-2.494l76.056.007c18.73.022 33.953 12.129 37.999 30.289.619 2.783.787 5.691.934 8.551.15 3.091.029 6.2.029 9.397zm-75.496-8.298h72.358v-5.34h-1.805c-8.969 0-17.936-.018-26.905.008-2.849.007-5.016-1.212-6.664-3.443-1.369-1.853-2.101-3.958-2.123-6.262l-.033-11.806v-1.506H69.849v28.378h15.326v-1.538l.004-19.497c.004-1.608.465-2.124 1.988-2.128h19.631c1.461.004 1.929.52 1.933 2.033l.004 11.396v9.705zm71.75-8.258c0-.33.015-.465-.003-.594-.037-.271-.07-.545-.136-.813-1.735-7.13-5.294-13.194-10.738-18.116-.443-.399-1.212-.608-1.83-.611l-19.895-.022c-.439 0-.879.047-1.431.08l.003 4.611c.048 3.244-.08 6.507.227 9.73.363 3.786 2.779 5.735 6.539 5.735h25.661 1.603zm-74.815 16.593v-28.433h-17.43v28.433h17.43zm75.54-5.248h-72.391v5.211h72.391v-5.211zm-28.146 16.904H97.944l-3.225 6.416h61.532l-3.188-6.416zm-67.944-16.897H69.834v5.204h15.285v-5.204zm9.27 16.956H78.888c.794 4.039 4.119 6.617 8.223 6.463 3.621-.132 6.908-3.032 7.278-6.463zm62.236-.041c.194 3.311 3.58 6.35 7.205 6.504 4.163.176 7.714-2.6 8.245-6.504h-15.45zm-9.503-78.468l1.072-1.403 13.136-17.765c1.267-1.714 2.124-1.718 3.347-.007l22.556 31.611c.348.491.655 1.15.63 1.717-.015.396-.626 1.084-.971 1.084-.582-.003-1.365-.289-1.706-.728l-4.939-6.757a4.09 4.09 0 0 0-1.911-1.329l-7.911-2.223c-.703-.202-1.172-.139-1.633.491-.674.922-1.461 1.757-2.19 2.64-.633.762-1.405 1.143-2.251.472-.926-.736-.652-1.585.029-2.384l3.079-3.687c.67-.861 1.45-.992 2.427-.718l6.975 1.915-6.198-8.687-4.866 2.219c-1.439.645-2.006.418-2.687-1.044l-1.04-2.274-4.042 1.989c-.41.201-.805.454-1.237.59-3.669 1.154-6.008 3.827-7.923 6.958-.223.363-.216.905-.201 1.362.007.301.219.594.333.894.337.897.388 1.798-.634 2.216-1.05.428-1.713-.14-2.101-1.147l-4.584-11.744-1.651-4.153c-1.007.967-1.995 1.849-2.885 2.82-.209.227-.22.839-.07 1.146.458.941 1.037 1.827 1.578 2.728.52.864.469 1.641-.325 2.322l-4.577 3.94c-.769.662-1.596.816-2.277-.029s-.326-1.615.432-2.26l3.767-3.234c-.597-1.022-1.094-2.003-1.71-2.9-.827-1.201-.644-2.153.392-3.131 1.23-1.161 2.362-2.424 3.533-3.647.97-1.011.967-1.011.205-2.45l-4.69 1.721c-2.094.769-2.167.747-3.467-1.106-.128-.183-.285-.348-.49-.597l-12.294 6.376c-.429.227-.762.648-1.113 1.007l-21.063 21.259c-.289.293-.575.593-.879.868-.63.575-1.333.655-1.966.073-.685-.622-.674-1.392-.092-2.08.531-.626 1.131-1.198 1.721-1.772l8.559-8.295-5.927-8.027-1.9 2.487c-.882 1.121-1.677 1.304-2.621.311-1.087-1.139-2.156-1.329-3.511-.634-.48.249-1.04.341-1.56.516-.945.322-1.673.091-2.266-.74-.952-1.333-1.951-2.626-3.101-4.16-.227.56-.469.901-.487 1.249-.081 1.692-.136 3.387-.103 5.076.007.319.392.784.71.912.886.359 1.823.59 2.746.846 1.022.286 1.552.879 1.417 1.996l-.637 5.728c-.117.926-.648 1.578-1.647 1.446-.967-.128-1.38-.823-1.278-1.79l.538-4.765-2.87-.883c-1.816-.56-1.966-.773-1.922-2.736.011-.494 0-.989 0-1.849-.458.564-.736.879-.977 1.216L66.225 110.46c-.212.297-.414.612-.666.872-.597.618-1.399.761-1.929.131-.355-.421-.355-1.208-.352-1.831.004-.304.377-.604.589-.901l22.337-31.263c1.399-1.959 2.164-1.97 3.588-.044l13.539 18.322c.271.366.556.718 1.23 1.582.304-.56.458-1.091.802-1.436l27.425-27.711.385-.392c1.263-1.216 2.273-1.036 2.918.593l5.341 13.656 5.038 12.894c.165.439.373.875.652 1.509zm-21.078 52.621c-2.742 0-5.484.011-8.223-.003-1.647-.008-2.083-.4-2.087-1.989V132.4c.004-1.574.484-2.04 2.058-2.043h16.724c1.508.003 1.992.476 1.995 1.948v14.806c-.003 1.546-.402 1.938-1.966 1.945l-8.501.007zm42.554-6.943c-.403.439-.688 1.029-1.102 1.139-.479.128-1.219.007-1.585-.308-1.172-1.007-2.226-2.153-3.321-3.252l-4.448-4.449c-.74-.736-1.069-1.56-.205-2.366.802-.747 1.582-.399 2.274.293l7.531 7.559c.325.329.505.809.856 1.384zm2.789-6.244c-.285.337-.549.912-.973 1.08s-1.183.114-1.491-.172l-4.829-4.867c-.303-.34-.238-1.439.085-1.783.329-.352 1.457-.502 1.772-.22 1.772 1.579 3.408 3.307 5.07 5.006.176.18.198.502.366.956z" fill="#fff"/></svg>