<svg xmlns="http://www.w3.org/2000/svg" width="24" height="24" fill="none"  ><rect width="24" height="24" rx="12" fill="#fff"/><g clip-path="url(#A)"><path fill-rule="evenodd" d="M8.977 4.711L12 4.667l3.023.044c.781.035 1.315.16 1.781.341a3.61 3.61 0 0 1 1.299.847 3.58 3.58 0 0 1 .845 1.298c.181.467.305 1 .341 1.78L19.334 12l-.044 3.023c-.035.78-.16 1.313-.341 1.78-.184.489-.473.933-.845 1.299-.367.373-.81.661-1.299.845-.467.181-1 .305-1.78.341L12 19.333c-1.992 0-2.241-.009-3.023-.044s-1.313-.16-1.78-.341a3.6 3.6 0 0 1-1.299-.845c-.373-.366-.662-.809-.846-1.299-.181-.467-.305-1-.341-1.78L4.667 12l.044-3.023c.035-.781.16-1.315.341-1.781.184-.489.473-.932.847-1.299.366-.373.809-.662 1.298-.846.467-.181 1-.305 1.78-.341h.001zm5.987 1.32L12 5.988l-2.963.043c-.715.033-1.103.152-1.362.253-.342.133-.587.291-.843.548-.243.237-.431.525-.548.843-.101.259-.22.647-.253 1.362L5.988 12l.043 2.963c.033.715.152 1.103.253 1.362.117.318.305.607.548.843.237.243.525.431.843.548.259.101.647.22 1.362.253l2.963.043 2.963-.043c.715-.033 1.103-.152 1.362-.253.342-.133.587-.291.843-.548.243-.237.431-.525.548-.843.101-.259.22-.647.253-1.362L18.012 12l-.043-2.963c-.033-.715-.152-1.103-.253-1.362-.133-.342-.291-.587-.548-.843-.237-.243-.525-.431-.843-.548-.259-.101-.647-.22-1.362-.253zm-3.9 8.23c.523.218 1.105.247 1.648.083s1.011-.511 1.326-.982.456-1.037.4-1.601-.306-1.091-.707-1.491c-.256-.256-.565-.451-.906-.573s-.704-.167-1.064-.131-.708.15-1.018.336-.575.438-.776.739-.333.642-.386 1-.026.723.079 1.069.285.665.528.933.542.479.876.617zM9.335 9.335A3.77 3.77 0 0 1 12 8.23a3.77 3.77 0 0 1 2.665 1.104A3.77 3.77 0 0 1 15.77 12a3.77 3.77 0 0 1-1.104 2.665 3.77 3.77 0 0 1-5.331 0 3.77 3.77 0 0 1 0-5.331zm7.271-.543c.087-.082.156-.18.204-.289s.074-.227.075-.346a.89.89 0 0 0-.261-.643.89.89 0 0 0-.643-.261.89.89 0 0 0-.635.28.89.89 0 0 0 .018 1.242.89.89 0 0 0 1.242.018z" fill="#14213d"/></g><defs><clipPath id="A"><path fill="#fff" transform="translate(4 4)" d="M0 0h16v16H0z"/></clipPath></defs></svg>