<svg xmlns="http://www.w3.org/2000/svg" width="252" height="259" fill="none"  ><g fill="#ffc800"><ellipse cx="125.966" cy="129.5" rx="125.38" ry="129.5" fill-opacity=".25"/><ellipse cx="125.966" cy="129.5" rx="105.048" ry="108.5"/></g><path d="M185.93 112.386l-38.668-16.004c-3.424-1.417-5.814.283-5.814 4.127v50.99 1.221h7.541v-1.272l-.016-10.881c-.01-.861.215-1.323 1.005-1.728l35.571-18.278c1.457-.746 2.732-1.586 3.451-3.145v-2.024c-.608-1.458-1.617-2.409-3.07-3.006zm-34.167 16.148v-20.545l22.362 7.794-22.362 12.751zM110.339 79.17c-.062 4.93-1.291 9.508-3.714 13.726l-17.571 30.483c-1.174 2.031-2.885 2.004-4.055-.054L67.841 93.028c-4.95-9.012-5.356-18.217.195-27.152 5.187-8.348 15.018-12.316 24.228-10.102 9.398 2.261 16.397 10.085 17.753 19.874.163 1.167.218 2.348.322 3.523zM86.895 91.975c6.485.125 11.886-5.321 12.052-12.144.159-6.647-5.135-12.393-11.545-12.528-6.716-.142-12.189 5.264-12.286 12.127-.097 6.829 5.148 12.417 11.779 12.545zm6.66 38.847l4.257-7.335c.163-.274.654-.469.992-.469l14.751.023c7.666.216 13.61 6.809 13.523 14.806-.085 7.791-6.199 14.209-13.796 14.263l-33.896.03c-3.75.007-6.693 2.325-7.467 5.81-1.054 4.744 2.273 9.229 6.966 9.299l11.948.014h35.968 1.324l.393 7.767c-.214.01-.598.051-.982.051-16.133.003-32.27.013-48.404-.004-7.877-.006-14.104-5.975-14.921-14.228-.735-7.44 4.491-14.59 11.886-16.183 1.184-.253 2.42-.324 3.633-.327h32.677c2.495.007 4.573-.773 5.997-2.942 1.418-2.156 1.581-4.505.452-6.836-1.151-2.379-3.092-3.695-5.665-3.719l-18.046-.023-1.59.003zm42.186 39.41c.026-5.48 4.27-9.843 9.561-9.826 5.262.017 9.539 4.481 9.503 9.914-.036 5.439-4.348 9.866-9.59 9.849-5.249-.017-9.5-4.474-9.474-9.937zM87.008 75.115c2.449-.01 4.436 2.045 4.41 4.562-.026 2.45-2.01 4.498-4.371 4.511-2.42.014-4.407-2.068-4.39-4.596.016-2.49 1.938-4.467 4.351-4.478z" fill="#fff"/></svg>