<svg xmlns="http://www.w3.org/2000/svg" width="251" height="259" fill="none"  ><g fill="#ffc800"><ellipse cx="125.38" cy="129.5" rx="125.38" ry="129.5" fill-opacity=".25"/><ellipse cx="125.38" cy="129.5" rx="105.048" ry="108.5"/></g><path d="M62 108.166v-6.592l1.257-7.419c5.005-18.94 17.009-30.92 36.003-35.798 2.341-.601 4.78-.82 7.173-1.216h6.591c.31.071.62.181.935.208 5.65.469 11.079 1.841 16.133 4.394 16.215 8.2 25.361 21.338 27.162 39.472.118 1.184.501 1.682 1.648 2.075 13.591 4.646 22.456 13.914 26.579 27.649.752 2.507 1.026 5.161 1.519 7.746v6.104c-.073.312-.181.622-.21.939a39 39 0 0 1-4.868 15.564c-.418.742-.461 1.38-.239 2.168l4.765 17.114c.113.405.186.823.298 1.328-.305-.063-.461-.085-.613-.127l-17.468-4.856c-1.054-.3-1.85-.127-2.844.301-3.156 1.357-6.35 2.658-9.621 3.696-2.102.666-4.363.835-6.553 1.225h-6.103c-.313-.073-.62-.185-.938-.214-16.035-1.539-29.753-12.703-34.572-28.203-.276-.886-.659-1.201-1.57-1.262a47.33 47.33 0 0 1-20.363-6.099c-.391-.219-1.013-.234-1.467-.112L71.6 149.825l-9.365 2.573c.127-.556.198-.942.303-1.32l5.674-20.413c.3-1.052.249-1.865-.303-2.841-2.212-3.909-3.821-8.072-4.717-12.481-.483-2.375-.801-4.785-1.191-7.177zm10.698 33.705c.374-.088.562-.124.745-.176l11.858-3.291c.952-.278 1.663-.151 2.488.374 9.206 5.854 19.204 7.768 29.899 5.703 22.09-4.265 36.584-26.43 31.396-48.473-3.601-15.295-13.215-25.581-28.31-29.899-15.004-4.294-28.505-.649-39.63 10.325-13.63 13.447-15.652 34.064-5.305 50.414.496.784.635 1.46.371 2.373l-3.511 12.651zm84.454-31.476c-1.45 11.059-5.967 20.466-13.735 28.219-7.761 7.752-17.175 12.251-28.137 13.679.117.388.186.652.276.908 4.36 12.317 16.821 21.306 29.924 21.602 7.075.161 13.581-1.651 19.482-5.572.696-.461 1.308-.603 2.146-.341 2.285.71 4.607 1.308 6.916 1.941.711.195 1.433.354 2.271.559-.821-2.972-1.524-5.769-2.386-8.516-.388-1.238-.229-2.163.474-3.264 8.594-13.454 6.558-30.651-4.914-41.747-3.489-3.374-7.537-5.862-12.317-7.468zm-54.827-16.677h-7.16c-.144-2.5.486-4.783 1.685-6.873 3.071-5.356 7.769-8.091 13.923-7.651 6.04.432 10.401 3.66 12.573 9.341 2.21 5.776.989 11.055-3.254 15.537-1.672 1.768-3.528 3.377-5.386 4.956-.981.835-1.467 1.709-1.34 3.025.12 1.245.025 2.507.025 3.845h-7.327l.002-3.562c.015-1.745-.441-3.706.206-5.178s2.397-2.463 3.674-3.652c1.667-1.553 3.391-3.044 5.005-4.651 2.189-2.183 2.695-5.481 1.381-8.235a7.38 7.38 0 0 0-7.268-4.155c-3.012.266-5.58 2.424-6.389 5.395-.156.576-.224 1.182-.349 1.858zm10.967 36.874h-7.124v-7.214h7.124v7.214z" fill="#fff"/></svg>