<svg xmlns="http://www.w3.org/2000/svg" width="251" height="259" fill="none"  ><g fill="#ffc800"><ellipse cx="125.551" cy="129.5" rx="125.38" ry="129.5" fill-opacity=".25"/><ellipse cx="125.551" cy="129.5" rx="105.048" ry="108.5"/></g><path d="M68.259 139.887v46.828h26v-1.703-77.934c0-2.844.742-3.599 3.546-3.599h55.398c2.8 0 3.546.759 3.546 3.603v77.934 1.706h25.956v-46.771l-1.337-.06-15.486-.004c-.336 0-.672.007-1.007-.003-1.804-.044-2.895-1.048-2.868-2.626.027-1.524 1.101-2.501 2.844-2.511l10.074-.007 7.931.01c2.921.044 5.121 2.182 5.124 5.097l.003 46.962c-.003 2.982-2.192 5.09-5.194 5.181l-1.008.007c-37.52 0-75.041 0-112.559-.007-.752 0-1.528.017-2.253-.148-2.341-.53-3.932-2.552-3.949-5.036l-.013-13.472v-32.735c0-3.885 1.991-5.859 5.896-5.859l16.87.007c.537 0 1.108.013 1.608.184 1.145.393 1.79 1.622 1.588 2.834-.215 1.276-1.219 2.105-2.72 2.109l-16.366.01-1.625.003zm44.213 46.865v-1.602-26.056c0-2.68.856-3.543 3.536-3.546h19.008c2.677.003 3.536.87 3.536 3.546v26.184 1.477h12.931v-78.014H99.547v78.014l12.925-.003zm5.278-25.973v25.949h15.463v-25.949H117.75zM125.406 67c2.183.023 3.761.981 4.752 2.837l2.209 4.372a2.33 2.33 0 0 0 1.37 1.007c1.431.312 2.895.453 4.348.651 2.213.299 3.886 1.346 4.621 3.526.745 2.209.151 4.12-1.504 5.728l-3.221 3.183a2.33 2.33 0 0 0-.523 1.618c.174 1.578.533 3.136.789 4.708.339 2.082-.292 3.838-1.978 5.114-1.679 1.269-3.549 1.447-5.45.531l-4.452-2.331c-.622-.349-1.109-.339-1.723.01l-4.11 2.173c-1.958 1.011-3.899 1-5.685-.323-1.817-1.346-2.478-3.2-2.035-5.44.155-.779.138-1.615.41-2.347.833-2.236.211-3.905-1.693-5.272-.775-.554-1.417-1.309-2.068-2.018-2.814-3.042-1.38-7.757 2.666-8.653 1.672-.369 3.388-.547 5.091-.772.728-.094 1.192-.386 1.507-1.091l2.166-4.392c.961-1.82 2.505-2.753 4.513-2.82zm-11.954 14.113l4.557 4.721c.873.87 1.246 1.813 1.014 3.056l-1.115 6.695 5.53-2.894c1.424-.84 2.69-.85 4.117-.01l5.527 2.911-1.091-6.541c-.296-1.414.185-2.401 1.152-3.361l4.355-4.58c-1.384-.215-2.821-.635-4.251-.625-3.036.02-4.795-1.414-5.752-4.207-.46-1.34-1.236-2.569-1.975-4.056l-2.992 6c-.557 1.165-1.386 1.796-2.693 1.951l-6.383.94zM81.156 95.921l.517-3.358a2.11 2.11 0 0 0-.463-1.397c-.672-.799-1.498-1.464-2.216-2.23-1.219-1.299-1.618-2.841-1.044-4.533.568-1.675 1.756-2.945 3.536-2.975 3.009-.05 4.788-1.333 5.782-4.18.578-1.655 2.109-2.431 3.915-2.441 1.8-.007 3.401.732 3.945 2.384.977 2.968 2.921 3.956 5.877 4.268 3.458.366 4.835 4.59 2.565 7.266-.729.86-1.652 1.558-2.367 2.428a2.35 2.35 0 0 0-.47 1.511c.057.997.325 1.981.47 2.975.252 1.719-.309 3.166-1.666 4.227-1.4 1.095-2.992 1.279-4.62.567-1.034-.45-1.991-1.081-3.029-1.524a1.92 1.92 0 0 0-1.353.003c-1.075.46-2.062 1.125-3.143 1.572-3.032 1.266-6.259-.937-6.236-4.563zm14.822-.95c-1.739-3.67-.648-6.45 2.636-8.495-1.864-.474-3.7-.487-4.899-1.37s-1.746-2.629-2.619-4.056l-1.299 2.632c-.554 1.35-1.511 2.045-2.955 2.176-.964.087-1.917.279-2.901.426 1.122 1.347 2.576 2.418 3.015 3.811.45 1.427-.094 3.166-.198 4.691 1.467-.588 2.968-1.666 4.459-1.655s2.982 1.101 4.761 1.84zm63.9-20.184c1.716.034 3.281.749 3.818 2.347 1.004 2.995 2.958 4.019 5.977 4.335 3.401.353 4.748 4.54 2.559 7.196-.292.356-.591.739-.971.98-2.025 1.279-2.223 3.046-1.612 5.181.581 2.025.115 3.851-1.658 5.144-1.73 1.259-3.647 1.239-5.279.013-2.183-1.639-3.979-1.058-6.091.168-3.126 1.814-6.793-.228-6.833-3.673-.014-1.199.228-2.424.513-3.596.212-.87-.03-1.414-.661-1.961-.699-.601-1.34-1.269-1.978-1.934-1.239-1.289-1.625-2.834-1.105-4.526.538-1.753 1.77-3.009 3.6-3.059 3.005-.081 4.768-1.38 5.749-4.234.56-1.662 2.145-2.377 3.972-2.381zm.141 6.098l-.302.178-1.306 2.669c-.548 1.279-1.468 1.974-2.858 2.112l-3.448.507c3.683 2.162 4.503 5.027 3.075 8.764 3.086-2.582 6.055-2.602 9.036.02-.12-1.937-.664-3.69-.198-5.111.46-1.4 1.945-2.465 3.224-3.962-4.09.453-6.387-1.356-7.223-5.178zm9.727 79.847c-1.635 0-3.274.02-4.909-.006-1.82-.027-2.824-1.001-2.834-2.801l.003-10.073c.014-1.649 1.021-2.7 2.66-2.72l10.197-.003c1.703.017 2.724 1.074 2.734 2.79l-.004 9.946c-.02 1.853-1.061 2.82-2.934 2.864h-.125l-4.788.003zm-2.505-5.308h5.03v-5.017h-5.03v5.017zm-78.23-2.461l-.003 4.909c-.023 1.816-.997 2.837-2.784 2.854a554.16 554.16 0 0 1-10.07-.004c-1.642-.016-2.71-1.027-2.733-2.662l.003-10.322c.027-1.565 1.098-2.582 2.67-2.602l10.322.003c1.561.02 2.552 1.084 2.586 2.663l.01 5.161zm-5.265 2.484v-5.013h-5.007v5.013h5.007zm5.264 18.317l-.007 5.037c-.027 1.719-1.017 2.76-2.737 2.78h-10.07c-1.709-.02-2.76-1.061-2.78-2.76v-10.07c.02-1.73 1.048-2.74 2.764-2.757l10.07-.003c1.753.013 2.703 1 2.76 2.736a6.23 6.23 0 0 1 .003.252l-.003 4.785zm-10.312-2.539v5.071h5.04v-5.071h-5.04zm83.295 2.593l.004-4.909c.02-1.921.95-2.902 2.837-2.915l9.946.003c1.803.017 2.797 1.011 2.814 2.828l-.003 9.945c-.02 1.773-1.072 2.801-2.858 2.817h-9.946c-1.786-.02-2.767-1.057-2.79-2.857l-.004-4.912zm10.322-2.549h-5.077v5.023h5.077v-5.023zm-52.053-49.584l-.007 5.033c-.033 1.729-1.02 2.74-2.753 2.757h-10.07c-1.652-.017-2.72-1.011-2.75-2.656a284.14 284.14 0 0 1 .003-10.322c.03-1.642 1.108-2.602 2.774-2.616h10.07c1.729.014 2.696 1.011 2.73 2.767l.003 5.037zm-10.298-2.522v5h5.07v-5h-5.07zm20.781 2.455l.007-5.034c.037-1.675 1.007-2.679 2.669-2.696h10.195c1.598.013 2.669.967 2.699 2.552.068 3.482.068 6.964 0 10.446-.03 1.581-1.101 2.569-2.682 2.589h-10.195c-1.659-.02-2.649-1.044-2.686-2.693-.037-1.723-.007-3.442-.007-5.164zm10.312 2.588v-5.04H136v5.04h5.057zm-28.529 10.537l5.034.007c1.706.03 2.669.953 2.686 2.653l.003 10.194c-.013 1.658-.993 2.693-2.659 2.72a346.41 346.41 0 0 1-10.194.003c-1.659-.024-2.693-1.034-2.72-2.686-.057-3.398-.054-6.796-.004-10.195.027-1.725 1.075-2.649 2.818-2.696.084-.003.168 0 .251 0h4.785zm2.468 10.325v-5.073h-5.02v5.073h5.02zm23.583-10.325l4.909.004c1.77.023 2.814.936 2.841 2.659.057 3.398.057 6.796 0 10.194-.027 1.713-1.078 2.703-2.818 2.723h-9.942c-1.827-.02-2.804-1.017-2.817-2.824v-9.942c.013-1.854.953-2.784 2.793-2.81l5.034-.004zm-2.613 10.312h5.094v-5.047h-5.094v5.047z" fill="#fff"/></svg>