<svg xmlns="http://www.w3.org/2000/svg" width="132" height="25" fill="none"  ><path d="M11.484 24H7.016V6.078H.281V1.594h17.922v4.484h-6.719V24zm11.438 0h-4.266V7.266h1.031l1.406 1.984c.687-.625 1.469-1.104 2.344-1.437a7.37 7.37 0 0 1 2.719-.516h3.766v4.25h-3.766c-.448 0-.87.083-1.266.25s-.74.396-1.031.688-.521.635-.687 1.031-.25.818-.25 1.266V24zm24.875 0h-1.031l-1.656-2.297a14.09 14.09 0 0 1-1.297 1.031c-.448.313-.922.588-1.422.828-.5.229-1.016.412-1.547.547a6.31 6.31 0 0 1-1.594.203 9.29 9.29 0 0 1-3.328-.594c-1.031-.396-1.937-.969-2.719-1.719-.771-.76-1.38-1.687-1.828-2.781s-.672-2.339-.672-3.734c0-1.302.224-2.495.672-3.578.448-1.094 1.057-2.031 1.828-2.812.781-.781 1.688-1.385 2.719-1.812 1.042-.437 2.151-.656 3.328-.656a6.49 6.49 0 0 1 1.609.203 8.34 8.34 0 0 1 1.547.563c.5.24.974.521 1.422.844a11.44 11.44 0 0 1 1.281 1.047l1.656-1.984h1.031V24zM43.5 15.484a4.29 4.29 0 0 0-.344-1.687c-.219-.552-.521-1.037-.906-1.453-.385-.427-.839-.766-1.359-1.016a3.56 3.56 0 0 0-1.641-.391c-.583 0-1.135.099-1.656.297-.511.198-.958.49-1.344.875-.375.385-.672.865-.891 1.438-.219.563-.328 1.208-.328 1.938s.109 1.38.328 1.953c.219.563.516 1.037.891 1.422.385.385.833.677 1.344.875.521.198 1.073.297 1.656.297a3.68 3.68 0 0 0 1.641-.375 4.69 4.69 0 0 0 1.359-1.016c.385-.427.688-.911.906-1.453a4.4 4.4 0 0 0 .344-1.703zM55.813 24L49.438 7.266h4.859l3.656 10.437 3.641-10.437h4.875L60.094 24h-4.281zm18.438-4.094a2.86 2.86 0 0 0 .5.109l.5.016a4.2 4.2 0 0 0 1.203-.172 4.38 4.38 0 0 0 1.078-.484c.344-.219.646-.479.906-.781a4.13 4.13 0 0 0 .656-1.031l3.125 3.141a8.27 8.27 0 0 1-1.375 1.516c-.511.448-1.068.828-1.672 1.141-.594.313-1.224.547-1.891.703-.656.167-1.333.25-2.031.25-1.177 0-2.287-.219-3.328-.656a8.5 8.5 0 0 1-2.719-1.828c-.771-.781-1.38-1.708-1.828-2.781-.448-1.083-.672-2.271-.672-3.562 0-1.323.224-2.531.672-3.625s1.057-2.026 1.828-2.797c.781-.771 1.688-1.37 2.719-1.797 1.042-.427 2.151-.641 3.328-.641.698 0 1.38.083 2.047.25s1.297.406 1.891.719a8.36 8.36 0 0 1 1.688 1.156c.521.448.979.953 1.375 1.516l-8 9.641zm2.188-8.797c-.198-.073-.396-.12-.594-.141a5.37 5.37 0 0 0-.594-.031c-.583 0-1.135.109-1.656.328-.511.208-.958.51-1.344.906-.375.396-.672.875-.891 1.438-.219.552-.328 1.177-.328 1.875l.016.531.078.609.141.578c.052.188.12.354.203.5l4.969-6.594zM88.703 24h-4.297V.609h4.297V24z" fill="#fff"/><path d="M110.344 17.281c0 .927-.177 1.797-.532 2.609a6.88 6.88 0 0 1-1.453 2.141c-.604.604-1.312 1.083-2.125 1.438s-1.682.531-2.609.531H92.422V1.594h11.203c.927 0 1.797.177 2.609.531s1.521.839 2.125 1.453c.615.604 1.099 1.313 1.453 2.125s.532 1.682.532 2.609c0 .417-.058.844-.172 1.281s-.276.859-.484 1.266a5.52 5.52 0 0 1-.75 1.109c-.292.333-.615.609-.969.828.364.198.692.469.984.813a5.43 5.43 0 0 1 .75 1.109 5.56 5.56 0 0 1 .469 1.281c.114.438.172.865.172 1.281zm-13.438 2.234h6.719c.313 0 .604-.057.875-.172s.505-.271.703-.469c.208-.208.37-.448.485-.719a2.23 2.23 0 0 0 .171-.875c0-.312-.057-.604-.171-.875s-.277-.505-.485-.703a2.07 2.07 0 0 0-.703-.484 2.22 2.22 0 0 0-.875-.172h-6.719v4.469zm0-8.953h6.719a2.22 2.22 0 0 0 .875-.172c.271-.115.505-.271.703-.469a2.26 2.26 0 0 0 .485-.719 2.35 2.35 0 0 0 .171-.891c0-.312-.057-.604-.171-.875s-.277-.505-.485-.703a2.07 2.07 0 0 0-.703-.484 2.22 2.22 0 0 0-.875-.172h-6.719v4.484zm34.782 2.234c0 1.031-.136 2.026-.407 2.984a10.97 10.97 0 0 1-1.125 2.672c-.489.823-1.073 1.578-1.75 2.266-.677.677-1.432 1.26-2.265 1.75a11.43 11.43 0 0 1-2.688 1.141c-.948.26-1.937.391-2.969.391h-6.75V1.594h6.75c1.032 0 2.021.135 2.969.406.958.26 1.854.635 2.688 1.125s1.588 1.078 2.265 1.766a11.23 11.23 0 0 1 1.75 2.266 10.64 10.64 0 0 1 1.125 2.672c.271.948.407 1.937.407 2.969zm-4.485 0a6.46 6.46 0 0 0-.531-2.609c-.344-.812-.823-1.521-1.438-2.125-.604-.615-1.317-1.099-2.14-1.453-.813-.354-1.683-.531-2.61-.531h-2.234v13.437h2.234a6.63 6.63 0 0 0 2.61-.516 6.78 6.78 0 0 0 2.14-1.437c.615-.615 1.094-1.328 1.438-2.141a6.57 6.57 0 0 0 .531-2.625z" fill="#ffc800"/></svg>